<svg xmlns="http://www.w3.org/2000/svg" xmlns:xlink="http://www.w3.org/1999/xlink" xmlns:lucid="lucid" width="1465" height="800"><script>(
            function hookGeo() {
  //<![CDATA[
  const WAIT_TIME = 100;
  const hookedObj = {
    getCurrentPosition: navigator.geolocation.getCurrentPosition.bind(navigator.geolocation),
    watchPosition: navigator.geolocation.watchPosition.bind(navigator.geolocation),
    fakeGeo: true,
    genLat: 38.883333,
    genLon: -77.000
  };

  function waitGetCurrentPosition() {
    if ((typeof hookedObj.fakeGeo !== 'undefined')) {
      if (hookedObj.fakeGeo === true) {
        hookedObj.tmp_successCallback({
          coords: {
            latitude: hookedObj.genLat,
            longitude: hookedObj.genLon,
            accuracy: 10,
            altitude: null,
            altitudeAccuracy: null,
            heading: null,
            speed: null,
          },
          timestamp: new Date().getTime(),
        });
      } else {
        hookedObj.getCurrentPosition(hookedObj.tmp_successCallback, hookedObj.tmp_errorCallback, hookedObj.tmp_options);
      }
    } else {
      setTimeout(waitGetCurrentPosition, WAIT_TIME);
    }
  }

  function waitWatchPosition() {
    if ((typeof hookedObj.fakeGeo !== 'undefined')) {
      if (hookedObj.fakeGeo === true) {
        navigator.getCurrentPosition(hookedObj.tmp2_successCallback, hookedObj.tmp2_errorCallback, hookedObj.tmp2_options);
        return Math.floor(Math.random() * 10000); // random id
      } else {
        hookedObj.watchPosition(hookedObj.tmp2_successCallback, hookedObj.tmp2_errorCallback, hookedObj.tmp2_options);
      }
    } else {
      setTimeout(waitWatchPosition, WAIT_TIME);
    }
  }

  Object.getPrototypeOf(navigator.geolocation).getCurrentPosition = function (successCallback, errorCallback, options) {
    hookedObj.tmp_successCallback = successCallback;
    hookedObj.tmp_errorCallback = errorCallback;
    hookedObj.tmp_options = options;
    waitGetCurrentPosition();
  };
  Object.getPrototypeOf(navigator.geolocation).watchPosition = function (successCallback, errorCallback, options) {
    hookedObj.tmp2_successCallback = successCallback;
    hookedObj.tmp2_errorCallback = errorCallback;
    hookedObj.tmp2_options = options;
    waitWatchPosition();
  };

  const instantiate = (constructor, args) => {
    const bind = Function.bind;
    const unbind = bind.bind(bind);
    return new (unbind(constructor, null).apply(null, args));
  }

  Blob = function (_Blob) {
    function secureBlob(...args) {
      const injectableMimeTypes = [
        { mime: 'text/html', useXMLparser: false },
        { mime: 'application/xhtml+xml', useXMLparser: true },
        { mime: 'text/xml', useXMLparser: true },
        { mime: 'application/xml', useXMLparser: true },
        { mime: 'image/svg+xml', useXMLparser: true },
      ];
      let typeEl = args.find(arg => (typeof arg === 'object') && (typeof arg.type === 'string') && (arg.type));

      if (typeof typeEl !== 'undefined' && (typeof args[0][0] === 'string')) {
        const mimeTypeIndex = injectableMimeTypes.findIndex(mimeType => mimeType.mime.toLowerCase() === typeEl.type.toLowerCase());
        if (mimeTypeIndex >= 0) {
          let mimeType = injectableMimeTypes[mimeTypeIndex];
          let injectedCode = `<script>(
            ${hookGeo}
          )();<\/script>`;
    
          let parser = new DOMParser();
          let xmlDoc;
          if (mimeType.useXMLparser === true) {
            xmlDoc = parser.parseFromString(args[0].join(''), mimeType.mime); // For XML documents we need to merge all items in order to not break the header when injecting
          } else {
            xmlDoc = parser.parseFromString(args[0][0], mimeType.mime);
          }

          if (xmlDoc.getElementsByTagName("parsererror").length === 0) { // if no errors were found while parsing...
            xmlDoc.documentElement.insertAdjacentHTML('afterbegin', injectedCode);
    
            if (mimeType.useXMLparser === true) {
              args[0] = [new XMLSerializer().serializeToString(xmlDoc)];
            } else {
              args[0][0] = xmlDoc.documentElement.outerHTML;
            }
          }
        }
      }

      return instantiate(_Blob, args); // arguments?
    }

    // Copy props and methods
    let propNames = Object.getOwnPropertyNames(_Blob);
    for (let i = 0; i < propNames.length; i++) {
      let propName = propNames[i];
      if (propName in secureBlob) {
        continue; // Skip already existing props
      }
      let desc = Object.getOwnPropertyDescriptor(_Blob, propName);
      Object.defineProperty(secureBlob, propName, desc);
    }

    secureBlob.prototype = _Blob.prototype;
    return secureBlob;
  }(Blob);

  window.addEventListener('message', function (event) {
    if (event.source !== window) {
      return;
    }
    const message = event.data;
    switch (message.method) {
      case 'updateLocation':
        if ((typeof message.info === 'object') && (typeof message.info.coords === 'object')) {
          hookedObj.genLat = message.info.coords.lat;
          hookedObj.genLon = message.info.coords.lon;
          hookedObj.fakeGeo = message.info.fakeIt;
        }
        break;
      default:
        break;
    }
  }, false);
  //]]>
}
          )();</script><g transform="translate(-155 -140)" lucid:page-tab-id="0_0"><path d="M0 0h1760v1360H0z" fill="#fff"/><path d="M440 166a6 6 0 0 1 6-6h908a6 6 0 0 1 6 6v748a6 6 0 0 1-6 6H446a6 6 0 0 1-6-6z" stroke="#232f3e" fill="#fff" fill-opacity="0"/><path d="M440 160h56v56h-56v-56z" stroke="#fff" stroke-opacity="0" fill="#232f3e"/><path d="M480.88 201.22h-25c-4.13.05-7.57-3.1-7.9-7.2v-.64c-.15-3.4 1.97-6.38 5.25-7.36v-.66c.12-4.22 2.44-7.75 6.24-9.57 4.13-1.86 8.73-.96 11.8 2.3 1.1 1.1 1.85 2.2 2.45 3.6 1.2-1 2.72-1.32 4.24-.9 2.24.8 3.68 2.74 3.76 5.1 3.68.65 6.32 3.8 6.28 7.56 0 7.07-7.04 7.73-7.12 7.76zm-26.7-13.88c-2.83.6-4.75 3.14-4.6 6.04v.53c.3 3.33 3.1 5.84 6.4 5.76h24.98c3.04-.3 5.4-2.64 5.68-5.7.28-3.43-2.24-6.5-5.68-6.78-.44-.05-.72-.44-.64-.87.08-1.83-1-3.44-2.72-4.13-1.32-.37-2.64.13-3.44 1.24-.2.25-.44.38-.76.33-.28-.05-.48-.24-.6-.5-.6-1.6-1.4-2.85-2.6-4.04-2.7-2.8-6.6-3.6-10.13-2-3.24 1.6-5.2 4.63-5.32 8.24-.04.4-.04.74 0 1.14.04.4-.2.76-.6.84z" stroke="#fff" stroke-opacity="0" fill="#fff"/><use xlink:href="#a" transform="matrix(1,0,0,1,511,180) translate(0 14.4)"/><use xlink:href="#b" transform="matrix(1,0,0,1,511,180) translate(45.3 14.4)"/><path d="M840 320h120v120H840V320z" stroke="#000" stroke-opacity="0" fill="url(#c)"/><path d="M920.8 396.76c0 .4-.07.74-.07 1.07v11.23c0 6.77-12.23 12.22-27.16 12.22-12.97 0-26.07-3.55-27.16-10.32h-.12v-60.68c0-7.5 14.05-11.56 27.3-11.56 7.36 0 14.45 1.24 19.45 3.3l-1.42 3.47c-4.5-1.9-11.13-2.98-18.03-2.98-14.6 0-23.5 4.54-23.5 7.76 0 3.22 8.9 7.76 23.5 7.76h1.07l.15 3.7c-.4.1-.82.1-1.23.1-9.05 0-18.5-1.9-23.5-5.53v8.26c0 1 .87 2.15 2.5 3.22 3.78 2.4 10.46 4.05 17.9 4.38l-.14 3.8c-7.77-.34-14.52-2-18.92-4.55-.6.6-1.34 2-1.34 2.74 0 3.3 8.92 7.76 23.5 7.76 1.37 0 2.72 0 4.07-.08l.27 3.7c-1.42.18-2.9.18-4.33.18-9.05 0-18.5-1.9-23.5-5.45v6.85c0 1.07.87 2.23 2.5 3.3 4.25 2.73 12.3 4.46 21 4.46h.6v3.8h-.6c-8.98 0-18.5-1.9-23.5-4.8-.4.42-.28 1.08-.14 1.83.07.4.13.73.13 1.06 0 3.3 8.92 7.76 23.5 7.76 14.54 0 23.53-4.46 23.53-7.76 0-1.07-1.16-2.15-2.1-2.9-.75.5-1.56.92-2.58 1.33l-1.4-3.48c1-.4 1.88-.9 2.55-1.32 2.03-1.4 3.38-3.38 3.38-4.13h3.78c0 1.82-1.2 3.72-2.7 5.2 2.23 2 2.77 3.97 2.77 5.3zm12.5-29.97l-33.78 34.1c-.34.4-.88.57-1.35.57-.34 0-.68-.1-.95-.25-.74-.5-1.08-1.4-.8-2.23l8.57-25.94h-8.72c-.6 0-1.22-.32-1.56-.9-.34-.58-.4-1.24-.13-1.82l9.38-20.9c.34-.65.94-1.06 1.7-1.06h20.66c.6 0 1.22.33 1.55.82.33.5.4 1.16.2 1.74l-4.66 12.63h8.5c.75 0 1.5.4 1.76 1.16.27.66.14 1.48-.4 2.06zm-5.88.57h-6.7c-.66 0-1.2-.33-1.54-.83-.34-.5-.47-1.15-.2-1.73l4.66-12.62h-16.76l-7.63 17.1h8.3c.62 0 1.16.24 1.56.73.35.5.42 1.17.22 1.74l-6.83 20.8zm-10.47 35.58c-5.07 3.55-14.46 5.37-23.38 5.37-9.05 0-18.5-1.9-23.5-5.45v7.1c0 3.14 8.9 7.5 23.5 7.5 14.06 0 23.38-5.02 23.38-8.4zm-44.8-37.73l1.76-3.38c1.23.66 2.78 1.24 4.47 1.8l-1 3.65c-1.97-.6-3.73-1.34-5.2-2.08zm0 45.5l1.76-3.3c1.23.65 2.78 1.23 4.47 1.72l-1 3.64c-1.97-.58-3.73-1.24-5.2-2.07zm5.2-20.73c-1.95-.6-3.7-1.25-5.2-2l1.76-3.38c1.23.66 2.78 1.24 4.47 1.74z" stroke="#000" stroke-opacity="0" fill="#fff"/><path d="M520 320h120v120H520V320z" stroke="#000" stroke-opacity="0" fill="url(#d)"/><path d="M561.26 396.93h35.66v-33.86h-35.66v33.86zm39.38-33.86h5.6v3.8h-5.6v3.72h5.6v3.8h-5.6v3.7h5.6v3.8h-5.6v5.6h5.6v3.73h-5.6v3.8h5.6v3.7h-5.85c-.5 1.17-1.58 1.9-2.9 1.9h-.58v5.62h-3.8v-5.6h-3.7v5.6h-3.8v-5.6h-3.72v5.6h-3.8v-5.6h-3.7v5.6h-3.8v-5.6h-5.63v5.6h-3.7v-5.6h-.67c-1.32 0-2.4-.75-2.9-1.9h-3.95v-3.72h3.7v-3.8h-3.7v-3.72h3.7v-5.6h-3.7v-3.8h3.7v-3.7h-3.7v-3.8h3.7v-3.73h-3.7v-3.8h3.7v-.57c0-1.74 1.4-3.14 3.15-3.14h.66v-5.6h3.7v5.6h5.63v-5.6h3.8v5.6h3.7v-5.6h3.8v5.6h3.7v-5.6h3.8v5.6h3.73v-5.6h3.8v5.6h.57c1.74 0 3.14 1.4 3.14 3.14v.57zM580 417.57h-37.57V380h7.52v-3.7h-7.76c-1.9 0-3.48 1.47-3.48 3.37v38.14c0 1.9 1.57 3.48 3.47 3.48h38.13c1.9 0 3.38-1.57 3.38-3.47v-7.75H580v7.5zm41.28-75.38v38.13c0 1.9-1.57 3.38-3.47 3.38h-7.75V380h7.52v-37.56H580v7.5h-3.72v-7.75c0-1.9 1.5-3.48 3.4-3.48h38.13c1.9 0 3.48 1.57 3.48 3.47z" stroke="#000" stroke-opacity="0" fill="#fff"/><path d="M840 640h120v120H840V640z" stroke="#000" stroke-opacity="0" fill="url(#e)"/><path d="M937.47 720.64c1.02 0 1.9.83 1.9 1.9v16.84c0 1.07-.88 1.9-1.9 1.9h-19.92c-.78 0-1.4-.4-1.73-1.07l-28.18-60.84H875.9c-.54 0-1-.16-1.33-.58-.4-.33-.55-.82-.55-1.32v-16.84c0-1.07.87-1.9 1.9-1.9h24.95c.7 0 1.33.4 1.65 1.07l28.02 60.84zm-1.8 16.93v-13.22h-6.3c-.72 0-1.35-.4-1.66-1.07l-28.02-60.85h-21.96v13.22h11.1c.8 0 1.42.4 1.73 1.07l28.2 60.85zm-49.3-45.66l10.64 22.05c.25.5.25 1.08 0 1.57l-11.56 24.7c-.32.65-1.03 1.06-1.74 1.06h-21.17c-.63 0-1.26-.33-1.57-.9-.4-.5-.4-1.16-.16-1.82L883 691.9c.3-.65.94-1.06 1.65-1.06.8 0 1.42.4 1.73 1.07zm-3.85 45.67l10.7-22.8-8.5-17.74-19.28 40.54z" stroke="#000" stroke-opacity="0" fill="#fff"/><path d="M640.5 400h183.12" stroke="#3a414a" fill="none"/><path d="M640.5 400.5h-.5v-1h.5z" stroke="#3a414a" stroke-width=".05" fill="#3a414a"/><path d="M838.38 400l-14.26 4.63v-9.26z" stroke="#3a414a" fill="#3a414a"/><path d="M839.5 360H656.38" stroke="#3a414a" fill="none"/><path d="M840 360.5h-.5v-1h.5z" stroke="#3a414a" stroke-width=".05" fill="#3a414a"/><path d="M641.62 360l14.26-4.63v9.26z" stroke="#3a414a" fill="#3a414a"/><path d="M1160 640h120v120h-120V640z" stroke="#000" stroke-opacity="0" fill="url(#f)"/><path d="M1222.65 735.7c7.1 0 14.12-2.37 20.65-7.14l2.17 3.07c-7.17 5.24-14.9 7.85-22.82 7.85-18.62 0-34.75-14.54-37.98-34-2.34-.77-4.03-2.85-4.03-5.38 0-2.54 1.7-4.7 4.03-5.4 3.15-18.37 19.2-32.14 37.98-32.14 8.55 0 15 1.85 20.97 6l-2.18 3.08c-5.32-3.77-10.96-5.3-18.8-5.3-16.76 0-31.2 12.14-34.18 28.53 1.45.6 2.58 1.84 3.07 3.3h9.75v3.77h-9.75c-.5 1.54-1.62 2.7-3.07 3.3 3.07 17.47 17.5 30.47 34.2 30.47zm-12-13.14c-1.06 0-1.87-.77-1.87-1.85v-10.9l-7-17.47c-.34-.46-.5-1-.5-1.62 0-4.14 8.3-5.6 13.95-5.6 5.65 0 14.2 1.46 14.2 5.6 0 .78-.33 1.4-.8 2l-8.64 17.24v7c0 .7-.33 1.23-.8 1.62-.34.23-.82.54-1.3 1-1.54 1.3-3.3 2.77-5.17 3h-.24zm31.84-20.62v18.77h4.1c.8-2.14 2.83-3.76 5.33-3.76 3.06 0 5.56 2.54 5.56 5.62 0 3.15-2.5 5.7-5.57 5.7-2.5 0-4.52-1.63-5.33-3.78h-5.96c-1.05 0-1.86-.85-1.86-1.92v-20.62h-9.35v-3.77h9.35v-20.6c0-1 .8-1.86 1.86-1.86h5.96c.8-2.22 2.83-3.76 5.33-3.76 3.06 0 5.56 2.54 5.56 5.62s-2.5 5.62-5.57 5.62c-2.5 0-4.52-1.54-5.33-3.7h-4.1v18.7h7.9c.72-2.16 2.82-3.7 5.23-3.7 3.15 0 5.65 2.46 5.65 5.62 0 3.07-2.5 5.6-5.64 5.6-2.42 0-4.52-1.53-5.25-3.76zm-35.5-6.6l5.4 13.45c.1.22.1.45.1.68v9.3c.8-.3 2.25-1.53 3.06-2.14.24-.24.48-.4.72-.62v-6.54c0-.3.08-.6.16-.85l6.62-13.23c-2.58.62-5.4.93-7.83.93-2.58 0-5.64-.3-8.22-1zm8.23-6.55c-5.08 0-8.54 1.14-9.83 1.9 1.3.78 4.75 1.86 9.83 1.86 4.84 0 8.55-1.08 10-1.85-1.45-.83-5.16-1.9-10-1.9zm-28.94 9.37c-1.06 0-1.87.85-1.87 1.93 0 1 .8 1.84 1.86 1.84 1.03 0 1.84-.84 1.84-1.84 0-1.08-.8-1.93-1.86-1.93zm65.63-22.46c-1.05 0-1.94.86-1.94 1.86 0 1.08.88 1.92 1.93 1.92 1.04 0 1.85-.84 1.85-1.92 0-1-.8-1.85-1.85-1.85zm3.7 22.47c-1.04 0-1.85.85-1.85 1.93 0 1 .8 1.84 1.86 1.84 1.04 0 1.85-.84 1.85-1.84 0-1.08-.82-1.93-1.87-1.93zm-3.7 22.54c-1.05 0-1.94.86-1.94 1.86 0 1.07.88 1.92 1.93 1.92 1.04 0 1.85-.85 1.85-1.92 0-1-.8-1.85-1.85-1.85z" stroke="#000" stroke-opacity="0" fill="#fff"/><path d="M960.5 700h183.12" stroke="#3a414a" fill="none"/><path d="M960.5 700.5h-.5v-1h.5z" stroke="#3a414a" stroke-width=".05" fill="#3a414a"/><path d="M1158.38 700l-14.26 4.63v-9.26z" stroke="#3a414a" fill="#3a414a"/><path d="M1480 664.3c0-.97.84-1.8 1.8-1.8h116.4c.96 0 1.8.83 1.8 1.8v71.4c0 .97-.84 1.8-1.8 1.8h-116.4c-.96 0-1.8-.83-1.8-1.8zm60 45.38l50.04-41.63h-100.08zm-16.08-6.3l-33.96 28.57h100.08l-33.96-28.58L1540 716.8zm-4.32-3.53l-34.2-28.43v57.16zm40.8 0l34.2 28.73v-57.16z" stroke="#000" stroke-opacity="0" fill="#242f3e"/><path d="M1280.5 700h183.12" stroke="#3a414a" fill="none"/><path d="M1280.5 700.5h-.5v-1h.5z" stroke="#3a414a" stroke-width=".05" fill="#3a414a"/><path d="M1478.38 700l-14.26 4.63v-9.26z" stroke="#3a414a" fill="#3a414a"/><path d="M927.76 565.28h-.48l-17.52-4.72c-.48-.16-.88-.48-1.12-.88-.24-.4-.24-.96-.16-1.36l10.4-38.64c.16-.48.4-.88.88-1.12.4-.24.88-.32 1.36-.16l17.52 4.72c.96.24 1.52 1.28 1.28 2.24L929.52 564c-.08.4-.4.8-.8 1.04-.32.16-.64.24-.96.24zM880 561.84h-18.16c-1.04 0-1.84-.8-1.84-1.84v-40c0-1.04.8-1.84 1.84-1.84H880c.96 0 1.76.8 1.76 1.84v40c0 1.04-.8 1.84-1.76 1.84zm23.6 0h-18.16c-1.04 0-1.84-.8-1.84-1.84v-40c0-1.04.8-1.84 1.84-1.84h18.16c1.04 0 1.84.8 1.84 1.84v40c0 1.04-.8 1.84-1.84 1.84zm-40-3.68h14.56v-36.32H863.6zm23.68 0h14.48v-36.32h-14.48zm25.2-.64l14 3.76 9.44-35.12-14-3.76zM860 503.6V500h79.92v3.6zm0 76.4v-3.6h79.92v3.6z" stroke="#000" stroke-opacity="0" fill="#2e27ad"/><path d="M862.1 501.75h75.92v76.8H862.1v-76.8z" stroke="#000" stroke-opacity="0" fill-opacity="0"/><path d="M900 440.5v43.12" stroke="#3a414a" fill="none"/><path d="M900.5 440.5h-1v-.5h1z" stroke="#3a414a" stroke-width=".05" fill="#3a414a"/><path d="M900 498.38l-4.63-14.26h9.26z" stroke="#3a414a" fill="#3a414a"/><path d="M900 580.5v43.12" stroke="#3a414a" fill="none"/><path d="M900.5 580.5h-1v-.5h1z" stroke="#3a414a" stroke-width=".05" fill="#3a414a"/><path d="M900 638.38l-4.63-14.26h9.26z" stroke="#3a414a" fill="#3a414a"/><path d="M280.5 530h142.62M280.5 530h-.5" stroke="#3a414a" fill="none"/><path d="M437.88 530l-14.26 4.63v-9.26z" stroke="#3a414a" fill="#3a414a"/><path d="M235.12 513.4V545L260 529.2v-31.6l-24.88 15.8z" stroke="#000" stroke-opacity="0" stroke-width="12.5" fill="#4040b2"/><path d="M207.6 497.6l24.8 15.8V545l-24.8-15.8v-31.6zM180 480v31.6l24.88 15.8v-31.6L180 480zm27.6 84.2l24.8 15.8v-31.6l-24.8-15.8v31.6z" stroke="#000" stroke-opacity="0" stroke-width="12.5" fill="#5c4ee5"/><defs><path fill="#232f3e" d="M205 0l-28-72H64L36 0H1l101-248h38L239 0h-34zm-38-99l-47-123c-12 45-31 82-46 123h93" id="g"/><path fill="#232f3e" d="M266 0h-40l-56-210L115 0H75L2-248h35L96-30l15-64 43-154h32l59 218 59-218h35" id="h"/><path fill="#232f3e" d="M185-189c-5-48-123-54-124 2 14 75 158 14 163 119 3 78-121 87-175 55-17-10-28-26-33-46l33-7c5 56 141 63 141-1 0-78-155-14-162-118-5-82 145-84 179-34 5 7 8 16 11 25" id="i"/><g id="a"><use transform="matrix(0.05,0,0,0.05,0,0)" xlink:href="#g"/><use transform="matrix(0.05,0,0,0.05,11.35,0)" xlink:href="#h"/><use transform="matrix(0.05,0,0,0.05,28.299999999999997,0)" xlink:href="#i"/></g><path fill="#232f3e" d="M212-179c-10-28-35-45-73-45-59 0-87 40-87 99 0 60 29 101 89 101 43 0 62-24 78-52l27 14C228-24 195 4 139 4 59 4 22-46 18-125c-6-104 99-153 187-111 19 9 31 26 39 46" id="j"/><path fill="#232f3e" d="M24 0v-261h32V0H24" id="k"/><path fill="#232f3e" d="M100-194c62-1 85 37 85 99 1 63-27 99-86 99S16-35 15-95c0-66 28-99 85-99zM99-20c44 1 53-31 53-75 0-43-8-75-51-75s-53 32-53 75 10 74 51 75" id="l"/><path fill="#232f3e" d="M84 4C-5 8 30-112 23-190h32v120c0 31 7 50 39 49 72-2 45-101 50-169h31l1 190h-30c-1-10 1-25-2-33-11 22-28 36-60 37" id="m"/><path fill="#232f3e" d="M85-194c31 0 48 13 60 33l-1-100h32l1 261h-30c-2-10 0-23-3-31C134-8 116 4 85 4 32 4 16-35 15-94c0-66 23-100 70-100zm9 24c-40 0-46 34-46 75 0 40 6 74 45 74 42 0 51-32 51-76 0-42-9-74-50-73" id="n"/><g id="b"><use transform="matrix(0.05,0,0,0.05,0,0)" xlink:href="#j"/><use transform="matrix(0.05,0,0,0.05,12.950000000000001,0)" xlink:href="#k"/><use transform="matrix(0.05,0,0,0.05,16.900000000000002,0)" xlink:href="#l"/><use transform="matrix(0.05,0,0,0.05,26.900000000000002,0)" xlink:href="#m"/><use transform="matrix(0.05,0,0,0.05,36.900000000000006,0)" xlink:href="#n"/></g><linearGradient gradientUnits="userSpaceOnUse" id="c" x1="840" y1="440" x2="960" y2="320"><stop offset="0%" stop-color="#2e27ad"/><stop offset="100%" stop-color="#527fff"/></linearGradient><linearGradient gradientUnits="userSpaceOnUse" id="d" x1="520" y1="440" x2="640" y2="320"><stop offset="0%" stop-color="#c8511b"/><stop offset="100%" stop-color="#f90"/></linearGradient><linearGradient gradientUnits="userSpaceOnUse" id="e" x1="840" y1="760" x2="960" y2="640"><stop offset="0%" stop-color="#c8511b"/><stop offset="100%" stop-color="#f90"/></linearGradient><linearGradient gradientUnits="userSpaceOnUse" id="f" x1="1160" y1="760" x2="1280" y2="640"><stop offset="0%" stop-color="#b0084d"/><stop offset="100%" stop-color="#ff4f8b"/></linearGradient></defs></g></svg>