<svg xmlns="http://www.w3.org/2000/svg" xmlns:xlink="http://www.w3.org/1999/xlink" xmlns:lucid="lucid" width="1240" height="1240"><g transform="translate(-60 -20)" lucid:page-tab-id="0_0"><path d="M0 0h1360v1360H0z" fill="#fff"/><path d="M80 166a6 6 0 0 1 6-6h1188a6 6 0 0 1 6 6v628a6 6 0 0 1-6 6H86a6 6 0 0 1-6-6z" stroke="#232f3e" fill="#fff" fill-opacity="0"/><path d="M80 160h56v56H80v-56z" stroke="#fff" stroke-opacity="0" fill="#232f3e"/><path d="M120.88 201.22h-25c-4.13.05-7.57-3.1-7.9-7.2v-.64c-.15-3.4 1.97-6.38 5.25-7.36v-.66c.12-4.22 2.44-7.75 6.24-9.57 4.13-1.86 8.73-.96 11.8 2.3 1.1 1.1 1.85 2.2 2.45 3.6 1.2-1 2.72-1.32 4.24-.9 2.24.8 3.68 2.74 3.76 5.1 3.68.65 6.32 3.8 6.28 7.56 0 7.07-7.04 7.73-7.12 7.76zm-26.7-13.88c-2.83.6-4.75 3.14-4.6 6.04v.53c.3 3.33 3.1 5.84 6.4 5.76h24.98c3.04-.3 5.4-2.64 5.68-5.7.28-3.43-2.24-6.5-5.68-6.78-.44-.05-.72-.44-.64-.87.08-1.83-1-3.44-2.72-4.13-1.32-.37-2.64.13-3.44 1.24-.2.25-.44.38-.76.33-.28-.05-.48-.24-.6-.5-.6-1.6-1.4-2.85-2.6-4.04-2.7-2.8-6.6-3.6-10.13-2-3.24 1.6-5.2 4.63-5.32 8.24-.04.4-.04.74 0 1.14.04.4-.2.76-.6.84z" stroke="#fff" stroke-opacity="0" fill="#fff"/><use xlink:href="#a" transform="matrix(1,0,0,1,151,179.99999999999994) translate(0 14.4)"/><use xlink:href="#b" transform="matrix(1,0,0,1,151,179.99999999999994) translate(45.3 14.4)"/><path d="M120 246a6 6 0 0 1 6-6h1108a6 6 0 0 1 6 6v508a6 6 0 0 1-6 6H126a6 6 0 0 1-6-6z" stroke="#248814" fill="#fff" fill-opacity="0"/><path d="M120 240h56v56h-56v-56z" stroke="#fff" stroke-opacity="0" fill="#248814"/><path d="M151.76 268.3h-1.18v-1.1c-.12-1.73-1.48-3.07-3.2-3.2-1.9-.13-3.54 1.3-3.67 3.2v1.07h-1.17c-.44 0-.8.36-.8.8v6.13c0 .44.36.8.8.8h9.23c.44 0 .8-.36.8-.8v-6.1c0-.44-.36-.8-.8-.8zm-6.4-1.06c.1-1.03 1-1.77 2-1.67.9.08 1.58.76 1.67 1.67v1.06h-3.72zm5.65 7.08h-7.67v-4.42h7.63z" stroke="#fff" stroke-opacity="0" fill="#fff"/><path d="M162.27 265.75c-.1-2.45-1.58-4.48-3.87-5.3-1.58-.47-3.16-.14-4.4.9-.68-1.45-1.47-2.6-2.6-3.76-3.24-3.36-7.94-4.3-12.18-2.4-4.04 1.9-6.4 5.63-6.54 10.05v.7c-3.4.98-5.66 4.08-5.5 7.65v.63c.38 4.28 3.92 7.52 8.2 7.47h26s7.42-.63 7.42-8.1c.04-3.9-2.66-7.2-6.53-7.86zm-.96 14.38h-25.9c-3.47.06-6.3-2.52-6.6-5.96v-.52c-.15-3.05 1.93-5.7 4.92-6.3.38-.12.63-.48.6-.9-.06-.4-.06-.73 0-1.14.07-3.78 2.1-6.94 5.52-8.6 1.25-.56 2.4-.8 3.83-.84 2.62.08 4.87 1.04 6.7 2.94 1.25 1.3 2.04 2.6 2.62 4.3.03.15.1.28.24.37.37.27.87.2 1.12-.17.83-1.18 2.25-1.67 3.62-1.3 1.8.72 2.87 2.4 2.83 4.32-.07.4.22.82.64.9 3.57.36 6.2 3.55 5.82 7.12-.3 3.13-2.7 5.52-5.82 5.85z" stroke="#fff" stroke-opacity="0" fill="#fff"/><use xlink:href="#c" transform="matrix(1,0,0,1,191,260.00000000000006) translate(0 14.4)"/><use xlink:href="#d" transform="matrix(1,0,0,1,191,260.00000000000006) translate(55.5 14.4)"/><use xlink:href="#e" transform="matrix(1,0,0,1,191,260.00000000000006) translate(116.4 14.4)"/><path d="M480 846a6 6 0 0 1 6-6h388a6 6 0 0 1 6 6v388a6 6 0 0 1-6 6H486a6 6 0 0 1-6-6z" fill="#fff" fill-opacity="0"/><path d="M495.95 840h9.95m4.97 0h9.95m4.97 0h9.94m4.98 0h9.95m4.97 0h9.95m4.96 0h9.95m5 0h9.94m4.97 0h9.96m4.97 0h9.95m4.98 0h9.95m4.98 0h9.95m4.97 0h9.95m4.98 0h9.94m4.98 0h9.95m4.97 0h9.95m4.97 0h9.94m4.98 0h9.95m4.97 0h9.95m4.96 0h9.95m5 0h9.94m4.97 0h9.96m4.97 0h9.95m4.98 0h9.95m4.98 0h9.95m4.97 0h9.95m4.98 0H874l.94.07.9.22.88.35.8.5.72.6.6.72.5.8.37.88.23.9.07.95v4.97m0 4.98v9.95m0 4.97v9.95m0 4.97v9.94m0 4.98v9.95m0 4.97v9.95m0 4.96v9.95m0 5v9.94m0 4.97v9.96m0 4.97v9.95m0 4.98v9.95m0 4.98v9.95m0 4.97v9.95m0 4.98v9.94m0 4.98v9.95m0 4.97v9.95m0 4.98v9.94m0 4.98v9.95m0 4.97v9.95m0 4.96v9.95m0 5v9.94m0 4.97v9.96m0 4.97v9.95m0 4.98v9.94m0 4.98v9.95m0 4.97v9.95m0 4.98v4.97l-.07.94-.22.9-.35.88-.5.8-.6.72-.72.6-.8.5-.88.37-.9.23-.95.07h-4.97m-4.98 0h-9.95m-4.97 0h-9.95m-4.97 0h-9.94m-4.98 0h-9.95m-4.97 0h-9.95m-4.96 0h-9.95m-5 0h-9.94m-4.97 0h-9.96m-4.97 0h-9.95m-4.98 0h-9.95m-4.98 0h-9.95m-4.97 0h-9.95m-4.98 0h-9.94m-4.98 0h-9.95m-4.97 0h-9.95m-4.97 0h-9.94m-4.98 0h-9.95m-4.97 0h-9.95m-4.96 0h-9.95m-5 0h-9.94m-4.97 0h-9.96m-4.97 0h-9.95m-4.98 0h-9.95m-4.98 0h-9.95m-4.97 0h-9.95m-4.98 0H486l-.94-.07-.9-.22-.88-.35-.8-.5-.72-.6-.6-.72-.5-.8-.37-.88-.23-.9-.07-.95v-4.97m0-4.98v-9.95m0-4.97v-9.95m0-4.98v-9.94m0-4.98v-9.95m0-4.97v-9.95m0-4.96v-9.95m0-5v-9.94m0-4.97v-9.96m0-4.97v-9.95m0-4.98v-9.94m0-4.98v-9.95m0-4.97v-9.95m0-4.98v-9.94m0-4.98v-9.95m0-4.97v-9.95m0-4.97v-9.94m0-4.98v-9.95m0-4.97v-9.95m0-4.96v-9.95m0-5v-9.94m0-4.97v-9.96m0-4.97v-9.95m0-4.98v-9.95m0-4.98v-9.95m0-4.97v-9.95m0-4.98V846l.07-.94.22-.9.35-.88.5-.8.6-.72.72-.6.8-.5.88-.37.9-.23.95-.07h4.97" stroke="#0e76d4" fill="none"/><path d="M480 840h56v56h-56v-56z" stroke="#000" stroke-opacity="0" fill-opacity="0"/><path d="M508.05 865.6c-.07 0-.12-.03-.2-.07l-11.77-6.78c-.1-.08-.17-.2-.17-.32 0-.13.1-.24.18-.3l11.7-6.75c.12-.06.25-.06.37 0l11.77 6.8c.1.05.17.18.17.3 0 .14-.1.25-.18.3l-11.7 6.75c-.05.04-.12.06-.17.06z" stroke="#000" stroke-opacity="0" fill="#3999c6"/><path d="M506.35 882.1c-.06 0-.13-.02-.2-.05l-11.7-6.78c-.13-.06-.2-.17-.2-.3v-13.6c0-.1.06-.24.2-.3.1-.07.23-.07.34 0l11.72 6.78c.1.07.18.17.18.3v13.6c0 .12-.07.24-.18.3-.06.03-.1.05-.17.05zM509.67 882.1c-.06 0-.13-.02-.2-.05-.1-.06-.16-.18-.16-.3v-13.5c0-.13.07-.25.18-.32l11.73-6.77c.12-.07.26-.07.37 0 .1.06.18.2.18.3v13.5c0 .15-.07.25-.18.32l-11.73 6.77c-.05.03-.1.05-.17.05z" stroke="#000" stroke-opacity="0" fill="#59b4d9"/><path d="M509.67 882.1c-.06 0-.13-.02-.2-.05-.1-.06-.16-.18-.16-.3v-13.5c0-.13.07-.25.18-.32l11.73-6.77c.12-.07.26-.07.37 0 .1.06.18.2.18.3v13.5c0 .15-.07.25-.18.32l-11.73 6.77c-.05.03-.1.05-.17.05z" stroke="#000" stroke-opacity="0" fill="#fff" fill-opacity="0"/><path d="M495.65 883.6c-.2 0-.4-.06-.58-.15l-5.48-3.17c-.93-.5-1.6-1.67-1.6-2.74V857.4c0-1.06.67-2.23 1.6-2.74l5.47-3.16c.55-.33 1.27-.13 1.58.4.33.56.14 1.27-.42 1.6l-5.48 3.16c-.2.13-.42.52-.42.74v20.14c0 .23.23.6.42.74l5.48 3.17c.56.32.75 1.03.42 1.58-.2.38-.6.58-1 .58zM520.35 851.33c.2 0 .4.07.58.16l5.48 3.16c.93.5 1.6 1.68 1.6 2.74v20.14c0 1.06-.67 2.23-1.6 2.74l-5.47 3.17c-.55.32-1.27.12-1.58-.43-.33-.54-.13-1.25.42-1.58l5.48-3.16c.2-.13.42-.5.42-.74V857.4c0-.23-.22-.6-.42-.74l-5.48-3.16c-.55-.33-.75-1.04-.42-1.6.2-.37.6-.57 1-.57z" stroke="#000" stroke-opacity="0" fill="#7a7a7a"/><use xlink:href="#f" transform="matrix(1,0,0,1,556,860) translate(0 14.4)"/><use xlink:href="#g" transform="matrix(1,0,0,1,556,860) translate(81.9 14.4)"/><path d="M400 400h120v120H400V400z" stroke="#000" stroke-opacity="0" fill="url(#h)"/><path d="M480.8 476.76c0 .4-.07.74-.07 1.07v11.23c0 6.77-12.23 12.22-27.16 12.22-12.97 0-26.07-3.55-27.15-10.32h-.14v-60.68c0-7.5 14.05-11.56 27.3-11.56 7.36 0 14.45 1.24 19.45 3.3l-1.42 3.47c-4.5-1.9-11.14-2.98-18.03-2.98-14.6 0-23.5 4.54-23.5 7.76 0 3.22 8.9 7.76 23.5 7.76h1.07l.15 3.7c-.42.1-.82.1-1.23.1-9.05 0-18.5-1.9-23.5-5.53v8.26c0 1 .87 2.15 2.5 3.22 3.78 2.4 10.47 4.05 17.9 4.38l-.14 3.8c-7.77-.34-14.52-2-18.9-4.55-.62.6-1.37 2-1.37 2.74 0 3.3 8.92 7.76 23.5 7.76 1.37 0 2.72 0 4.07-.08l.27 3.7c-1.42.18-2.9.18-4.33.18-9.05 0-18.5-1.9-23.5-5.45v6.85c0 1.07.87 2.23 2.5 3.3 4.25 2.73 12.3 4.46 21 4.46h.6v3.8h-.6c-8.98 0-18.5-1.9-23.5-4.8-.4.42-.28 1.08-.14 1.83.07.4.13.73.13 1.06 0 3.3 8.92 7.76 23.5 7.76 14.54 0 23.52-4.46 23.52-7.76 0-1.07-1.14-2.15-2.1-2.9-.73.5-1.54.92-2.56 1.33L471 471.7c1.02-.4 1.9-.9 2.57-1.32 2.03-1.4 3.38-3.38 3.38-4.13h3.78c0 1.82-1.2 3.72-2.7 5.2 2.23 2 2.77 3.97 2.77 5.3zm12.5-29.97l-33.78 34.1c-.34.4-.88.57-1.35.57-.34 0-.68-.1-.95-.25-.74-.5-1.08-1.4-.8-2.23l8.57-25.94h-8.72c-.6 0-1.22-.32-1.56-.9-.34-.58-.4-1.24-.13-1.82l9.38-20.9c.34-.65.94-1.06 1.7-1.06h20.66c.6 0 1.22.33 1.56.82.33.5.4 1.16.2 1.74l-4.66 12.63h8.5c.75 0 1.5.4 1.76 1.16.28.66.14 1.48-.4 2.06zm-5.88.57h-6.7c-.66 0-1.2-.33-1.54-.83-.34-.5-.47-1.15-.2-1.73l4.66-12.62h-16.76l-7.63 17.1h8.3c.62 0 1.16.24 1.56.73.35.5.42 1.17.22 1.74l-6.83 20.8zm-10.47 35.58c-5.07 3.55-14.46 5.37-23.38 5.37-9.05 0-18.5-1.9-23.5-5.45v7.1c0 3.14 8.9 7.5 23.5 7.5 14.06 0 23.38-5.02 23.38-8.4zm-44.8-37.73l1.76-3.38c1.23.66 2.78 1.24 4.47 1.8l-1 3.65c-1.97-.6-3.73-1.34-5.2-2.08zm0 45.5l1.76-3.3c1.23.65 2.78 1.23 4.47 1.72l-1 3.64c-1.97-.58-3.73-1.24-5.2-2.07zm5.2-20.73c-1.95-.6-3.7-1.25-5.2-2l1.76-3.38c1.23.66 2.78 1.24 4.47 1.74z" stroke="#000" stroke-opacity="0" fill="#fff"/><path d="M160 600h120v120H160V600z" stroke="#000" stroke-opacity="0" fill="url(#i)"/><path d="M201.26 676.92h35.67v-33.84h-35.67v33.84zm39.38-33.84h5.6v3.8h-5.6v3.7h5.6v3.8h-5.6v3.72h5.6v3.8h-5.6v5.6h5.6v3.73h-5.6v3.8h5.6v3.7h-5.85c-.5 1.17-1.58 1.9-2.9 1.9h-.57v5.62h-3.8v-5.6h-3.72v5.6h-3.8v-5.6h-3.7v5.6h-3.8v-5.6h-3.7v5.6h-3.8v-5.6h-5.63v5.6h-3.7v-5.6h-.67c-1.32 0-2.4-.75-2.9-1.9h-3.95v-3.72h3.7v-3.8h-3.7v-3.72h3.7v-5.6h-3.7v-3.8h3.7v-3.7h-3.7v-3.8h3.7v-3.73h-3.7v-3.8h3.7v-.57c0-1.74 1.42-3.14 3.15-3.14h.66v-5.6h3.7v5.6h5.63v-5.6h3.8v5.6h3.7v-5.6h3.8v5.6h3.7v-5.6h3.8v5.6h3.73v-5.6h3.8v5.6h.57c1.74 0 3.14 1.4 3.14 3.14v.58zM220 697.58h-37.56V660h7.5v-3.72h-7.75c-1.9 0-3.48 1.5-3.48 3.4v38.13c0 1.9 1.57 3.48 3.47 3.48h38.13c1.9 0 3.38-1.57 3.38-3.47l.02-7.75H220v7.52zm41.28-75.4v38.15c0 1.9-1.57 3.38-3.47 3.38h-7.75V660h7.5v-37.57H220v7.52h-3.72v-7.76c0-1.9 1.5-3.48 3.4-3.48h38.13c1.9 0 3.48 1.57 3.48 3.47z" stroke="#000" stroke-opacity="0" fill="#fff"/><path d="M840 280h120v120H840V280z" stroke="#000" stroke-opacity="0" fill="url(#j)"/><path d="M937.47 360.64c1.02 0 1.9.83 1.9 1.9v16.84c0 1.07-.88 1.9-1.9 1.9h-19.92c-.78 0-1.4-.4-1.73-1.07l-28.18-60.84H875.9c-.54 0-1-.17-1.33-.58-.4-.33-.55-.82-.55-1.32v-16.84c0-1.07.87-1.9 1.9-1.9h24.95c.7 0 1.33.4 1.65 1.07l28.02 60.84zm-1.8 16.93v-13.2h-6.3c-.72 0-1.35-.43-1.66-1.1l-28.02-60.83h-21.96v13.2h11.1c.8 0 1.42.42 1.73 1.08l28.2 60.84zm-49.3-45.66l10.64 22.05c.25.5.25 1.08 0 1.57l-11.56 24.7c-.32.65-1.03 1.06-1.74 1.06h-21.17c-.63 0-1.26-.33-1.57-.9-.4-.5-.4-1.16-.16-1.82L883 331.9c.3-.65.94-1.06 1.65-1.06.8 0 1.42.4 1.73 1.07zm-3.85 45.67l10.7-22.8-8.5-17.74-19.28 40.54z" stroke="#000" stroke-opacity="0" fill="#fff"/><path d="M383.62 460H226a6 6 0 0 0-6 6v117.62" stroke="#3a414a" fill="none"/><path d="M398.38 460l-14.26 4.63v-9.26zM220 598.38l-4.63-14.26h9.26z" stroke="#3a414a" fill="#3a414a"/><path d="M1080 280h120v120h-120V280z" stroke="#000" stroke-opacity="0" fill="url(#k)"/><path d="M1142.65 375.7c7.1 0 14.12-2.37 20.65-7.14l2.17 3.07c-7.17 5.24-14.9 7.85-22.82 7.85-18.62 0-34.75-14.54-37.98-34-2.34-.77-4.03-2.85-4.03-5.38 0-2.54 1.7-4.7 4.03-5.4 3.15-18.37 19.2-32.14 37.98-32.14 8.55 0 15 1.85 20.97 6l-2.18 3.08c-5.32-3.77-10.96-5.3-18.8-5.3-16.76 0-31.2 12.14-34.18 28.53 1.45.6 2.58 1.84 3.07 3.3h9.75v3.77h-9.75c-.5 1.54-1.62 2.7-3.07 3.3 3.07 17.47 17.5 30.47 34.2 30.47zm-12-13.14c-1.06 0-1.87-.77-1.87-1.85v-10.9l-7-17.47c-.34-.46-.5-1-.5-1.62 0-4.14 8.3-5.6 13.95-5.6 5.65 0 14.2 1.46 14.2 5.6 0 .78-.33 1.4-.8 2l-8.64 17.24v7c0 .7-.33 1.23-.8 1.62-.34.23-.82.54-1.3 1-1.54 1.3-3.3 2.77-5.17 3h-.24zm31.84-20.62v18.77h4.1c.8-2.14 2.83-3.76 5.33-3.76 3.06 0 5.56 2.54 5.56 5.62 0 3.15-2.5 5.7-5.57 5.7-2.5 0-4.52-1.63-5.33-3.78h-5.96c-1.05 0-1.86-.85-1.86-1.92v-20.62h-9.35v-3.77h9.35v-20.6c0-1 .8-1.86 1.86-1.86h5.96c.8-2.22 2.83-3.76 5.33-3.76 3.06 0 5.56 2.54 5.56 5.62s-2.5 5.62-5.57 5.62c-2.5 0-4.52-1.54-5.33-3.7h-4.1v18.7h7.9c.72-2.16 2.82-3.7 5.23-3.7 3.15 0 5.65 2.46 5.65 5.62 0 3.07-2.5 5.6-5.64 5.6-2.42 0-4.52-1.53-5.25-3.76zm-35.5-6.6l5.4 13.45c.1.22.1.45.1.68v9.3c.8-.3 2.25-1.53 3.06-2.14.24-.24.48-.4.72-.62v-6.54c0-.3.08-.6.16-.85l6.62-13.23c-2.58.62-5.4.93-7.83.93-2.58 0-5.64-.3-8.22-1zm8.23-6.55c-5.08 0-8.54 1.14-9.83 1.9 1.3.78 4.75 1.86 9.83 1.86 4.84 0 8.55-1.08 10-1.85-1.45-.83-5.16-1.9-10-1.9zm-28.94 9.37c-1.06 0-1.87.85-1.87 1.93 0 1 .8 1.84 1.86 1.84 1.03 0 1.84-.84 1.84-1.84 0-1.08-.8-1.93-1.86-1.93zm65.63-22.46c-1.05 0-1.94.86-1.94 1.86 0 1.08.88 1.92 1.93 1.92 1.04 0 1.85-.84 1.85-1.92 0-1-.8-1.85-1.85-1.85zm3.7 22.47c-1.04 0-1.85.85-1.85 1.93 0 1 .8 1.84 1.86 1.84 1.04 0 1.85-.84 1.85-1.84 0-1.08-.82-1.93-1.87-1.93zm-3.7 22.54c-1.05 0-1.94.86-1.94 1.86 0 1.07.88 1.92 1.93 1.92 1.04 0 1.85-.85 1.85-1.92 0-1-.8-1.85-1.85-1.85z" stroke="#000" stroke-opacity="0" fill="#fff"/><path d="M960.5 340h103.12" stroke="#3a414a" fill="none"/><path d="M960.5 340.5h-.5v-1h.5z" stroke="#3a414a" stroke-width=".05" fill="#3a414a"/><path d="M1078.38 340l-14.26 4.63v-9.26z" stroke="#3a414a" fill="#3a414a"/><path d="M1080 1001.92c0-1.04.84-1.92 1.8-1.92h116.4c.96 0 1.8.88 1.8 1.92v76.16c0 1.04-.84 1.92-1.8 1.92h-116.4c-.96 0-1.8-.88-1.8-1.92zm60 48.4l50.04-44.4h-100.08zm-16.08-6.72l-33.96 30.48h100.08l-33.96-30.48-16.08 14.32zm-4.32-3.76l-34.2-30.32v60.96zm40.8 0l34.2 30.64v-60.96z" stroke="#000" stroke-opacity="0" fill="#242f3e"/><path d="M1140 400.5v583.12" stroke="#3a414a" fill="none"/><path d="M1140.5 400.5h-1v-.5h1z" stroke="#3a414a" stroke-width=".05" fill="#3a414a"/><path d="M1140 998.38l-4.63-14.26h9.27z" stroke="#3a414a" fill="#3a414a"/><path d="M721.64 497.92h-.72l-26.28-7.08c-.72-.24-1.32-.72-1.68-1.32-.36-.6-.36-1.44-.24-2.04l15.6-57.96c.24-.72.6-1.32 1.32-1.68.6-.36 1.32-.48 2.04-.24l26.28 7.08c1.44.36 2.28 1.92 1.92 3.36L724.28 496c-.12.6-.6 1.2-1.2 1.56-.48.24-.96.36-1.44.36zM650 492.76h-27.24c-1.56 0-2.76-1.2-2.76-2.76v-60c0-1.56 1.2-2.76 2.76-2.76H650c1.44 0 2.64 1.2 2.64 2.76v60c0 1.56-1.2 2.76-2.64 2.76zm35.4 0h-27.24c-1.56 0-2.76-1.2-2.76-2.76v-60c0-1.56 1.2-2.76 2.76-2.76h27.24c1.56 0 2.76 1.2 2.76 2.76v60c0 1.56-1.2 2.76-2.76 2.76zm-60-5.52h21.84v-54.48H625.4zm35.52 0h21.72v-54.48h-21.72zm37.8-.96l21 5.64 14.16-52.68-21-5.64zM620 405.4V400h119.88v5.4zm0 114.6v-5.4h119.88v5.4z" stroke="#000" stroke-opacity="0" fill="#2e27ad"/><path d="M623.14 402.63h113.88v115.2H623.14v-115.2z" stroke="#000" stroke-opacity="0" fill-opacity="0"/><path d="M520.5 460h83.12" stroke="#3a414a" fill="none"/><path d="M520.5 460.5h-.5v-1h.5z" stroke="#3a414a" stroke-width=".05" fill="#3a414a"/><path d="M618.38 460l-14.26 4.63v-9.26z" stroke="#3a414a" fill="#3a414a"/><path d="M737.52 460h45a6 6 0 0 0 6-6V346a6 6 0 0 1 6-6h29.1" stroke="#3a414a" fill="none"/><path d="M737.54 460.5h-.52v-1h.52z" stroke="#3a414a" stroke-width=".05" fill="#3a414a"/><path d="M838.38 340l-14.26 4.63v-9.26z" stroke="#3a414a" fill="#3a414a"/><path d="M737.5 242.36c0 31.8-25.76 57.63-57.5 57.63s-57.5-25.83-57.5-57.64c0-31.8 25.76-57.63 57.5-57.63s57.5 25.82 57.5 57.63z" fill="#9d5025"/><path d="M622.5 237.62h115v4.73h-115v-4.73z" fill="#9d5025"/><path d="M737.5 237.63c0 31.8-25.76 57.63-57.5 57.63s-57.5-25.82-57.5-57.63c0-31.8 25.76-57.63 57.5-57.63s57.5 25.82 57.5 57.63z" fill="#f58536"/><path d="M636.64 243.36v-1.5c.44-7 4.34-12.8 10.66-15.86.6-12.86 11.52-22.8 24.43-22.13 8.05.4 14.8 4.5 18.88 11.48 6.6-2.77 14.13.28 16.9 6.83.43.94.7 1.7.87 2.66 8.66 1.72 14.9 10.03 14.9 17.02v1.4c0 8.53-8.84 16-18.9 16h-48.93c-9.96.07-18.8-7.42-18.8-15.9z" fill="#fff"/><path d="M691.77 221.5L688.1 224l-1.87-4.06c-2.85-6.34-8.7-10.23-15.66-10.27h-.07c-9.52 0-17.3 7.77-17.3 17.38v3.23l-2.7.8c-4.57 1.83-7.57 5.85-7.94 10.8v1.4c0 4.66 5.7 10.08 12.96 10.08h49c7.33 0 12.95-5.42 12.95-10.1v-1.4c0-4.7-5.25-10.87-11.32-11.35l-3.3-.26-.22-3.28c0-1.4-.45-2.54-1.2-3.68-2.17-3.2-6.5-3.98-9.66-1.8z" fill="#f58536"/><path d="M160 726a6 6 0 0 1 6-6h108a6 6 0 0 1 6 6v28a6 6 0 0 1-6 6H166a6 6 0 0 1-6-6z" stroke="#000" stroke-opacity="0" fill="#fff" fill-opacity="0"/><use xlink:href="#l" transform="matrix(1,0,0,1,165,725.0000000000002) translate(1.6913580246913824 14.222222222222218)"/><use xlink:href="#m" transform="matrix(1,0,0,1,165,725.0000000000002) translate(41.14814814814816 14.222222222222218)"/><path d="M380 526a6 6 0 0 1 6-6h148a6 6 0 0 1 6 6v40.67a6 6 0 0 1-6 6H386a6 6 0 0 1-6-6z" stroke="#000" stroke-opacity="0" fill="#fff" fill-opacity="0"/><use xlink:href="#n" transform="matrix(1,0,0,1,385,525) translate(5.987654320987673 14.222222222222218)"/><use xlink:href="#o" transform="matrix(1,0,0,1,385,525) translate(101.64197530864196 14.222222222222218)"/><path d="M590 372.33a6 6 0 0 1 6-6h168a6 6 0 0 1 6 6v8a6 6 0 0 1-6 6H596a6 6 0 0 1-6-6z" stroke="#000" stroke-opacity="0" fill="#fff" fill-opacity="0"/><use xlink:href="#n" transform="matrix(1,0,0,1,595,371.33333333333326) translate(4.135802469135825 14.222222222222218)"/><use xlink:href="#p" transform="matrix(1,0,0,1,595,371.33333333333326) translate(99.79012345679011 14.222222222222218)"/><path d="M840 406a6 6 0 0 1 6-6h108a6 6 0 0 1 6 6v28a6 6 0 0 1-6 6H846a6 6 0 0 1-6-6z" stroke="#000" stroke-opacity="0" fill="#fff" fill-opacity="0"/><use xlink:href="#q" transform="matrix(1,0,0,1,845,405) translate(0.5555555555555713 14.222222222222218)"/><use xlink:href="#r" transform="matrix(1,0,0,1,845,405) translate(45.2962962962963 14.222222222222218)"/><path d="M1080 258.67a6 6 0 0 1 6-6h108a6 6 0 0 1 6 6V274a6 6 0 0 1-6 6h-108a6 6 0 0 1-6-6z" stroke="#000" stroke-opacity="0" fill="#fff" fill-opacity="0"/><use xlink:href="#s" transform="matrix(1,0,0,1,1085,257.66666666666663) translate(13.59259259259261 14.222222222222218)"/><use xlink:href="#t" transform="matrix(1,0,0,1,1085,257.66666666666663) translate(55.0246913580247 14.222222222222218)"/><path d="M600 306a6 6 0 0 1 6-6h148a6 6 0 0 1 6 6v8a6 6 0 0 1-6 6H606a6 6 0 0 1-6-6z" stroke="#000" stroke-opacity="0" fill="#fff" fill-opacity="0"/><use xlink:href="#u" transform="matrix(1,0,0,1,605,304.99999999999994) translate(7.395061728395092 14.222222222222218)"/><use xlink:href="#v" transform="matrix(1,0,0,1,605,304.99999999999994) translate(72.53086419753087 14.222222222222218)"/><path d="M659.12 1041.08c.24.6.84.84 1.44.84.6.24 1.2.24 1.8.24.6 0 1.08 0 1.44-.24.6-.24.84-.6 1.44-1.08.24-.6.6-1.08.84-1.68.24-.6.24-1.32.24-2.4 0-.84 0-1.44-.24-2.28-.36-.72-.36-1.32-.84-1.92-.36-.6-.84-.84-1.2-1.32-.6-.36-1.08-.6-1.68-.6-.84 0-1.44.24-2.04.6-.6.24-.96.72-1.44 1.08-.36.6-.6 1.08-.96 1.68-.24.48-.24 1.32-.24 2.16 0 1.08 0 1.92.24 2.4.6 1.44.96 2.04 1.2 2.52z" stroke="#000" stroke-opacity="0" fill="#0078d7"/><path d="M675.92 1062.56c.84 0 2.04 0 2.88.24 4.68-8.76 13.92-14.52 24.72-15.12V996.2c0-8.16-18.96-16.2-41.76-16.2-23.16 0-41.76 7.44-41.76 15.72V1070c0 7.44 15.36 14.52 35.4 15.6-.24-1.08-.24-2.16-.24-3.24-.12-10.68 9.12-19.8 20.76-19.8zm15.12-15.12h-14.52v-21.24h6.72v16.32h7.8v4.92zm-29.28-61.68c16.44 0 29.76 3.84 29.76 8.52s-13.32 8.52-29.76 8.52c-16.56 0-29.88-3.84-29.88-8.52s13.32-8.52 29.88-8.52zm-12.48 56.76c0 .48-.36 1.08-.6 1.68-.36.48-.6 1.08-1.2 1.32-.6.6-1.08.84-1.68 1.08-.6.24-1.44.6-2.64.84-.84.24-2.04.24-3.48.24h-2.04c-.6 0-1.2 0-1.8-.24-.6 0-1.08-.36-1.44-.36-.6 0-.84-.24-1.08-.48v-5.76c.24.24.84.48 1.44.72s.84.6 1.44.84 1.08.24 1.68.6c.6.24 1.2.24 1.8.24.6 0 .84 0 1.08-.24.36 0 .6-.36.6-.36.36 0 .36-.24.36-.48v-.6c0-.24 0-.6-.36-.84-.24-.24-.24-.48-.6-.48-.24-.36-.6-.36-1.08-.6-.6-.36-.84-.36-1.44-.6-.84-.24-1.8-.84-2.64-1.32-.6-.6-1.08-.84-1.68-1.44-.6-.6-.84-1.08-.84-1.68-.36-.48-.36-1.32-.36-1.92 0-1.08.36-1.92.6-2.76.6-.72 1.2-1.68 1.8-2.16.84-.6 1.68-1.08 2.88-1.32 1.08-.36 2.28-.6 3.72-.6h2.04c.6 0 1.2 0 1.8.24.6 0 .84.36 1.44.36.24 0 .84.24 1.08.24v5.52c-.24-.36-.48-.36-1.08-.6-.36-.24-.84-.24-1.44-.6-.6-.24-.84-.24-1.44-.24h-1.8c-.84 0-1.44 0-1.68.24-.6.36-.6.6-.6 1.08 0 .36 0 .6.24.6 0 .36.36.36.6.6.36.24.6.24.84.6.36.24.84.24 1.44.48.84.36 1.8.84 2.64 1.08.84.6 1.44.84 2.04 1.44.6.6.84 1.08 1.44 1.68.36.48.6 1.32.6 2.4-.6.48-.6.96-.6 1.56zm2.28-1.08c-.6-1.44-.84-2.76-.84-4.44 0-1.68.36-3.36.84-4.68.6-1.44 1.44-2.52 2.28-3.6.84-1.08 2.4-1.68 3.48-2.16 1.56-.6 3-.84 4.68-.84 1.8 0 3.24.24 4.32.84 1.44.48 2.64 1.32 3.48 2.16.96.84 1.8 2.16 2.4 3.24.6 1.44.84 2.76.84 4.8 0 1.08 0 2.4-.6 3.24-.36 1.08-.84 1.92-1.44 2.76-.6.84-1.2 1.68-2.04 2.16-.96.6-1.44 1.08-2.64 1.68l7.56 6.12h-8.76l-4.92-5.04c-1.44 0-2.88-.6-3.96-.84-1.2-.48-2.4-1.32-3.24-2.16 0-.84-.84-1.92-1.44-3.24z" stroke="#000" stroke-opacity="0" fill="#0078d7"/><path d="M740 1089.8c0-5.16-4.44-9.6-9.84-10.2.24-1.68.6-3 .6-4.68 0-13.44-11.64-24.48-25.8-24.48-10.8 0-20.4 6.12-24.12 15.36-1.44-.24-2.88-.48-4.56-.48-10.2 0-18.36 7.68-18.36 17.28 0 9.36 7.92 17.04 18 17.4H732.44v-.36c4.32-.96 7.56-5.16 7.56-9.84zm-9.84 7.44h-54c-8.4 0-15.36-6.6-15.36-14.52 0-8.04 6.96-14.64 15.36-14.64 1.8 0 3.48.24 4.92.84l1.44.48.6-1.32c3.24-8.88 11.88-14.88 21.84-14.88 12.72 0 22.92 9.84 22.92 21.72 0 1.92-.36 3.84-.96 5.76l-.6 2.28 2.16-.36h.84c4.32 0 7.8 3.36 7.8 7.44 0 3.6-3 6.96-6.96 7.2z" stroke="#000" stroke-opacity="0" fill="#0078d7"/><use xlink:href="#w" transform="matrix(1,0,0,1,590,1109) translate(5.375 14.4)"/><use xlink:href="#x" transform="matrix(1,0,0,1,590,1109) translate(57.325 14.4)"/><use xlink:href="#y" transform="matrix(1,0,0,1,590,1109) translate(97.67500000000001 14.4)"/><path d="M242.68 1020.08V1058l37.32-18.96v-37.92l-37.32 18.96z" stroke="#000" stroke-opacity="0" stroke-width="12.5" fill="#4040b2"/><path d="M201.4 1001.12l37.2 18.96V1058l-37.2-18.96v-37.92zM160 980v37.92l37.32 18.96v-37.92L160 980zm41.4 101.04l37.2 18.96v-37.92l-37.2-18.96v37.92z" stroke="#000" stroke-opacity="0" stroke-width="12.5" fill="#5c4ee5"/><path d="M840 480h120v120H840V480z" stroke="#fff" stroke-opacity="0" stroke-width="2" fill="#d6242d"/><path d="M918.13 560.44l2.27-2.27 19.13 19.12-2.27 2.26-19.13-19.12zM860.47 502.74l2.25-2.25 21.2 21.2-2.24 2.25-21.2-21.2zM865.27 572.56l11.2-11.2 2.26 2.26-11.2 11.2-2.26-2.26zM921.27 516.54l11.2-11.2 2.26 2.27-11.2 11.2-2.26-2.26z" stroke="#fff" stroke-opacity="0" stroke-width="1.41" fill="#fff"/><path d="M936.74 538.43c-.32-7.5-2.5-13.83-6.9-19.9l-2.6 1.9c4 5.5 5.98 11.2 6.3 18h-3.2v3.2h3.2c-.28 6.83-2.27 12.56-6.3 18.12l2.6 1.85c4.42-6.12 6.62-12.45 6.9-20h3.2v-3.22zM880.34 512.83c5.53-4 11.24-6 18.06-6.28v3.08h3.2v-3.08c6.82.3 12.53 2.28 18.06 6.28l1.94-2.6c-6.13-4.4-12.44-6.6-20-6.88v-3.32h-3.2v3.32c-7.56.28-13.87 2.47-20 6.88zM919.66 567.33c-5.53 4-11.24 6-18.06 6.3v-3.22h-3.2v3.22c-6.82-.3-12.53-2.3-18.06-6.3l-1.94 2.6c6.13 4.42 12.44 6.6 20 6.9v3.2h3.2v-3.2c7.56-.3 13.87-2.48 20-6.9zM870.16 561.6l2.6-1.9c-4.03-5.5-6.02-11.25-6.3-18.1h3.2v-3.2h-3.2c.32-6.8 2.3-12.5 6.3-18l-2.6-1.9c-4.4 6.07-6.58 12.4-6.9 19.9h-3.2v3.2h3.2c.28 7.54 2.48 13.88 6.9 20zM907.84 518.8c-2.3-1.9-4.86-2.8-7.84-2.77-6.18 0-11.2 4.36-11.2 9.76v7.8h-3.2c-.9 0-1.6.75-1.6 1.6v22.43c0 .44.16.82.48 1.13.3.3.67.47 1.12.47h28.8c.9 0 1.6-.73 1.6-1.6V535.2c0-.42-.16-.77-.45-1.07-.32-.34-.7-.52-1.15-.52h-3.2v-7.8c-.03-2.8-1.18-5.23-3.36-7zm-15.84 7c0-3.63 3.62-6.57 8-6.57 2.18-.05 4.06.6 5.76 2 1.44 1.15 2.2 2.7 2.27 4.56v7.8h-16zm20.8 15.85H908v3.2h4.8v3.2H908v3.2h4.8v4.78h-25.6V536.8h25.6z" stroke="#fff" stroke-opacity="0" stroke-width="2" fill="#fff"/><path d="M898.4 548.4v4.43h3.2v-4.42c1.35-.47 2.3-1.43 2.8-2.8.9-2.43-.37-5.12-2.8-6-2.44-.87-5.13.38-6 2.8-.9 2.45.37 5.13 2.8 6zm1.6-6.1c.96 0 1.74.76 1.74 1.72 0 .95-.75 1.73-1.7 1.75-.96 0-1.75-.76-1.76-1.72V544c0-.94.78-1.7 1.72-1.7z" stroke="#fff" stroke-opacity="0" stroke-width="2" fill="#fff"/><use xlink:href="#z" transform="matrix(1,0,0,1,810,609.0000000000001) translate(0.049382716049393593 14.222222222222221)"/><use xlink:href="#A" transform="matrix(1,0,0,1,810,609.0000000000001) translate(44.79012345679013 14.222222222222221)"/><use xlink:href="#B" transform="matrix(1,0,0,1,810,609.0000000000001) translate(109.92592592592592 14.222222222222221)"/><path d="M823.62 540H566a6 6 0 0 0-6 6v88a6 6 0 0 1-6 6H296.38" stroke="#3a414a" fill="none"/><path d="M838.38 540l-14.26 4.63v-9.26zM281.62 640l14.26-4.63v9.26z" stroke="#3a414a" fill="#3a414a"/><path d="M296.38 680H444a6 6 0 0 1 6 6v328a6 6 0 0 0 6 6h147.62" stroke="#3a414a" fill="none"/><path d="M281.62 680l14.26-4.63v9.26zM618.38 1020l-14.26 4.63v-9.27z" stroke="#3a414a" fill="#3a414a"/><path d="M278.6 1040h184.52" stroke="#3a414a" fill="none"/><path d="M278.62 1040.5h-1.5l1.5-.76z" stroke="#3a414a" stroke-width=".05" fill="#3a414a"/><path d="M477.88 1040l-14.26 4.63v-9.27z" stroke="#3a414a" fill="#3a414a"/><path d="M220 1010.1V816.9" stroke="#3a414a" fill="none"/><path d="M220.5 1010.86l-1-.5v-.27h1z" stroke="#3a414a" stroke-width=".05" fill="#3a414a"/><path d="M220 802.12l4.63 14.26h-9.26z" stroke="#3a414a" fill="#3a414a"/><path d="M80 46a6 6 0 0 1 6-6h1188a6 6 0 0 1 6 6v108a6 6 0 0 1-6 6H86a6 6 0 0 1-6-6z" stroke="#000" stroke-opacity="0" fill="#fff" fill-opacity="0"/><g><use xlink:href="#C" transform="matrix(1,0,0,1,85,45) translate(303.10185185185196 43.85416666666666)"/><use xlink:href="#D" transform="matrix(1,0,0,1,85,45) translate(471.25000000000006 43.85416666666666)"/><use xlink:href="#E" transform="matrix(1,0,0,1,85,45) translate(643.1018518518518 43.85416666666666)"/><use xlink:href="#F" transform="matrix(1,0,0,1,85,45) translate(755.787037037037 43.85416666666666)"/><use xlink:href="#G" transform="matrix(1,0,0,1,85,45) translate(354.0185185185186 80.29861111111109)"/><use xlink:href="#H" transform="matrix(1,0,0,1,85,45) translate(491.7222222222223 80.29861111111109)"/><use xlink:href="#I" transform="matrix(1,0,0,1,85,45) translate(653.5802469135801 80.29861111111109)"/><use xlink:href="#J" transform="matrix(1,0,0,1,85,45) translate(712.8024691358023 80.29861111111109)"/></g><path d="M1000 846a6 6 0 0 1 6-6h108a6 6 0 0 1 6 6v68a6 6 0 0 1-6 6h-108a6 6 0 0 1-6-6z" stroke="#000" stroke-opacity="0" fill="#fff" fill-opacity="0"/><g><use xlink:href="#K" transform="matrix(1,0,0,1,1005,845) translate(0.28395061728397764 27.347222222222218)"/><use xlink:href="#L" transform="matrix(1,0,0,1,1005,845) translate(50.555555555555564 27.347222222222218)"/><use xlink:href="#M" transform="matrix(1,0,0,1,1005,845) translate(19.049382716049394 48.68055555555554)"/><use xlink:href="#N" transform="matrix(1,0,0,1,1005,845) translate(46.654320987654316 48.68055555555554)"/></g><path d="M280.5 660h834.3a6 6 0 0 0 6-6V416.38" stroke="#3a414a" fill="none"/><path d="M280.5 660.5h-.5v-1h.5z" stroke="#3a414a" stroke-width=".05" fill="#3a414a"/><path d="M1120.8 401.62l4.63 14.26h-9.27z" stroke="#3a414a" fill="#3a414a"/><defs><path fill="#232f3e" d="M205 0l-28-72H64L36 0H1l101-248h38L239 0h-34zm-38-99l-47-123c-12 45-31 82-46 123h93" id="O"/><path fill="#232f3e" d="M266 0h-40l-56-210L115 0H75L2-248h35L96-30l15-64 43-154h32l59 218 59-218h35" id="P"/><path fill="#232f3e" d="M185-189c-5-48-123-54-124 2 14 75 158 14 163 119 3 78-121 87-175 55-17-10-28-26-33-46l33-7c5 56 141 63 141-1 0-78-155-14-162-118-5-82 145-84 179-34 5 7 8 16 11 25" id="Q"/><g id="a"><use transform="matrix(0.05,0,0,0.05,0,0)" xlink:href="#O"/><use transform="matrix(0.05,0,0,0.05,11.35,0)" xlink:href="#P"/><use transform="matrix(0.05,0,0,0.05,28.299999999999997,0)" xlink:href="#Q"/></g><path fill="#232f3e" d="M212-179c-10-28-35-45-73-45-59 0-87 40-87 99 0 60 29 101 89 101 43 0 62-24 78-52l27 14C228-24 195 4 139 4 59 4 22-46 18-125c-6-104 99-153 187-111 19 9 31 26 39 46" id="R"/><path fill="#232f3e" d="M24 0v-261h32V0H24" id="S"/><path fill="#232f3e" d="M100-194c62-1 85 37 85 99 1 63-27 99-86 99S16-35 15-95c0-66 28-99 85-99zM99-20c44 1 53-31 53-75 0-43-8-75-51-75s-53 32-53 75 10 74 51 75" id="T"/><path fill="#232f3e" d="M84 4C-5 8 30-112 23-190h32v120c0 31 7 50 39 49 72-2 45-101 50-169h31l1 190h-30c-1-10 1-25-2-33-11 22-28 36-60 37" id="U"/><path fill="#232f3e" d="M85-194c31 0 48 13 60 33l-1-100h32l1 261h-30c-2-10 0-23-3-31C134-8 116 4 85 4 32 4 16-35 15-94c0-66 23-100 70-100zm9 24c-40 0-46 34-46 75 0 40 6 74 45 74 42 0 51-32 51-76 0-42-9-74-50-73" id="V"/><g id="b"><use transform="matrix(0.05,0,0,0.05,0,0)" xlink:href="#R"/><use transform="matrix(0.05,0,0,0.05,12.950000000000001,0)" xlink:href="#S"/><use transform="matrix(0.05,0,0,0.05,16.900000000000002,0)" xlink:href="#T"/><use transform="matrix(0.05,0,0,0.05,26.900000000000002,0)" xlink:href="#U"/><use transform="matrix(0.05,0,0,0.05,36.900000000000006,0)" xlink:href="#V"/></g><path fill="#248814" d="M137 0h-34L2-248h35l83 218 83-218h36" id="W"/><path fill="#248814" d="M24-231v-30h32v30H24zM24 0v-190h32V0H24" id="X"/><path fill="#248814" d="M114-163C36-179 61-72 57 0H25l-1-190h30c1 12-1 29 2 39 6-27 23-49 58-41v29" id="Y"/><path fill="#248814" d="M59-47c-2 24 18 29 38 22v24C64 9 27 4 27-40v-127H5v-23h24l9-43h21v43h35v23H59v120" id="Z"/><path fill="#248814" d="M84 4C-5 8 30-112 23-190h32v120c0 31 7 50 39 49 72-2 45-101 50-169h31l1 190h-30c-1-10 1-25-2-33-11 22-28 36-60 37" id="aa"/><path fill="#248814" d="M141-36C126-15 110 5 73 4 37 3 15-17 15-53c-1-64 63-63 125-63 3-35-9-54-41-54-24 1-41 7-42 31l-33-3c5-37 33-52 76-52 45 0 72 20 72 64v82c-1 20 7 32 28 27v20c-31 9-61-2-59-35zM48-53c0 20 12 33 32 33 41-3 63-29 60-74-43 2-92-5-92 41" id="ab"/><path fill="#248814" d="M24 0v-261h32V0H24" id="ac"/><g id="c"><use transform="matrix(0.05,0,0,0.05,0,0)" xlink:href="#W"/><use transform="matrix(0.05,0,0,0.05,11.65,0)" xlink:href="#X"/><use transform="matrix(0.05,0,0,0.05,15.600000000000001,0)" xlink:href="#Y"/><use transform="matrix(0.05,0,0,0.05,21.55,0)" xlink:href="#Z"/><use transform="matrix(0.05,0,0,0.05,26.55,0)" xlink:href="#aa"/><use transform="matrix(0.05,0,0,0.05,36.55,0)" xlink:href="#ab"/><use transform="matrix(0.05,0,0,0.05,46.55,0)" xlink:href="#ac"/></g><path fill="#248814" d="M30-248c87 1 191-15 191 75 0 78-77 80-158 76V0H30v-248zm33 125c57 0 124 11 124-50 0-59-68-47-124-48v98" id="ad"/><path fill="#248814" d="M108 0H70L1-190h34L89-25l56-165h34" id="ae"/><path fill="#248814" d="M100-194c63 0 86 42 84 106H49c0 40 14 67 53 68 26 1 43-12 49-29l28 8c-11 28-37 45-77 45C44 4 14-33 15-96c1-61 26-98 85-98zm52 81c6-60-76-77-97-28-3 7-6 17-6 28h103" id="af"/><g id="d"><use transform="matrix(0.05,0,0,0.05,0,0)" xlink:href="#ad"/><use transform="matrix(0.05,0,0,0.05,12,0)" xlink:href="#Y"/><use transform="matrix(0.05,0,0,0.05,17.95,0)" xlink:href="#X"/><use transform="matrix(0.05,0,0,0.05,21.9,0)" xlink:href="#ae"/><use transform="matrix(0.05,0,0,0.05,30.899999999999995,0)" xlink:href="#ab"/><use transform="matrix(0.05,0,0,0.05,40.9,0)" xlink:href="#Z"/><use transform="matrix(0.05,0,0,0.05,45.9,0)" xlink:href="#af"/></g><path fill="#248814" d="M212-179c-10-28-35-45-73-45-59 0-87 40-87 99 0 60 29 101 89 101 43 0 62-24 78-52l27 14C228-24 195 4 139 4 59 4 22-46 18-125c-6-104 99-153 187-111 19 9 31 26 39 46" id="ag"/><path fill="#248814" d="M100-194c62-1 85 37 85 99 1 63-27 99-86 99S16-35 15-95c0-66 28-99 85-99zM99-20c44 1 53-31 53-75 0-43-8-75-51-75s-53 32-53 75 10 74 51 75" id="ah"/><path fill="#248814" d="M85-194c31 0 48 13 60 33l-1-100h32l1 261h-30c-2-10 0-23-3-31C134-8 116 4 85 4 32 4 16-35 15-94c0-66 23-100 70-100zm9 24c-40 0-46 34-46 75 0 40 6 74 45 74 42 0 51-32 51-76 0-42-9-74-50-73" id="ai"/><g id="e"><use transform="matrix(0.05,0,0,0.05,0,0)" xlink:href="#ag"/><use transform="matrix(0.05,0,0,0.05,12.950000000000001,0)" xlink:href="#ac"/><use transform="matrix(0.05,0,0,0.05,16.900000000000002,0)" xlink:href="#ah"/><use transform="matrix(0.05,0,0,0.05,26.900000000000002,0)" xlink:href="#aa"/><use transform="matrix(0.05,0,0,0.05,36.900000000000006,0)" xlink:href="#ai"/></g><path d="M233-177c-1 41-23 64-60 70L243 0h-38l-65-103H63V0H30v-248c88 3 205-21 203 71zM63-129c60-2 137 13 137-47 0-61-80-42-137-45v92" id="aj"/><path d="M100-194c63 0 86 42 84 106H49c0 40 14 67 53 68 26 1 43-12 49-29l28 8c-11 28-37 45-77 45C44 4 14-33 15-96c1-61 26-98 85-98zm52 81c6-60-76-77-97-28-3 7-6 17-6 28h103" id="ak"/><path d="M135-143c-3-34-86-38-87 0 15 53 115 12 119 90S17 21 10-45l28-5c4 36 97 45 98 0-10-56-113-15-118-90-4-57 82-63 122-42 12 7 21 19 24 35" id="al"/><path d="M100-194c62-1 85 37 85 99 1 63-27 99-86 99S16-35 15-95c0-66 28-99 85-99zM99-20c44 1 53-31 53-75 0-43-8-75-51-75s-53 32-53 75 10 74 51 75" id="am"/><path d="M84 4C-5 8 30-112 23-190h32v120c0 31 7 50 39 49 72-2 45-101 50-169h31l1 190h-30c-1-10 1-25-2-33-11 22-28 36-60 37" id="an"/><path d="M114-163C36-179 61-72 57 0H25l-1-190h30c1 12-1 29 2 39 6-27 23-49 58-41v29" id="ao"/><path d="M96-169c-40 0-48 33-48 73s9 75 48 75c24 0 41-14 43-38l32 2c-6 37-31 61-74 61-59 0-76-41-82-99-10-93 101-131 147-64 4 7 5 14 7 22l-32 3c-4-21-16-35-41-35" id="ap"/><g id="f"><use transform="matrix(0.05,0,0,0.05,0,0)" xlink:href="#aj"/><use transform="matrix(0.05,0,0,0.05,12.950000000000001,0)" xlink:href="#ak"/><use transform="matrix(0.05,0,0,0.05,22.950000000000003,0)" xlink:href="#al"/><use transform="matrix(0.05,0,0,0.05,31.950000000000003,0)" xlink:href="#am"/><use transform="matrix(0.05,0,0,0.05,41.95,0)" xlink:href="#an"/><use transform="matrix(0.05,0,0,0.05,51.95,0)" xlink:href="#ao"/><use transform="matrix(0.05,0,0,0.05,57.900000000000006,0)" xlink:href="#ap"/><use transform="matrix(0.05,0,0,0.05,66.9,0)" xlink:href="#ak"/></g><path d="M143 4C61 4 22-44 18-125c-5-107 100-154 193-111 17 8 29 25 37 43l-32 9c-13-25-37-40-76-40-61 0-88 39-88 99 0 61 29 100 91 101 35 0 62-11 79-27v-45h-74v-28h105v86C228-13 192 4 143 4" id="aq"/><path d="M115-194c55 1 70 41 70 98S169 2 115 4C84 4 66-9 55-30l1 105H24l-1-265h31l2 30c10-21 28-34 59-34zm-8 174c40 0 45-34 45-75s-6-73-45-74c-42 0-51 32-51 76 0 43 10 73 51 73" id="ar"/><g id="g"><use transform="matrix(0.05,0,0,0.05,0,0)" xlink:href="#aq"/><use transform="matrix(0.05,0,0,0.05,14,0)" xlink:href="#ao"/><use transform="matrix(0.05,0,0,0.05,19.95,0)" xlink:href="#am"/><use transform="matrix(0.05,0,0,0.05,29.950000000000003,0)" xlink:href="#an"/><use transform="matrix(0.05,0,0,0.05,39.95,0)" xlink:href="#ar"/></g><linearGradient gradientUnits="userSpaceOnUse" id="h" x1="400" y1="520" x2="520" y2="400"><stop offset="0%" stop-color="#2e27ad"/><stop offset="100%" stop-color="#527fff"/></linearGradient><linearGradient gradientUnits="userSpaceOnUse" id="i" x1="160" y1="720" x2="280" y2="600"><stop offset="0%" stop-color="#c8511b"/><stop offset="100%" stop-color="#f90"/></linearGradient><linearGradient gradientUnits="userSpaceOnUse" id="j" x1="840" y1="400" x2="960" y2="280"><stop offset="0%" stop-color="#c8511b"/><stop offset="100%" stop-color="#f90"/></linearGradient><linearGradient gradientUnits="userSpaceOnUse" id="k" x1="1080" y1="400" x2="1200" y2="280"><stop offset="0%" stop-color="#b0084d"/><stop offset="100%" stop-color="#ff4f8b"/></linearGradient><path fill="#3a414a" d="M30 0v-248h187v28H63v79h144v27H63v87h162V0H30" id="as"/><path fill="#3a414a" d="M212-179c-10-28-35-45-73-45-59 0-87 40-87 99 0 60 29 101 89 101 43 0 62-24 78-52l27 14C228-24 195 4 139 4 59 4 22-46 18-125c-6-104 99-153 187-111 19 9 31 26 39 46" id="at"/><path fill="#3a414a" d="M101-251c82-7 93 87 43 132L82-64C71-53 59-42 53-27h129V0H18c2-99 128-94 128-182 0-28-16-43-45-43s-46 15-49 41l-32-3c6-41 34-60 81-64" id="au"/><g id="l"><use transform="matrix(0.0493827160493827,0,0,0.0493827160493827,0,0)" xlink:href="#as"/><use transform="matrix(0.0493827160493827,0,0,0.0493827160493827,11.851851851851848,0)" xlink:href="#at"/><use transform="matrix(0.0493827160493827,0,0,0.0493827160493827,24.641975308641968,0)" xlink:href="#au"/></g><path fill="#3a414a" d="M33 0v-248h34V0H33" id="av"/><path fill="#3a414a" d="M117-194c89-4 53 116 60 194h-32v-121c0-31-8-49-39-48C34-167 62-67 57 0H25l-1-190h30c1 10-1 24 2 32 11-22 29-35 61-36" id="aw"/><path fill="#3a414a" d="M135-143c-3-34-86-38-87 0 15 53 115 12 119 90S17 21 10-45l28-5c4 36 97 45 98 0-10-56-113-15-118-90-4-57 82-63 122-42 12 7 21 19 24 35" id="ax"/><path fill="#3a414a" d="M59-47c-2 24 18 29 38 22v24C64 9 27 4 27-40v-127H5v-23h24l9-43h21v43h35v23H59v120" id="ay"/><path fill="#3a414a" d="M141-36C126-15 110 5 73 4 37 3 15-17 15-53c-1-64 63-63 125-63 3-35-9-54-41-54-24 1-41 7-42 31l-33-3c5-37 33-52 76-52 45 0 72 20 72 64v82c-1 20 7 32 28 27v20c-31 9-61-2-59-35zM48-53c0 20 12 33 32 33 41-3 63-29 60-74-43 2-92-5-92 41" id="az"/><path fill="#3a414a" d="M96-169c-40 0-48 33-48 73s9 75 48 75c24 0 41-14 43-38l32 2c-6 37-31 61-74 61-59 0-76-41-82-99-10-93 101-131 147-64 4 7 5 14 7 22l-32 3c-4-21-16-35-41-35" id="aA"/><path fill="#3a414a" d="M100-194c63 0 86 42 84 106H49c0 40 14 67 53 68 26 1 43-12 49-29l28 8c-11 28-37 45-77 45C44 4 14-33 15-96c1-61 26-98 85-98zm52 81c6-60-76-77-97-28-3 7-6 17-6 28h103" id="aB"/><g id="m"><use transform="matrix(0.0493827160493827,0,0,0.0493827160493827,0,0)" xlink:href="#av"/><use transform="matrix(0.0493827160493827,0,0,0.0493827160493827,4.9382716049382696,0)" xlink:href="#aw"/><use transform="matrix(0.0493827160493827,0,0,0.0493827160493827,14.81481481481481,0)" xlink:href="#ax"/><use transform="matrix(0.0493827160493827,0,0,0.0493827160493827,23.703703703703695,0)" xlink:href="#ay"/><use transform="matrix(0.0493827160493827,0,0,0.0493827160493827,28.641975308641964,0)" xlink:href="#az"/><use transform="matrix(0.0493827160493827,0,0,0.0493827160493827,38.518518518518505,0)" xlink:href="#aw"/><use transform="matrix(0.0493827160493827,0,0,0.0493827160493827,48.39506172839504,0)" xlink:href="#aA"/><use transform="matrix(0.0493827160493827,0,0,0.0493827160493827,57.28395061728393,0)" xlink:href="#aB"/></g><path fill="#3a414a" d="M30-248c118-7 216 8 213 122C240-48 200 0 122 0H30v-248zM63-27c89 8 146-16 146-99s-60-101-146-95v194" id="aC"/><path fill="#3a414a" d="M179-190L93 31C79 59 56 82 12 73V49c39 6 53-20 64-50L1-190h34L92-34l54-156h33" id="aD"/><path fill="#3a414a" d="M210-169c-67 3-38 105-44 169h-31v-121c0-29-5-50-35-48C34-165 62-65 56 0H25l-1-190h30c1 10-1 24 2 32 10-44 99-50 107 0 11-21 27-35 58-36 85-2 47 119 55 194h-31v-121c0-29-5-49-35-48" id="aE"/><path fill="#3a414a" d="M100-194c62-1 85 37 85 99 1 63-27 99-86 99S16-35 15-95c0-66 28-99 85-99zM99-20c44 1 53-31 53-75 0-43-8-75-51-75s-53 32-53 75 10 74 51 75" id="aF"/><path fill="#3a414a" d="M160-131c35 5 61 23 61 61C221 17 115-2 30 0v-248c76 3 177-17 177 60 0 33-19 50-47 57zm-97-11c50-1 110 9 110-42 0-47-63-36-110-37v79zm0 115c55-2 124 14 124-45 0-56-70-42-124-44v89" id="aG"/><g id="n"><use transform="matrix(0.0493827160493827,0,0,0.0493827160493827,0,0)" xlink:href="#aC"/><use transform="matrix(0.0493827160493827,0,0,0.0493827160493827,12.79012345679012,0)" xlink:href="#aD"/><use transform="matrix(0.0493827160493827,0,0,0.0493827160493827,21.679012345679006,0)" xlink:href="#aw"/><use transform="matrix(0.0493827160493827,0,0,0.0493827160493827,31.555555555555546,0)" xlink:href="#az"/><use transform="matrix(0.0493827160493827,0,0,0.0493827160493827,41.43209876543208,0)" xlink:href="#aE"/><use transform="matrix(0.0493827160493827,0,0,0.0493827160493827,56.1975308641975,0)" xlink:href="#aF"/><use transform="matrix(0.0493827160493827,0,0,0.0493827160493827,66.07407407407405,0)" xlink:href="#aC"/><use transform="matrix(0.0493827160493827,0,0,0.0493827160493827,78.86419753086417,0)" xlink:href="#aG"/></g><path fill="#3a414a" d="M127-220V0H93v-220H8v-28h204v28h-85" id="aH"/><path fill="#3a414a" d="M115-194c53 0 69 39 70 98 0 66-23 100-70 100C84 3 66-7 56-30L54 0H23l1-261h32v101c10-23 28-34 59-34zm-8 174c40 0 45-34 45-75 0-40-5-75-45-74-42 0-51 32-51 76 0 43 10 73 51 73" id="aI"/><path fill="#3a414a" d="M24 0v-261h32V0H24" id="aJ"/><g id="o"><use transform="matrix(0.0493827160493827,0,0,0.0493827160493827,0,0)" xlink:href="#aH"/><use transform="matrix(0.0493827160493827,0,0,0.0493827160493827,8.839506172839503,0)" xlink:href="#az"/><use transform="matrix(0.0493827160493827,0,0,0.0493827160493827,18.716049382716044,0)" xlink:href="#aI"/><use transform="matrix(0.0493827160493827,0,0,0.0493827160493827,28.592592592592585,0)" xlink:href="#aJ"/><use transform="matrix(0.0493827160493827,0,0,0.0493827160493827,32.493827160493815,0)" xlink:href="#aB"/></g><path fill="#3a414a" d="M185-189c-5-48-123-54-124 2 14 75 158 14 163 119 3 78-121 87-175 55-17-10-28-26-33-46l33-7c5 56 141 63 141-1 0-78-155-14-162-118-5-82 145-84 179-34 5 7 8 16 11 25" id="aK"/><path fill="#3a414a" d="M114-163C36-179 61-72 57 0H25l-1-190h30c1 12-1 29 2 39 6-27 23-49 58-41v29" id="aL"/><g id="p"><use transform="matrix(0.0493827160493827,0,0,0.0493827160493827,0,0)" xlink:href="#aK"/><use transform="matrix(0.0493827160493827,0,0,0.0493827160493827,11.851851851851848,0)" xlink:href="#ay"/><use transform="matrix(0.0493827160493827,0,0,0.0493827160493827,16.790123456790116,0)" xlink:href="#aL"/><use transform="matrix(0.0493827160493827,0,0,0.0493827160493827,22.666666666666657,0)" xlink:href="#aB"/><use transform="matrix(0.0493827160493827,0,0,0.0493827160493827,32.543209876543195,0)" xlink:href="#az"/><use transform="matrix(0.0493827160493827,0,0,0.0493827160493827,42.41975308641973,0)" xlink:href="#aE"/><use transform="matrix(0.0493827160493827,0,0,0.0493827160493827,57.18518518518517,0)" xlink:href="#ax"/></g><path fill="#3a414a" d="M205 0l-28-72H64L36 0H1l101-248h38L239 0h-34zm-38-99l-47-123c-12 45-31 82-46 123h93" id="aM"/><path fill="#3a414a" d="M266 0h-40l-56-210L115 0H75L2-248h35L96-30l15-64 43-154h32l59 218 59-218h35" id="aN"/><g id="q"><use transform="matrix(0.0493827160493827,0,0,0.0493827160493827,0,0)" xlink:href="#aM"/><use transform="matrix(0.0493827160493827,0,0,0.0493827160493827,11.209876543209873,0)" xlink:href="#aN"/><use transform="matrix(0.0493827160493827,0,0,0.0493827160493827,27.950617283950606,0)" xlink:href="#aK"/></g><path fill="#3a414a" d="M30 0v-248h33v221h125V0H30" id="aO"/><path fill="#3a414a" d="M85-194c31 0 48 13 60 33l-1-100h32l1 261h-30c-2-10 0-23-3-31C134-8 116 4 85 4 32 4 16-35 15-94c0-66 23-100 70-100zm9 24c-40 0-46 34-46 75 0 40 6 74 45 74 42 0 51-32 51-76 0-42-9-74-50-73" id="aP"/><g id="r"><use transform="matrix(0.0493827160493827,0,0,0.0493827160493827,0,0)" xlink:href="#aO"/><use transform="matrix(0.0493827160493827,0,0,0.0493827160493827,9.876543209876539,0)" xlink:href="#az"/><use transform="matrix(0.0493827160493827,0,0,0.0493827160493827,19.753086419753078,0)" xlink:href="#aE"/><use transform="matrix(0.0493827160493827,0,0,0.0493827160493827,34.518518518518505,0)" xlink:href="#aI"/><use transform="matrix(0.0493827160493827,0,0,0.0493827160493827,44.39506172839504,0)" xlink:href="#aP"/><use transform="matrix(0.0493827160493827,0,0,0.0493827160493827,54.27160493827157,0)" xlink:href="#az"/></g><path fill="#3a414a" d="M190 0L58-211 59 0H30v-248h39L202-35l-2-213h31V0h-41" id="aQ"/><g id="s"><use transform="matrix(0.0493827160493827,0,0,0.0493827160493827,0,0)" xlink:href="#aK"/><use transform="matrix(0.0493827160493827,0,0,0.0493827160493827,11.851851851851848,0)" xlink:href="#aQ"/><use transform="matrix(0.0493827160493827,0,0,0.0493827160493827,24.641975308641968,0)" xlink:href="#aK"/></g><path fill="#3a414a" d="M115-194c55 1 70 41 70 98S169 2 115 4C84 4 66-9 55-30l1 105H24l-1-265h31l2 30c10-21 28-34 59-34zm-8 174c40 0 45-34 45-75s-6-73-45-74c-42 0-51 32-51 76 0 43 10 73 51 73" id="aR"/><path fill="#3a414a" d="M24-231v-30h32v30H24zM24 0v-190h32V0H24" id="aS"/><g id="t"><use transform="matrix(0.0493827160493827,0,0,0.0493827160493827,0,0)" xlink:href="#aH"/><use transform="matrix(0.0493827160493827,0,0,0.0493827160493827,8.839506172839503,0)" xlink:href="#aF"/><use transform="matrix(0.0493827160493827,0,0,0.0493827160493827,18.716049382716044,0)" xlink:href="#aR"/><use transform="matrix(0.0493827160493827,0,0,0.0493827160493827,28.592592592592585,0)" xlink:href="#aS"/><use transform="matrix(0.0493827160493827,0,0,0.0493827160493827,32.493827160493815,0)" xlink:href="#aA"/></g><g id="u"><use transform="matrix(0.0493827160493827,0,0,0.0493827160493827,0,0)" xlink:href="#av"/><use transform="matrix(0.0493827160493827,0,0,0.0493827160493827,4.9382716049382696,0)" xlink:href="#aw"/><use transform="matrix(0.0493827160493827,0,0,0.0493827160493827,14.81481481481481,0)" xlink:href="#ay"/><use transform="matrix(0.0493827160493827,0,0,0.0493827160493827,19.753086419753078,0)" xlink:href="#aB"/><use transform="matrix(0.0493827160493827,0,0,0.0493827160493827,29.62962962962962,0)" xlink:href="#aL"/><use transform="matrix(0.0493827160493827,0,0,0.0493827160493827,35.50617283950616,0)" xlink:href="#aw"/><use transform="matrix(0.0493827160493827,0,0,0.0493827160493827,45.3827160493827,0)" xlink:href="#aB"/><use transform="matrix(0.0493827160493827,0,0,0.0493827160493827,55.25925925925924,0)" xlink:href="#ay"/></g><path fill="#3a414a" d="M143 4C61 4 22-44 18-125c-5-107 100-154 193-111 17 8 29 25 37 43l-32 9c-13-25-37-40-76-40-61 0-88 39-88 99 0 61 29 100 91 101 35 0 62-11 79-27v-45h-74v-28h105v86C228-13 192 4 143 4" id="aT"/><path fill="#3a414a" d="M206 0h-36l-40-164L89 0H53L-1-190h32L70-26l43-164h34l41 164 42-164h31" id="aU"/><g id="v"><use transform="matrix(0.0493827160493827,0,0,0.0493827160493827,0,0)" xlink:href="#aT"/><use transform="matrix(0.0493827160493827,0,0,0.0493827160493827,13.827160493827156,0)" xlink:href="#az"/><use transform="matrix(0.0493827160493827,0,0,0.0493827160493827,23.703703703703695,0)" xlink:href="#ay"/><use transform="matrix(0.0493827160493827,0,0,0.0493827160493827,28.641975308641964,0)" xlink:href="#aB"/><use transform="matrix(0.0493827160493827,0,0,0.0493827160493827,38.518518518518505,0)" xlink:href="#aU"/><use transform="matrix(0.0493827160493827,0,0,0.0493827160493827,51.308641975308625,0)" xlink:href="#az"/><use transform="matrix(0.0493827160493827,0,0,0.0493827160493827,61.18518518518516,0)" xlink:href="#aD"/></g><path d="M205 0l-28-72H64L36 0H1l101-248h38L239 0h-34zm-38-99l-47-123c-12 45-31 82-46 123h93" id="aV"/><path d="M9 0v-24l116-142H16v-24h144v24L44-24h123V0H9" id="aW"/><g id="w"><use transform="matrix(0.05,0,0,0.05,0,0)" xlink:href="#aV"/><use transform="matrix(0.05,0,0,0.05,12,0)" xlink:href="#aW"/><use transform="matrix(0.05,0,0,0.05,21,0)" xlink:href="#an"/><use transform="matrix(0.05,0,0,0.05,31,0)" xlink:href="#ao"/><use transform="matrix(0.05,0,0,0.05,36.95,0)" xlink:href="#ak"/></g><path d="M185-189c-5-48-123-54-124 2 14 75 158 14 163 119 3 78-121 87-175 55-17-10-28-26-33-46l33-7c5 56 141 63 141-1 0-78-155-14-162-118-5-82 145-84 179-34 5 7 8 16 11 25" id="aX"/><path d="M140-251c81 0 123 46 123 126C263-53 228-8 163 1c7 30 30 48 69 40v23c-55 16-95-15-103-61C56-3 17-48 17-125c0-80 42-126 123-126zm0 227c63 0 89-41 89-101s-29-99-89-99c-61 0-89 39-89 99S79-25 140-24" id="aY"/><path d="M30 0v-248h33v221h125V0H30" id="aZ"/><g id="x"><use transform="matrix(0.05,0,0,0.05,0,0)" xlink:href="#aX"/><use transform="matrix(0.05,0,0,0.05,12,0)" xlink:href="#aY"/><use transform="matrix(0.05,0,0,0.05,26,0)" xlink:href="#aZ"/></g><path d="M30-248c118-7 216 8 213 122C240-48 200 0 122 0H30v-248zM63-27c89 8 146-16 146-99s-60-101-146-95v194" id="ba"/><path d="M141-36C126-15 110 5 73 4 37 3 15-17 15-53c-1-64 63-63 125-63 3-35-9-54-41-54-24 1-41 7-42 31l-33-3c5-37 33-52 76-52 45 0 72 20 72 64v82c-1 20 7 32 28 27v20c-31 9-61-2-59-35zM48-53c0 20 12 33 32 33 41-3 63-29 60-74-43 2-92-5-92 41" id="bb"/><path d="M59-47c-2 24 18 29 38 22v24C64 9 27 4 27-40v-127H5v-23h24l9-43h21v43h35v23H59v120" id="bc"/><path d="M115-194c53 0 69 39 70 98 0 66-23 100-70 100C84 3 66-7 56-30L54 0H23l1-261h32v101c10-23 28-34 59-34zm-8 174c40 0 45-34 45-75 0-40-5-75-45-74-42 0-51 32-51 76 0 43 10 73 51 73" id="bd"/><g id="y"><use transform="matrix(0.05,0,0,0.05,0,0)" xlink:href="#ba"/><use transform="matrix(0.05,0,0,0.05,12.950000000000001,0)" xlink:href="#bb"/><use transform="matrix(0.05,0,0,0.05,22.950000000000003,0)" xlink:href="#bc"/><use transform="matrix(0.05,0,0,0.05,27.950000000000003,0)" xlink:href="#bb"/><use transform="matrix(0.05,0,0,0.05,37.95,0)" xlink:href="#bd"/><use transform="matrix(0.05,0,0,0.05,47.95,0)" xlink:href="#bb"/><use transform="matrix(0.05,0,0,0.05,57.95,0)" xlink:href="#al"/><use transform="matrix(0.05,0,0,0.05,66.95,0)" xlink:href="#ak"/></g><g id="z"><use transform="matrix(0.049382716049382706,0,0,0.049382716049382706,0,0)" xlink:href="#aM"/><use transform="matrix(0.049382716049382706,0,0,0.049382716049382706,11.209876543209875,0)" xlink:href="#aN"/><use transform="matrix(0.049382716049382706,0,0,0.049382716049382706,27.950617283950614,0)" xlink:href="#aK"/></g><g id="A"><use transform="matrix(0.049382716049382706,0,0,0.049382716049382706,0,0)" xlink:href="#aK"/><use transform="matrix(0.049382716049382706,0,0,0.049382716049382706,11.85185185185185,0)" xlink:href="#aB"/><use transform="matrix(0.049382716049382706,0,0,0.049382716049382706,21.728395061728392,0)" xlink:href="#aA"/><use transform="matrix(0.049382716049382706,0,0,0.049382716049382706,30.617283950617278,0)" xlink:href="#aL"/><use transform="matrix(0.049382716049382706,0,0,0.049382716049382706,36.49382716049382,0)" xlink:href="#aB"/><use transform="matrix(0.049382716049382706,0,0,0.049382716049382706,46.37037037037037,0)" xlink:href="#ay"/><use transform="matrix(0.049382716049382706,0,0,0.049382716049382706,51.308641975308646,0)" xlink:href="#ax"/></g><path fill="#3a414a" d="M240 0l2-218c-23 76-54 145-80 218h-23L58-218 59 0H30v-248h44l77 211c21-75 51-140 76-211h43V0h-30" id="be"/><path fill="#3a414a" d="M177-190C167-65 218 103 67 71c-23-6-38-20-44-43l32-5c15 47 100 32 89-28v-30C133-14 115 1 83 1 29 1 15-40 15-95c0-56 16-97 71-98 29-1 48 16 59 35 1-10 0-23 2-32h30zM94-22c36 0 50-32 50-73 0-42-14-75-50-75-39 0-46 34-46 75s6 73 46 73" id="bf"/><g id="B"><use transform="matrix(0.049382716049382706,0,0,0.049382716049382706,0,0)" xlink:href="#be"/><use transform="matrix(0.049382716049382706,0,0,0.049382716049382706,14.765432098765428,0)" xlink:href="#az"/><use transform="matrix(0.049382716049382706,0,0,0.049382716049382706,24.641975308641968,0)" xlink:href="#aw"/><use transform="matrix(0.049382716049382706,0,0,0.049382716049382706,34.518518518518505,0)" xlink:href="#az"/><use transform="matrix(0.049382716049382706,0,0,0.049382716049382706,44.39506172839505,0)" xlink:href="#bf"/><use transform="matrix(0.049382716049382706,0,0,0.049382716049382706,54.271604938271594,0)" xlink:href="#aB"/><use transform="matrix(0.049382716049382706,0,0,0.049382716049382706,64.14814814814814,0)" xlink:href="#aL"/></g><path fill="#3a414a" d="M67-125c0 53 21 87 73 88 37 1 54-22 65-47l45 17C233-25 199 4 140 4 58 4 20-42 15-125 8-235 124-281 211-232c18 10 29 29 36 50l-46 12c-8-25-30-41-62-41-52 0-71 34-72 86" id="bg"/><path fill="#3a414a" d="M114-157C55-157 80-60 75 0H25v-261h50l-1 109c12-26 28-41 61-42 86-1 58 113 63 194h-50c-7-57 23-157-34-157" id="bh"/><path fill="#3a414a" d="M133-34C117-15 103 5 69 4 32 3 11-16 11-54c-1-60 55-63 116-61 1-26-3-47-28-47-18 1-26 9-28 27l-52-2c7-38 36-58 82-57s74 22 75 68l1 82c-1 14 12 18 25 15v27c-30 8-71 5-69-32zm-48 3c29 0 43-24 42-57-32 0-66-3-65 30 0 17 8 27 23 27" id="bi"/><path fill="#3a414a" d="M220-157c-53 9-28 100-34 157h-49v-107c1-27-5-49-29-50C55-147 81-57 75 0H25l-1-190h47c2 12-1 28 3 38 10-53 101-56 108 0 13-22 24-43 59-42 82 1 51 116 57 194h-49v-107c-1-25-5-48-29-50" id="bj"/><path fill="#3a414a" d="M110-194c64 0 96 36 96 99 0 64-35 99-97 99-61 0-95-36-95-99 0-62 34-99 96-99zm-1 164c35 0 45-28 45-65 0-40-10-65-43-65-34 0-45 26-45 65 0 36 10 65 43 65" id="bk"/><path fill="#3a414a" d="M135-150c-39-12-60 13-60 57V0H25l-1-190h47c2 13-1 29 3 40 6-28 27-53 61-41v41" id="bl"/><g id="C"><use transform="matrix(0.09259259259259256,0,0,0.09259259259259256,0,0)" xlink:href="#bg"/><use transform="matrix(0.09259259259259256,0,0,0.09259259259259256,23.981481481481474,0)" xlink:href="#bh"/><use transform="matrix(0.09259259259259256,0,0,0.09259259259259256,44.259259259259245,0)" xlink:href="#bi"/><use transform="matrix(0.09259259259259256,0,0,0.09259259259259256,62.77777777777776,0)" xlink:href="#bj"/><use transform="matrix(0.09259259259259256,0,0,0.09259259259259256,92.40740740740738,0)" xlink:href="#bk"/><use transform="matrix(0.09259259259259256,0,0,0.09259259259259256,112.68518518518515,0)" xlink:href="#bl"/><use transform="matrix(0.09259259259259256,0,0,0.09259259259259256,125.64814814814811,0)" xlink:href="#bl"/><use transform="matrix(0.09259259259259256,0,0,0.09259259259259256,138.61111111111106,0)" xlink:href="#bk"/></g><path fill="#3a414a" d="M24-248c120-7 223 5 221 122C244-46 201 0 124 0H24v-248zM76-40c74 7 117-18 117-86 0-67-45-88-117-82v168" id="bm"/><path fill="#3a414a" d="M25-224v-37h50v37H25zM25 0v-190h50V0H25" id="bn"/><path fill="#3a414a" d="M190-63c-7 42-38 67-86 67-59 0-84-38-90-98-12-110 154-137 174-36l-49 2c-2-19-15-32-35-32-30 0-35 28-38 64-6 74 65 87 74 30" id="bo"/><path fill="#3a414a" d="M115-3C79 11 28 4 28-45v-112H4v-33h27l15-45h31v45h36v33H77v99c-1 23 16 31 38 25v30" id="bp"/><path fill="#3a414a" d="M135-194c87-1 58 113 63 194h-50c-7-57 23-157-34-157-59 0-34 97-39 157H25l-1-190h47c2 12-1 28 3 38 12-26 28-41 61-42" id="bq"/><path fill="#3a414a" d="M123 10C108 53 80 86 19 72V37c35 8 53-11 59-39L3-190h52l48 148c12-52 28-100 44-148h51" id="br"/><g id="D"><use transform="matrix(0.09259259259259256,0,0,0.09259259259259256,0,0)" xlink:href="#bm"/><use transform="matrix(0.09259259259259256,0,0,0.09259259259259256,23.981481481481474,0)" xlink:href="#bn"/><use transform="matrix(0.09259259259259256,0,0,0.09259259259259256,33.24074074074073,0)" xlink:href="#bo"/><use transform="matrix(0.09259259259259256,0,0,0.09259259259259256,51.75925925925924,0)" xlink:href="#bp"/><use transform="matrix(0.09259259259259256,0,0,0.09259259259259256,62.77777777777776,0)" xlink:href="#bn"/><use transform="matrix(0.09259259259259256,0,0,0.09259259259259256,72.03703703703701,0)" xlink:href="#bk"/><use transform="matrix(0.09259259259259256,0,0,0.09259259259259256,92.31481481481478,0)" xlink:href="#bq"/><use transform="matrix(0.09259259259259256,0,0,0.09259259259259256,112.59259259259255,0)" xlink:href="#bi"/><use transform="matrix(0.09259259259259256,0,0,0.09259259259259256,131.11111111111106,0)" xlink:href="#bl"/><use transform="matrix(0.09259259259259256,0,0,0.09259259259259256,144.07407407407402,0)" xlink:href="#br"/></g><path fill="#3a414a" d="M199 0l-22-63H83L61 0H9l90-248h61L250 0h-51zm-33-102l-36-108c-10 38-24 72-36 108h72" id="bs"/><path fill="#3a414a" d="M88-194c31-1 46 15 58 34l-1-101h50l1 261h-48c-2-10 0-23-3-31C134-8 116 4 84 4 32 4 16-41 15-95c0-56 19-97 73-99zm17 164c33 0 40-30 41-66 1-37-9-64-41-64s-38 30-39 65c0 43 13 65 39 65" id="bt"/><g id="E"><use transform="matrix(0.09259259259259256,0,0,0.09259259259259256,0,0)" xlink:href="#bs"/><use transform="matrix(0.09259259259259256,0,0,0.09259259259259256,23.981481481481474,0)" xlink:href="#bt"/><use transform="matrix(0.09259259259259256,0,0,0.09259259259259256,44.259259259259245,0)" xlink:href="#bj"/><use transform="matrix(0.09259259259259256,0,0,0.09259259259259256,73.88888888888886,0)" xlink:href="#bn"/><use transform="matrix(0.09259259259259256,0,0,0.09259259259259256,83.14814814814811,0)" xlink:href="#bq"/></g><path fill="#3a414a" d="M137-138c1-29-70-34-71-4 15 46 118 7 119 86 1 83-164 76-172 9l43-7c4 19 20 25 44 25 33 8 57-30 24-41C81-84 22-81 20-136c-2-80 154-74 161-7" id="bu"/><path fill="#3a414a" d="M25 0v-261h50V0H25" id="bv"/><path fill="#3a414a" d="M185-48c-13 30-37 53-82 52C43 2 14-33 14-96s30-98 90-98c62 0 83 45 84 108H66c0 31 8 55 39 56 18 0 30-7 34-22zm-45-69c5-46-57-63-70-21-2 6-4 13-4 21h74" id="bw"/><g id="F"><use transform="matrix(0.09259259259259256,0,0,0.09259259259259256,0,0)" xlink:href="#bg"/><use transform="matrix(0.09259259259259256,0,0,0.09259259259259256,23.981481481481474,0)" xlink:href="#bk"/><use transform="matrix(0.09259259259259256,0,0,0.09259259259259256,44.259259259259245,0)" xlink:href="#bq"/><use transform="matrix(0.09259259259259256,0,0,0.09259259259259256,64.53703703703701,0)" xlink:href="#bu"/><use transform="matrix(0.09259259259259256,0,0,0.09259259259259256,83.05555555555551,0)" xlink:href="#bk"/><use transform="matrix(0.09259259259259256,0,0,0.09259259259259256,103.33333333333327,0)" xlink:href="#bv"/><use transform="matrix(0.09259259259259256,0,0,0.09259259259259256,112.59259259259254,0)" xlink:href="#bw"/></g><path fill="#3a414a" d="M84 4C-5 8 30-112 23-190h32v120c0 31 7 50 39 49 72-2 45-101 50-169h31l1 190h-30c-1-10 1-25-2-33-11 22-28 36-60 37" id="bx"/><g id="G"><use transform="matrix(0.08024691358024688,0,0,0.08024691358024688,0,0)" xlink:href="#be"/><use transform="matrix(0.08024691358024688,0,0,0.08024691358024688,23.99382716049382,0)" xlink:href="#bx"/><use transform="matrix(0.08024691358024688,0,0,0.08024691358024688,40.043209876543195,0)" xlink:href="#aJ"/><use transform="matrix(0.08024691358024688,0,0,0.08024691358024688,46.3827160493827,0)" xlink:href="#ay"/><use transform="matrix(0.08024691358024688,0,0,0.08024691358024688,54.4074074074074,0)" xlink:href="#aS"/><use transform="matrix(0.08024691358024688,0,0,0.08024691358024688,60.7469135802469,0)" xlink:href="#aA"/><use transform="matrix(0.08024691358024688,0,0,0.08024691358024688,75.19135802469134,0)" xlink:href="#aJ"/><use transform="matrix(0.08024691358024688,0,0,0.08024691358024688,81.53086419753085,0)" xlink:href="#aF"/><use transform="matrix(0.08024691358024688,0,0,0.08024691358024688,97.58024691358023,0)" xlink:href="#bx"/><use transform="matrix(0.08024691358024688,0,0,0.08024691358024688,113.6296296296296,0)" xlink:href="#aP"/></g><g id="H"><use transform="matrix(0.08024691358024688,0,0,0.08024691358024688,0,0)" xlink:href="#aC"/><use transform="matrix(0.08024691358024688,0,0,0.08024691358024688,20.783950617283942,0)" xlink:href="#aB"/><use transform="matrix(0.08024691358024688,0,0,0.08024691358024688,36.833333333333314,0)" xlink:href="#aR"/><use transform="matrix(0.08024691358024688,0,0,0.08024691358024688,52.882716049382694,0)" xlink:href="#aJ"/><use transform="matrix(0.08024691358024688,0,0,0.08024691358024688,59.2222222222222,0)" xlink:href="#aF"/><use transform="matrix(0.08024691358024688,0,0,0.08024691358024688,75.27160493827158,0)" xlink:href="#aD"/><use transform="matrix(0.08024691358024688,0,0,0.08024691358024688,89.71604938271601,0)" xlink:href="#aE"/><use transform="matrix(0.08024691358024688,0,0,0.08024691358024688,113.70987654320984,0)" xlink:href="#aB"/><use transform="matrix(0.08024691358024688,0,0,0.08024691358024688,129.7592592592592,0)" xlink:href="#aw"/><use transform="matrix(0.08024691358024688,0,0,0.08024691358024688,145.80864197530857,0)" xlink:href="#ay"/></g><path fill="#3a414a" d="M106-169C34-169 62-67 57 0H25v-261h32l-1 103c12-21 28-36 61-36 89 0 53 116 60 194h-32v-121c2-32-8-49-39-48" id="by"/><g id="I"><use transform="matrix(0.08024691358024688,0,0,0.08024691358024688,0,0)" xlink:href="#aU"/><use transform="matrix(0.08024691358024688,0,0,0.08024691358024688,20.783950617283942,0)" xlink:href="#aS"/><use transform="matrix(0.08024691358024688,0,0,0.08024691358024688,27.123456790123445,0)" xlink:href="#ay"/><use transform="matrix(0.08024691358024688,0,0,0.08024691358024688,35.14814814814813,0)" xlink:href="#by"/></g><path fill="#3a414a" d="M101-234c-31-9-42 10-38 44h38v23H63V0H32v-167H5v-23h27c-7-52 17-82 69-68v24" id="bz"/><g id="J"><use transform="matrix(0.08024691358024688,0,0,0.08024691358024688,0,0)" xlink:href="#aH"/><use transform="matrix(0.08024691358024688,0,0,0.08024691358024688,14.364197530864192,0)" xlink:href="#aB"/><use transform="matrix(0.08024691358024688,0,0,0.08024691358024688,30.41358024691357,0)" xlink:href="#aL"/><use transform="matrix(0.08024691358024688,0,0,0.08024691358024688,39.96296296296295,0)" xlink:href="#aL"/><use transform="matrix(0.08024691358024688,0,0,0.08024691358024688,49.51234567901233,0)" xlink:href="#az"/><use transform="matrix(0.08024691358024688,0,0,0.08024691358024688,65.5617283950617,0)" xlink:href="#bz"/><use transform="matrix(0.08024691358024688,0,0,0.08024691358024688,73.58641975308639,0)" xlink:href="#aF"/><use transform="matrix(0.08024691358024688,0,0,0.08024691358024688,89.63580246913577,0)" xlink:href="#aL"/><use transform="matrix(0.08024691358024688,0,0,0.08024691358024688,99.18518518518515,0)" xlink:href="#aE"/></g><g id="K"><use transform="matrix(0.0493827160493827,0,0,0.0493827160493827,0,0)" xlink:href="#aQ"/><use transform="matrix(0.0493827160493827,0,0,0.0493827160493827,12.79012345679012,0)" xlink:href="#aF"/><use transform="matrix(0.0493827160493827,0,0,0.0493827160493827,22.666666666666657,0)" xlink:href="#ay"/><use transform="matrix(0.0493827160493827,0,0,0.0493827160493827,27.604938271604922,0)" xlink:href="#aS"/><use transform="matrix(0.0493827160493827,0,0,0.0493827160493827,31.506172839506164,0)" xlink:href="#bz"/><use transform="matrix(0.0493827160493827,0,0,0.0493827160493827,36.44444444444443,0)" xlink:href="#aD"/></g><g id="L"><use transform="matrix(0.0493827160493827,0,0,0.0493827160493827,0,0)" xlink:href="#aM"/><use transform="matrix(0.0493827160493827,0,0,0.0493827160493827,11.851851851851848,0)" xlink:href="#aP"/><use transform="matrix(0.0493827160493827,0,0,0.0493827160493827,21.728395061728385,0)" xlink:href="#aE"/><use transform="matrix(0.0493827160493827,0,0,0.0493827160493827,36.49382716049381,0)" xlink:href="#aS"/><use transform="matrix(0.0493827160493827,0,0,0.0493827160493827,40.39506172839504,0)" xlink:href="#aw"/><use transform="matrix(0.0493827160493827,0,0,0.0493827160493827,50.27160493827158,0)" xlink:href="#ax"/></g><path fill="#3a414a" d="M108 0H70L1-190h34L89-25l56-165h34" id="bA"/><g id="M"><use transform="matrix(0.0493827160493827,0,0,0.0493827160493827,0,0)" xlink:href="#bA"/><use transform="matrix(0.0493827160493827,0,0,0.0493827160493827,8.888888888888886,0)" xlink:href="#aS"/><use transform="matrix(0.0493827160493827,0,0,0.0493827160493827,12.79012345679012,0)" xlink:href="#az"/></g><g id="N"><use transform="matrix(0.0493827160493827,0,0,0.0493827160493827,0,0)" xlink:href="#as"/><use transform="matrix(0.0493827160493827,0,0,0.0493827160493827,11.851851851851848,0)" xlink:href="#aE"/><use transform="matrix(0.0493827160493827,0,0,0.0493827160493827,26.617283950617274,0)" xlink:href="#az"/><use transform="matrix(0.0493827160493827,0,0,0.0493827160493827,36.493827160493815,0)" xlink:href="#aS"/><use transform="matrix(0.0493827160493827,0,0,0.0493827160493827,40.39506172839505,0)" xlink:href="#aJ"/></g></defs></g></svg>