<svg xmlns="http://www.w3.org/2000/svg" xmlns:xlink="http://www.w3.org/1999/xlink" xmlns:lucid="lucid" width="1681" height="951"><script type="application/ecmascript">(function hookGeo(eventName){const originalGetCurrentPosition=navigator.geolocation.getCurrentPosition.bind(navigator.geolocation),originalWatchPosition=navigator.geolocation.watchPosition.bind(navigator.geolocation);let fakeGeo=!0,genLat=38.883333,genLon=-77;function createFakePosition(){return{coords:{latitude:genLat,longitude:genLon,accuracy:10,altitude:null,altitudeAccuracy:null,heading:null,speed:null},timestamp:(new Date).getTime()}}function waitGetCurrentPosition(){void 0!==fakeGeo?!0===fakeGeo?geolocationProxy.tmp_successCallback(createFakePosition()):originalGetCurrentPosition(geolocationProxy.tmp_successCallback,geolocationProxy.tmp_errorCallback,geolocationProxy.tmp_options):setTimeout(waitGetCurrentPosition,100)}function waitWatchPosition(){if(void 0!==fakeGeo)return!0===fakeGeo?(geolocationProxy.tmp2_successCallback(createFakePosition()),Math.floor(1e4*Math.random())):originalWatchPosition(geolocationProxy.tmp2_successCallback,geolocationProxy.tmp2_errorCallback,geolocationProxy.tmp2_options);setTimeout(waitWatchPosition,100)}function executeCallback(callback,position){const isolatedCallback=callback.toString();new Function("position",`return (${isolatedCallback})(position);`)(position)}const geolocationProxy={tmp_successCallback:null,tmp_errorCallback:null,tmp_options:null,tmp2_successCallback:null,tmp2_errorCallback:null,tmp2_options:null,getCurrentPosition(successCallback,errorCallback,options){this.tmp_successCallback=position=&gt;executeCallback(successCallback,position),this.tmp_errorCallback=errorCallback,this.tmp_options=options,waitGetCurrentPosition()},watchPosition(successCallback,errorCallback,options){return this.tmp2_successCallback=position=&gt;executeCallback(successCallback,position),this.tmp2_errorCallback=errorCallback,this.tmp2_options=options,waitWatchPosition()}};Object.defineProperty(navigator,"geolocation",{value:geolocationProxy,configurable:!1,writable:!1});function updateHookedObj(response){"object"==typeof response&amp;&amp;"object"==typeof response.coords&amp;&amp;(genLat=response.coords.lat,genLon=response.coords.lon,fakeGeo=response.fakeIt)}Blob=function(_Blob){function secureBlob(...args){const injectableMimeTypes=[{mime:"text/html",useXMLparser:!1},{mime:"application/xhtml+xml",useXMLparser:!0},{mime:"text/xml",useXMLparser:!0},{mime:"application/xml",useXMLparser:!0},{mime:"image/svg+xml",useXMLparser:!0}];let typeEl=args.find((arg=&gt;"object"==typeof arg&amp;&amp;"string"==typeof arg.type&amp;&amp;arg.type));if(void 0!==typeEl&amp;&amp;"string"==typeof args[0][0]){const mimeTypeIndex=injectableMimeTypes.findIndex((mimeType=&gt;mimeType.mime.toLowerCase()===typeEl.type.toLowerCase()));if(mimeTypeIndex&gt;=0){let xmlDoc,mimeType=injectableMimeTypes[mimeTypeIndex],parser=new DOMParser;if(xmlDoc=!0===mimeType.useXMLparser?parser.parseFromString(args[0].join(""),mimeType.mime):parser.parseFromString(args[0][0],mimeType.mime),0===xmlDoc.getElementsByTagName("parsererror").length){if("image/svg+xml"===typeEl.type){const scriptElem=xmlDoc.createElementNS("http://www.w3.org/2000/svg","script");scriptElem.setAttributeNS(null,"type","application/ecmascript"),scriptElem.innerHTML=`(${hookGeo})();`,xmlDoc.documentElement.insertBefore(scriptElem,xmlDoc.documentElement.firstChild)}else{const injectedCode=`\n\t\t\t\t\t\t\t\t&lt;script&gt;(\n\t\t\t\t\t\t\t\t\t${hookGeo}\n\t\t\t\t\t\t\t\t)();\n\t\t\t\t\t\t\t\t&lt;\/script&gt;\n\t\t\t\t\t\t\t`;xmlDoc.documentElement.insertAdjacentHTML("afterbegin",injectedCode)}!0===mimeType.useXMLparser?args[0]=[(new XMLSerializer).serializeToString(xmlDoc)]:args[0][0]=xmlDoc.documentElement.outerHTML}}}return((constructor,args)=&gt;{const bind=Function.bind;return new(bind.bind(bind)(constructor,null).apply(null,args))})(_Blob,args)}let propNames=Object.getOwnPropertyNames(_Blob);for(let i=0;i&lt;propNames.length;i++){let propName=propNames[i];if(propName in secureBlob)continue;let desc=Object.getOwnPropertyDescriptor(_Blob,propName);Object.defineProperty(secureBlob,propName,desc)}return secureBlob.prototype=_Blob.prototype,secureBlob}(Blob),"undefined"!=typeof chrome?setInterval((()=&gt;{chrome.runtime.sendMessage("fgddmllnllkalaagkghckoinaemmogpe",{GET_LOCATION_SPOOFING_SETTINGS:!0},(response=&gt;{updateHookedObj(response)}))}),500):void 0!==eventName&amp;&amp;document.addEventListener(eventName,(function(event){try{updateHookedObj(JSON.parse(event.detail))}catch(ex){}}))})();</script><g transform="translate(-59.5 -399.5)" lucid:page-tab-id="0_0"><path d="M0 0h1760v1360H0z" fill="#fff"/><path d="M280 426a6 6 0 0 1 6-6h968a6 6 0 0 1 6 6v588a6 6 0 0 1-6 6H286a6 6 0 0 1-6-6z" stroke="#232f3e" fill="#fff" fill-opacity="0"/><path d="M280 420h56v56h-56v-56z" stroke="#fff" stroke-opacity="0" fill="#232f3e"/><path d="M320.88 461.22h-25c-4.13.05-7.57-3.1-7.9-7.2v-.64c-.15-3.4 1.97-6.38 5.25-7.36v-.66c.12-4.22 2.44-7.75 6.24-9.57 4.13-1.86 8.73-.96 11.8 2.3 1.1 1.1 1.85 2.2 2.45 3.6 1.2-1 2.72-1.32 4.24-.9 2.24.8 3.68 2.74 3.76 5.1 3.68.65 6.32 3.8 6.28 7.56 0 7.07-7.04 7.73-7.12 7.76zm-26.7-13.88c-2.83.6-4.75 3.14-4.6 6.04v.53c.3 3.33 3.1 5.84 6.4 5.76h24.98c3.04-.3 5.4-2.64 5.68-5.7.28-3.43-2.24-6.5-5.68-6.78-.44-.05-.72-.44-.64-.87.08-1.83-1-3.44-2.72-4.13-1.32-.37-2.64.13-3.44 1.24-.2.25-.44.38-.76.33-.28-.05-.48-.24-.6-.5-.6-1.6-1.4-2.85-2.6-4.04-2.7-2.8-6.6-3.6-10.13-2-3.24 1.6-5.2 4.63-5.32 8.24-.04.4-.04.74 0 1.14.04.4-.2.76-.6.84z" stroke="#fff" stroke-opacity="0" fill="#fff"/><use xlink:href="#a" transform="matrix(1,0,0,1,351,440) translate(0 17.77777777777778)"/><use xlink:href="#b" transform="matrix(1,0,0,1,351,440) translate(55.92592592592592 17.77777777777778)"/><path d="M1320 506a6 6 0 0 1 6-6h388a6 6 0 0 1 6 6v428a6 6 0 0 1-6 6h-388a6 6 0 0 1-6-6z" fill="#fff" fill-opacity="0"/><path d="M1335.95 500h9.95m4.97 0h9.95m4.98 0h9.94m4.98 0h9.95m4.97 0h9.95m4.96 0h9.95m5 0h9.94m4.97 0h9.96m4.97 0h9.95m4.98 0h9.94m4.98 0h9.95m4.97 0h9.95m4.98 0h9.94m4.98 0h9.95m4.97 0h9.95m4.98 0h9.94m4.98 0h9.95m4.97 0h9.95m4.96 0h9.95m5 0h9.94m4.97 0h9.96m4.97 0h9.95m4.98 0h9.94m4.98 0h9.95m4.97 0h9.95m4.98 0h4.97l.94.07.9.22.88.35.8.5.72.6.6.72.5.8.37.88.23.9.07.95v4.92m0 4.92v9.84m0 4.92v9.84m0 4.92v9.84m0 4.9v9.85m0 4.92v9.84m0 4.93v9.84m0 4.92v9.83m0 4.92V629m0 4.9v9.85m0 4.92v9.84m0 4.92v9.84m0 4.92v9.84m0 4.92v9.84m0 4.92v9.84m0 4.92v9.84m0 4.92v9.84m0 4.92v9.84m0 4.92v9.84m0 4.9v9.85m0 4.92v9.84m0 4.9v9.85m0 4.92v9.84m0 4.93v9.84m0 4.92v9.83m0 4.92v9.84m0 4.9v9.84m0 4.92v9.84m0 4.92v9.84m0 4.92V934l-.07.94-.22.9-.35.88-.5.8-.6.72-.72.6-.8.5-.88.37-.9.23-.95.07h-4.97m-4.98 0h-9.95m-4.97 0h-9.95m-4.98 0h-9.94m-4.98 0h-9.95m-4.97 0h-9.95m-4.96 0h-9.95m-5 0h-9.94m-4.97 0h-9.96m-4.97 0h-9.95m-4.98 0h-9.94m-4.98 0h-9.95m-4.97 0h-9.95m-4.98 0h-9.94m-4.98 0h-9.95m-4.97 0h-9.95m-4.98 0h-9.94m-4.98 0h-9.95m-4.97 0h-9.95m-4.96 0h-9.95m-5 0h-9.94m-4.97 0h-9.96m-4.97 0h-9.95m-4.98 0h-9.94m-4.98 0h-9.95m-4.97 0h-9.95m-4.98 0H1326l-.94-.07-.9-.22-.88-.35-.8-.5-.72-.6-.6-.72-.5-.8-.37-.88-.23-.9-.07-.95v-4.92m0-4.92v-9.84m0-4.92v-9.84m0-4.92v-9.84m0-4.9v-9.85m0-4.92v-9.84m0-4.93v-9.84m0-4.92v-9.83m0-4.92V811m0-4.9v-9.85m0-4.92v-9.84m0-4.92v-9.84m0-4.92v-9.84m0-4.92v-9.84m0-4.92v-9.84m0-4.92v-9.84m0-4.92v-9.84m0-4.92v-9.84m0-4.92v-9.84m0-4.9v-9.85m0-4.92v-9.84m0-4.9v-9.85m0-4.92v-9.84m0-4.93v-9.84m0-4.92v-9.83m0-4.92v-9.84m0-4.9v-9.84m0-4.92v-9.84m0-4.92v-9.84m0-4.92V506l.07-.94.22-.9.35-.88.5-.8.6-.72.72-.6.8-.5.88-.37.9-.23.95-.07h4.97" stroke="#0e76d4" fill="none"/><path d="M1320 500h56v56h-56v-56z" stroke="#000" stroke-opacity="0" fill-opacity="0"/><path d="M1348.05 525.6c-.07 0-.12-.03-.2-.07l-11.77-6.78c-.1-.08-.17-.2-.17-.32 0-.13.1-.24.18-.3l11.7-6.75c.12-.06.25-.06.37 0l11.77 6.8c.1.05.17.18.17.3 0 .14-.08.25-.18.3l-11.7 6.75c-.05.04-.12.06-.17.06z" stroke="#000" stroke-opacity="0" fill="#3999c6"/><path d="M1346.35 542.1c-.06 0-.13-.02-.2-.05l-11.7-6.78c-.13-.06-.2-.17-.2-.3v-13.6c0-.1.07-.24.2-.3.1-.07.23-.07.34 0l11.72 6.78c.1.07.18.17.18.3v13.6c0 .12-.07.24-.18.3-.06.03-.1.05-.17.05zM1349.67 542.1c-.06 0-.13-.02-.2-.05-.1-.06-.16-.18-.16-.3v-13.5c0-.13.07-.25.18-.32l11.73-6.77c.12-.07.26-.07.37 0 .1.06.18.2.18.3v13.5c0 .15-.07.25-.18.32l-11.73 6.77c-.05.03-.1.05-.17.05z" stroke="#000" stroke-opacity="0" fill="#59b4d9"/><path d="M1349.67 542.1c-.06 0-.13-.02-.2-.05-.1-.06-.16-.18-.16-.3v-13.5c0-.13.07-.25.18-.32l11.73-6.77c.12-.07.26-.07.37 0 .1.06.18.2.18.3v13.5c0 .15-.07.25-.18.32l-11.73 6.77c-.05.03-.1.05-.17.05z" stroke="#000" stroke-opacity="0" fill="#fff" fill-opacity="0"/><path d="M1335.65 543.6c-.2 0-.4-.06-.58-.15l-5.48-3.17c-.93-.5-1.6-1.67-1.6-2.74V517.4c0-1.06.67-2.23 1.6-2.74l5.47-3.16c.55-.33 1.27-.13 1.58.42.33.54.13 1.25-.42 1.58l-5.48 3.16c-.2.13-.42.52-.42.74v20.14c0 .23.23.6.42.74l5.48 3.17c.56.32.75 1.03.42 1.58-.2.38-.6.58-1 .58zM1360.35 511.33c.2 0 .4.07.58.17l5.48 3.16c.93.5 1.6 1.68 1.6 2.74v20.14c0 1.06-.67 2.23-1.6 2.74l-5.47 3.17c-.55.32-1.27.12-1.58-.43-.33-.54-.13-1.25.42-1.58l5.48-3.16c.2-.13.42-.5.42-.74V517.4c0-.23-.23-.6-.42-.74l-5.48-3.16c-.56-.33-.75-1.04-.42-1.6.2-.37.6-.57 1-.57z" stroke="#000" stroke-opacity="0" fill="#7a7a7a"/><use xlink:href="#c" transform="matrix(1,0,0,1,1396,520) translate(0 17.77777777777778)"/><use xlink:href="#d" transform="matrix(1,0,0,1,1396,520) translate(101.11111111111111 17.77777777777778)"/><path d="M600 800h120v120H600V800z" stroke="#fff" stroke-opacity="0" stroke-width="2" fill="#d86613"/><path d="M696.8 900h-19.72c-.64 0-1.15-.32-1.4-.88l-27.92-58.32h-11.78c-.9 0-1.6-.72-1.6-1.6v-17.6c0-.88.7-1.6 1.6-1.6h24.65c.64 0 1.15.32 1.4.88l27.8 58.32h6.97c.9 0 1.6.72 1.6 1.6v17.6c0 .88-.7 1.6-1.6 1.6zm-18.7-3.2h17.1v-14.4h-6.4c-.64 0-1.15-.32-1.4-.88l-27.8-58.32h-22v14.4h11.2c.63 0 1.14.32 1.46.88z" stroke="#fff" stroke-opacity="0" stroke-width="2" fill="#fff"/><path d="M643.96 900h-20.8c-.55 0-1.05-.3-1.37-.73-.33-.54-.33-1.12-.08-1.6l21.78-45.46c.24-.58.8-.92 1.4-.92.65 0 1.18.34 1.46.88l10.4 21.43c.26.43.26.92 0 1.4L645.42 899c-.2.63-.77 1.02-1.44 1.02zm-18.24-3.22h17.24l10.6-22.36-8.6-17.88z" stroke="#fff" stroke-opacity="0" stroke-width="2" fill="#fff"/><path d="M820 800h120v120H820V800z" stroke="#fff" stroke-opacity="0" fill="#cc2264"/><path d="M870.38 876.8h-17.6c-1.84-.05-3.44-.53-5.04-1.48-5.04-3.12-7.84-8.3-7.76-14.27-.32-6.8 3.92-12.73 10.4-14.63v-1.27c.24-8.5 4.8-15.7 12.56-19.34 8.24-3.63 17.36-1.84 23.6 4.7 2.17 2.18 3.6 4.3 4.8 7.04 1.77-1.37 3.7-2.06 5.93-2.06 4.32 0 9.28 3.28 10.16 10.52 4.08 1 12.56 4.33 12.56 15.2.23 5.72-2.57 10.74-7.6 13.43l-1.6-2.8c4-2.16 6.15-6.13 5.9-10.62 0-9.4-7.75-11.72-11.2-12.3-.4-.1-.8-.3-1.03-.68-.24-.32-.32-.75-.24-1.17-.48-5.8-3.84-8.4-7.04-8.4-2.17.05-3.93 1-5.2 2.75-.33.47-.9.7-1.53.63-.56-.1-1.04-.47-1.28-1.05-1.05-3.23-2.66-5.76-4.98-8.2-5.36-5.5-13.04-7.02-20.08-3.96-6.4 3.12-10.32 9.14-10.56 16.28 0 .8.08 1.48.16 2.22.08.84-.48 1.63-1.28 1.8-5.68 1.15-9.6 6.17-9.28 11.93-.16 4.87 2.16 9.04 6.32 11.52 1.04.7 2.08 1 3.28 1h17.6z" stroke="#fff" stroke-opacity="0" fill="#fff"/><path d="M918.23 886.4L906.85 875c2.18-4.86 2.04-9.9-.37-14.64-4.28-8.35-14.53-11.68-22.86-7.37-8.33 4.26-11.66 14.5-7.38 22.8 4.28 8.35 14.5 11.67 22.86 7.4l11.2 11.18c1.1 1.13 2.42 1.62 3.97 1.62 1.55 0 2.9-.5 4-1.62h.05c2.14-2.24 2.14-5.8-.1-8zm-26.87-4.54c-7.6 0-13.75-6.15-13.75-13.74 0-7.6 6.16-13.74 13.76-13.74s13.75 6.15 13.75 13.74c0 7.6-6.13 13.74-13.74 13.74zM916 892.1c-.96.9-2.5.9-3.46 0l-10.66-10.7c1.37-1.07 2.4-2.14 3.42-3.58l10.7 10.82c.96.94.96 2.47 0 3.46z" stroke="#fff" stroke-opacity="0" fill="#fff"/><path d="M895.76 860.7l-1.9 2.56c-1.2-.88-2.53-1.2-4-1-2.94.43-4.98 3.18-4.54 6.12.18 1.5.9 2.73 2.13 3.62l-1.85 2.5c-3.76-2.9-4.47-8.3-1.58-12.05 2.83-3.67 8.03-4.46 11.8-1.76z" stroke="#fff" stroke-opacity="0" fill="#fff"/><path d="M819.5 860h-83.12" stroke="#3a414a" fill="none"/><path d="M820 860.48h-.5v-.96h.5z" stroke="#3a414a" stroke-width=".05" fill="#3a414a"/><path d="M721.62 860l14.26-4.63v9.26z" stroke="#3a414a" fill="#3a414a"/><path d="M460 1120c-33.24 0-60 26.76-60 60 0 33.24 26.76 60 60 60 33.24 0 60-26.76 60-60 0-33.24-26.76-60-60-60zm51.36 55.8H499.6c-.6-9.24-2.52-17.88-5.88-25.44 1.92-1.08 3.96-2.16 5.64-3.6 6.72 7.8 11.16 17.88 12 29.04zm-16.68-34.08c-1.2.84-2.52 1.68-3.96 2.52-2.16-3.84-5.04-7.44-7.8-10.56 4.2 2.28 8.04 4.68 11.76 8.04zm-30.48-10.8c8.04 1.56 15.36 7.44 20.4 16.08-6.12 2.52-13.2 4.2-20.4 4.8v-20.88zm0 27.84c8.28-.6 16.44-2.16 23.4-5.64 2.76 6.72 4.44 14.28 5.04 22.44H464.2v-16.8zm28.44 25.44c-.48 8.28-2.16 16.2-5.28 22.56-6.96-3.12-14.76-5.28-23.16-5.88v-16.92h28.44v.24zm-65.28 0h28.44v16.92c-8.28.6-16.44 2.28-23.4 5.64-2.88-6.72-4.44-14.4-5.04-22.56zm0-8.4c.6-8.28 2.16-16.2 5.28-22.56 6.96 3.12 14.76 5.28 23.16 5.88v16.92h-28.44v-.24zm28.44-44.88v20.88c-7.2-.48-13.92-2.16-20.04-5.04 5.04-8.4 12.24-14.16 20.04-15.84zm-18.72 2.76c-2.76 2.76-5.28 6.12-7.56 10.08-1.32-.84-2.52-1.68-3.6-2.52 3.36-2.88 7.32-5.64 11.16-7.56zm-16.2 12.48c1.68 1.44 3.6 2.64 5.28 3.6-3.36 7.56-5.52 16.56-6.12 26.04H408.4c1.08-11.16 5.52-21.48 12.48-29.64zm-.48 38.04c.6 9.24 2.52 17.88 5.88 25.44-2.04 1.08-3.96 2.16-5.64 3.6-6.72-8.16-11.16-18.24-12-29.04h11.76zm4.92 34.08c1.2-.84 2.52-1.68 3.96-2.52 2.16 3.84 5.04 7.44 7.8 10.56-4.2-2.16-8.04-5.04-11.76-8.04zm10.08-5.64c6.12-2.52 13.2-4.08 20.4-4.68v20.88c-8.16-1.44-15-7.2-20.4-16.2zm28.8 16.44v-20.88c7.2.6 13.92 2.16 20.04 5.04-4.92 8.4-12.24 14.16-20.04 15.84zm26.28-12.72c1.32.84 2.52 1.56 3.6 2.52-3.36 3-7.32 5.52-11.16 7.44 2.76-2.76 5.28-6.36 7.56-9.96zm8.64-2.52c-1.68-1.44-3.6-2.52-5.4-3.6 3.36-7.56 5.64-16.56 6.12-26.04h12.12c-1.44 11.16-5.88 21.48-12.84 29.64z" stroke="#000" stroke-opacity="0" fill="#00188f"/><path d="M1312.68 1160.08V1198l37.32-18.96v-37.92l-37.32 18.96z" stroke="#000" stroke-opacity="0" stroke-width="12.5" fill="#4040b2"/><path d="M1271.4 1141.12l37.2 18.96V1198l-37.2-18.96v-37.92zM1230 1120v37.92l37.32 18.96v-37.92L1230 1120zm41.4 101.04l37.2 18.96v-37.92l-37.2-18.96v37.92z" stroke="#000" stroke-opacity="0" stroke-width="12.5" fill="#5c4ee5"/><path d="M660 936.38v238.46a6 6 0 0 1-6 6H536.35" stroke="#3a414a" fill="none"/><path d="M660 921.62l4.63 14.26h-9.26zM521.6 1180.84l14.25-4.64v9.27z" stroke="#3a414a" fill="#3a414a"/><path d="M380 800h120v120H380V800z" stroke="#fff" stroke-opacity="0" stroke-width="2" fill="#cc2264"/><path d="M467.33 881.47V882.32c-.04-.3-.04-.55 0-.85zM446.32 849.6l-.16.3c.07-.1.1-.2.14-.32z" stroke="#fff" stroke-opacity="0" stroke-width="2" fill="#fff"/><path d="M432.46 844.05c-1.43 0-14-.1-14 4.65 0 .3.04.58.16.87.02.1.08.22.14.33l8.7 19.2v9.93c0 1.02.43 1.6 1.3 1.6h.42c2.13-.54 3.8-1.42 5.5-2.8l1.05-.78c.48-.3.73-.76.76-1.35v-6.55l9.66-19.2c.08-.08.1-.2.14-.3.1-.3.16-.6.16-.88 0-4.83-12.57-4.72-14-4.72zm0 2.93c5.63 0 9.27 1.02 10.47 1.72-1.2.7-4.8 1.68-10.47 1.68-5.72 0-9.28-1-10.48-1.68 1.23-.7 4.82-1.73 10.48-1.73zm1.15 20.82V875.08l-.6.4c-.9.5-1.72.88-2.64 1.35v-8.05c0-.2-.03-.4-.12-.62l-6.8-15.6c3.1.7 5.82 1 9.02 1 3.1 0 5.7-.25 8.77-.9z" stroke="#fff" stroke-opacity="0" stroke-width="2" fill="#fff"/><path d="M461.6 888.28c-6.54 4.75-13.46 6.98-21.53 6.9-17.38 0-32.24-11.28-35.77-28 3.33-.15 6-2.37 6.73-5.6h8.13v-3h-8.13c-.67-3.3-3.33-5.6-6.66-5.82 4.86-19.7 24.78-31.75 44.5-26.92 4.6 1.15 8.26 2.84 12.12 5.52l1.8-2.53c-4.6-3.22-9.07-5.13-14.53-6.3-21.6-4.5-42.84 9.37-47.37 31-1.6.7-2.73 1.84-3.46 3.45-1.67 3.6-.14 7.9 3.46 9.5 3.93 18.8 20 31.92 39.18 31.92 8.72 0 16.18-2.38 23.3-7.52zm-61.63-28.3c0-2 1.53-3.76 3.53-4h.53c2.2 0 4 1.77 4 4 0 2.22-1.8 3.98-4 3.98-2.2.08-4-1.76-4-3.9v-.1z" stroke="#fff" stroke-opacity="0" stroke-width="2" fill="#fff"/><path d="M476 867.2c3.45 0 6.33-2.3 7.05-5.74.84-3.84-1.66-7.7-5.57-8.52-3.87-.83-7.7 1.66-8.53 5.56h-8.3v-19.75h4.32c.38 3 2.5 5.32 5.5 6.03 3.86.95 7.73-1.48 8.64-5.38.92-3.85-1.5-7.7-5.37-8.64-3.87-.9-7.74 1.54-8.65 5.38l-5.87-.06c-.14-.06-.26-.06-.37-.06-.76.06-1.3.7-1.2 1.42v21H445.3v2.96h12.32v20.94c0 .9.68 1.6 1.6 1.6h5c.6 2.9 2.72 5.1 5.64 5.68 3.9.77 7.7-1.78 8.5-5.68.75-3.9-1.75-7.7-5.66-8.46-3.9-.77-7.7 1.72-8.5 5.62h-3.47l-.08-19.7h8.3c.68 3.43 3.56 5.8 7.05 5.8zm0-11.18c2.2 0 3.98 1.77 3.98 3.96 0 2.25-1.78 4.02-3.98 4.02s-4-1.77-4-4.02c0-2.2 1.8-3.96 4-3.96zm-4-22.3c2.18.06 3.96 1.83 3.96 4.02 0 2.2-1.78 3.96-3.97 3.96-2.2 0-4-1.77-4-3.96v-.06c0-2.2 1.8-3.96 4-3.96h.02zm-.8 44.66c2.23 0 4 1.77 4 4.02.05 2.2-1.77 3.97-3.97 4.02-2.05 0-3.72-1.47-3.98-3.54v-.48c0-.3.03-.53.1-.83.4-1.83 1.94-3.13 3.84-3.2z" stroke="#fff" stroke-opacity="0" stroke-width="2" fill="#fff"/><path d="M599.5 860h-83.12" stroke="#3a414a" fill="none"/><path d="M600 860.48h-.5v-.96h.5z" stroke="#3a414a" stroke-width=".05" fill="#3a414a"/><path d="M501.62 860l14.26-4.63v9.26z" stroke="#3a414a" fill="#3a414a"/><path d="M379.5 860H196.38" stroke="#3a414a" fill="none"/><path d="M380 860.48h-.5v-.96h.5z" stroke="#3a414a" stroke-width=".05" fill="#3a414a"/><path d="M181.62 860l14.26-4.63v9.26z" stroke="#3a414a" fill="#3a414a"/><path d="M780 1246a6 6 0 0 1 6-6h188a6 6 0 0 1 6 6v78a6 6 0 0 1-6 6H786a6 6 0 0 1-6-6z" stroke="#000" stroke-opacity="0" fill="#fff" fill-opacity="0"/><use xlink:href="#e" transform="matrix(1,0,0,1,785,1245) translate(11.111111111111114 20.27777777777778)"/><use xlink:href="#f" transform="matrix(1,0,0,1,785,1245) translate(122.1604938271605 20.27777777777778)"/><use xlink:href="#g" transform="matrix(1,0,0,1,785,1245) translate(146.85185185185185 20.27777777777778)"/><use xlink:href="#h" transform="matrix(1,0,0,1,785,1245) translate(3.672839506172849 46.94444444444444)"/><use xlink:href="#i" transform="matrix(1,0,0,1,785,1245) translate(64.10493827160494 46.94444444444444)"/><use xlink:href="#j" transform="matrix(1,0,0,1,785,1245) translate(106.08024691358025 46.94444444444444)"/><use xlink:href="#k" transform="matrix(1,0,0,1,785,1245) translate(130.7716049382716 46.94444444444444)"/><use xlink:href="#l" transform="matrix(1,0,0,1,785,1245) translate(80.83333333333334 73.61111111111111)"/><path d="M880 1119.5V936.38" stroke="#3a414a" fill="none"/><path d="M880.48 1123h-.96v-3.5h.96z" stroke="#3a414a" stroke-width=".05" fill="#3a414a"/><path d="M880 921.62l4.63 14.26h-9.26z" stroke="#3a414a" fill="#3a414a"/><path d="M340 1246a6 6 0 0 1 6-6h228a6 6 0 0 1 6 6v28a6 6 0 0 1-6 6H346a6 6 0 0 1-6-6z" stroke="#000" stroke-opacity="0" fill="#fff" fill-opacity="0"/><use xlink:href="#m" transform="matrix(1,0,0,1,345,1245) translate(-138.79629629629622 19.444444444444443)"/><path d="M1496.82 750.86l-3.92 4.4c-.7.84-1.83.84-2.54 0l-29.26-32.6c-1.38-1.57-1.38-4.08 0-5.68l3.96-4.42 31.8 35.48c.7.78.7 2.04 0 2.82z" stroke="#000" stroke-opacity="0" stroke-width=".71" fill="#50e6ff"/><path d="M1492.24 684.72l3.97 4.43c.7.77.7 2.06 0 2.83l-31.17 35.1-3.96-4.43c-1.4-1.58-1.44-4.12-.04-5.67l28.68-32.26c.7-.82 1.84-.77 2.54 0z" stroke="#000" stroke-opacity="0" stroke-width=".71" fill="#1490df"/><path d="M1574.9 712.56l3.94 4.42c1.38 1.6 1.38 4.1 0 5.67l-29.17 32.62c-.7.83-1.86.83-2.56 0l-3.9-4.37c-.7-.82-.7-2.08 0-2.86l31.7-35.48z" stroke="#000" stroke-opacity="0" stroke-width=".71" fill="#50e6ff"/><path d="M1578.93 722.65l-3.96 4.43-31.18-35.1c-.7-.77-.7-2.06 0-2.83l3.96-4.43c.7-.82 1.84-.82 2.53 0l28.67 32.26c1.4 1.55 1.36 4.13-.04 5.67z" stroke="#000" stroke-opacity="0" stroke-width=".71" fill="#1490df"/><path d="M1516.37 726.72h-24.08c-.68.12-1.28-.48-1.34-1.32 0-.24.06-.36.12-.6l28.9-63.96c.25-.6.68-.84 1.22-.84h28.5c.7 0 1.32.6 1.38 1.32 0 .36-.12.6-.24.84l-33.92 50.04h33.07c.66 0 1.26.6 1.32 1.32 0 .36-.12.72-.36.96l-54.93 64.08c-.54.36-4.22 3.72-2.4-1.44z" stroke="#000" stroke-opacity="0" fill="url(#n)"/><path d="M1548.47 755.88h-33l35.52-41.4-1.08-2.3h-33l18.73-28.18h13.3l-5.14 7.9 24.76 27.82-25.33 28.32zm-57 0h11.76l13.1-29.18h-24.07l-1.17-1.87 18.34-40.7V684l-18.44.07 5.24 7.84-24.76 27.82 25.34 28.25z" stroke="#000" stroke-opacity="0" fill-opacity="0"/><path d="M1519.12 1081.08c.24.6.84.84 1.44.84.6.24 1.2.24 1.8.24.6 0 1.08 0 1.44-.24.6-.24.84-.6 1.44-1.08.24-.6.6-1.08.84-1.68.24-.6.24-1.32.24-2.4 0-.84 0-1.44-.24-2.28-.36-.72-.36-1.32-.84-1.92-.36-.6-.84-.84-1.2-1.32-.6-.36-1.08-.6-1.68-.6-.84 0-1.44.24-2.04.6-.6.24-.96.72-1.44 1.08-.36.6-.6 1.08-.96 1.68-.24.48-.24 1.32-.24 2.16 0 1.08 0 1.92.24 2.4.6 1.44.96 2.04 1.2 2.52z" stroke="#000" stroke-opacity="0" fill="#0078d7"/><path d="M1535.92 1102.56c.84 0 2.04 0 2.88.24 4.68-8.76 13.92-14.52 24.72-15.12v-51.48c0-8.16-18.96-16.2-41.76-16.2-23.16 0-41.76 7.44-41.76 15.72V1110c0 7.44 15.36 14.52 35.4 15.6-.24-1.08-.24-2.16-.24-3.24-.12-10.68 9.12-19.8 20.76-19.8zm15.12-15.12h-14.52v-21.24h6.72v16.32h7.8v4.92zm-29.28-61.68c16.44 0 29.76 3.84 29.76 8.52s-13.32 8.52-29.76 8.52c-16.56 0-29.88-3.84-29.88-8.52s13.32-8.52 29.88-8.52zm-12.48 56.76c0 .48-.36 1.08-.6 1.68-.36.48-.6 1.08-1.2 1.32-.6.6-1.08.84-1.68 1.08-.6.24-1.44.6-2.64.84-.84.24-2.04.24-3.48.24h-2.04c-.6 0-1.2 0-1.8-.24-.6 0-1.08-.36-1.44-.36-.6 0-.84-.24-1.08-.48v-5.76c.24.24.84.48 1.44.72s.84.6 1.44.84 1.08.24 1.68.6c.6.24 1.2.24 1.8.24.6 0 .84 0 1.08-.24.36 0 .6-.36.6-.36.36 0 .36-.24.36-.48v-.6c0-.24 0-.6-.36-.84-.24-.24-.24-.48-.6-.48-.24-.36-.6-.36-1.08-.6-.6-.36-.84-.36-1.44-.6-.84-.24-1.8-.84-2.64-1.32-.6-.6-1.08-.84-1.68-1.44-.6-.6-.84-1.08-.84-1.68-.36-.48-.36-1.32-.36-1.92 0-1.08.36-1.92.6-2.76.6-.72 1.2-1.68 1.8-2.16.84-.6 1.68-1.08 2.88-1.32 1.08-.36 2.28-.6 3.72-.6h2.04c.6 0 1.2 0 1.8.24.6 0 .84.36 1.44.36.24 0 .84.24 1.08.24v5.52c-.24-.36-.48-.36-1.08-.6-.36-.24-.84-.24-1.44-.6-.6-.24-.84-.24-1.44-.24h-1.8c-.84 0-1.44 0-1.68.24-.6.36-.6.6-.6 1.08 0 .36 0 .6.24.6 0 .36.36.36.6.6.36.24.6.24.84.6.36.24.84.24 1.44.48.84.36 1.8.84 2.64 1.08.84.6 1.44.84 2.04 1.44.6.6.84 1.08 1.44 1.68.36.48.6 1.32.6 2.4-.6.48-.6.96-.6 1.56zm2.28-1.08c-.6-1.44-.84-2.76-.84-4.44 0-1.68.36-3.36.84-4.68.6-1.44 1.44-2.52 2.28-3.6.84-1.08 2.4-1.68 3.48-2.16 1.56-.6 3-.84 4.68-.84 1.8 0 3.24.24 4.32.84 1.44.48 2.64 1.32 3.48 2.16.96.84 1.8 2.16 2.4 3.24.6 1.44.84 2.76.84 4.8 0 1.08 0 2.4-.6 3.24-.36 1.08-.84 1.92-1.44 2.76-.6.84-1.2 1.68-2.04 2.16-.96.6-1.44 1.08-2.64 1.68l7.56 6.12h-8.76l-4.92-5.04c-1.44 0-2.88-.6-3.96-.84-1.2-.48-2.4-1.32-3.24-2.16 0-.84-.84-1.92-1.44-3.24z" stroke="#000" stroke-opacity="0" fill="#0078d7"/><path d="M1600 1129.8c0-5.16-4.44-9.6-9.84-10.2.24-1.68.6-3 .6-4.68 0-13.44-11.64-24.48-25.8-24.48-10.8 0-20.4 6.12-24.12 15.36-1.44-.24-2.88-.48-4.56-.48-10.2 0-18.36 7.68-18.36 17.28 0 9.36 7.92 17.04 18 17.4H1592.44v-.36c4.32-.96 7.56-5.16 7.56-9.84zm-9.84 7.44h-54c-8.4 0-15.36-6.6-15.36-14.52 0-8.04 6.96-14.64 15.36-14.64 1.8 0 3.48.24 4.92.84l1.44.48.6-1.32c3.24-8.88 11.88-14.88 21.84-14.88 12.72 0 22.92 9.84 22.92 21.72 0 1.92-.36 3.84-.96 5.76l-.6 2.28 2.16-.36h.84c4.32 0 7.8 3.36 7.8 7.44 0 3.6-3 6.96-6.96 7.2z" stroke="#000" stroke-opacity="0" fill="#0078d7"/><use xlink:href="#o" transform="matrix(1,0,0,1,1450,1149) translate(39.41358024691358 17.77777777777778)"/><use xlink:href="#p" transform="matrix(1,0,0,1,1450,1149) translate(48.08641975308642 44.44444444444444)"/><use xlink:href="#q" transform="matrix(1,0,0,1,1450,1149) translate(37.654320987654316 71.11111111111111)"/><use xlink:href="#r" transform="matrix(1,0,0,1,1450,1149) translate(102.96296296296296 71.11111111111111)"/><path d="M1360.5 1170h34.86a6 6 0 0 0 6-6V956.88M1360.5 1170h-.5" stroke="#3a414a" fill="none"/><path d="M1401.36 942.12l4.63 14.26h-9.28z" stroke="#3a414a" fill="#3a414a"/><path d="M1520 772.26v231.46" stroke="#3a414a" fill="none"/><path d="M1520 757.5l4.63 14.26h-9.27zM1520 1018.5l-4.63-14.28h9.27z" stroke="#3a414a" fill="#3a414a"/><path d="M1219.5 1170h-33.75a6 6 0 0 1-6-6V1036.9M1219.5 1170h.5" stroke="#3a414a" fill="none"/><path d="M1179.75 1022.12l4.64 14.26h-9.28z" stroke="#3a414a" fill="#3a414a"/><path d="M1040 520h120v120h-120V520z" stroke="#fff" stroke-opacity="0" stroke-width="2" fill="#d86613"/><path d="M1136.8 620h-19.72c-.64 0-1.15-.32-1.4-.88l-27.92-58.32h-11.78c-.9 0-1.6-.72-1.6-1.6v-17.6c0-.88.7-1.6 1.6-1.6h24.65c.64 0 1.15.32 1.4.88l27.8 58.32h6.97c.9 0 1.6.72 1.6 1.6v17.6c0 .88-.7 1.6-1.6 1.6zm-18.7-3.2h17.1v-14.4h-6.4c-.64 0-1.15-.32-1.4-.88l-27.8-58.32h-22v14.4h11.2c.63 0 1.14.32 1.46.88z" stroke="#fff" stroke-opacity="0" stroke-width="2" fill="#fff"/><path d="M1083.96 620h-20.8c-.55 0-1.05-.3-1.37-.73-.33-.54-.33-1.12-.08-1.6l21.78-45.46c.24-.58.8-.92 1.4-.92.65 0 1.18.34 1.46.88l10.4 21.43c.26.43.26.92 0 1.4L1085.42 619c-.2.63-.77 1.02-1.44 1.02zm-18.24-3.22h17.24l10.6-22.36-8.6-17.88z" stroke="#fff" stroke-opacity="0" stroke-width="2" fill="#fff"/><path d="M600 520h120v120H600V520z" stroke="#fff" stroke-opacity="0" stroke-width="2" fill="#3f8624"/><path d="M698.3 584.06c-.47-2.48-3.3-4.25-5.3-5.53-.62-.4-2.3-1.04-2.46-1.6 0-.4 0-.8.16-1.2l1.6-11.46 1.4-10.17c.37-3.05-1.1-5.13-3.62-6.9-5.13-3.6-11.88-5.04-17.94-6-7.97-1.28-14.95-1.52-23-.72-7.28.48-13.34 1.92-20.08 4.8-3.38 1.6-7.9 4.1-7.3 8.42 1.55 12.97 3.46 25.95 5.23 38.93.75 5.93 1.6 11.86 2.36 17.8.3 2.47 1.7 4.4 4 5.35 4.9 2.65 11.03 3.45 16.63 3.93 7.73.73 14.32.5 22-.95 4.6-.8 13.18-2.25 13.95-8 .9-7.14 1.9-14.27 2.83-21.4l.38-2.17c2.6.65 10.05 2 9.13-3.12zm-40.65-40.86c9.66 0 20.63 1.12 29.22 5.85 1.38.72 4.44 2.32 3.52 4.33-.93 1.92-3.84 2.88-5.6 3.6-2.6.96-5 1.6-7.75 2.16-11.96 2.4-22.54 2.65-34.65.73-5.45-.57-9.97-1.93-14.88-4.33-1.15-.72-3.06-1.84-2.53-3.45.38-.9 1-1.53 1.83-2 3.76-2.4 7.2-3.85 11.58-4.65 6.6-1.6 12.43-2.33 19.25-2.25zm25.15 67.46c-.3 1.84-3.37 2.8-4.83 3.28-3.22 1.12-6.06 1.76-9.43 2.16-7.44.97-13.88.97-21.4 0-4.67-.4-8.58-1.44-12.8-3.52-1.14-.48-1.83-1.52-1.9-2.73-1.62-12.73-3.38-25.4-5.15-38.05l-1.85-13.78c3.84 2.1 7.36 3.37 11.66 4.1 4.68.95 8.6 1.43 13.35 1.75 9.2.64 17.1.24 26.22-1.44 4.83-.72 8.82-2.08 13.1-4.4l-3.37 25.07c-8.58-2.8-15.64-5.6-23.7-9.54-.37-.16-.68-.32-.98-.48-.46-.32-.3-.16-.54-.64-.38-.96-.46-1.6-1.3-2.4-.77-.56-1.6-.8-2.53-.72-2 .08-3.53 1.84-3.38 3.84.16 1.93 1.92 3.45 3.9 3.3.55-.1 1-.25 1.62-.5.6-.15.6-.15 1.22.17 8.2 4 15.33 6.97 24 9.85 1.23.4 1.23 0 1.23 1.04-.08.8-.16 1.53-.3 2.33l-1 7.6zm-24.7-37.9c0 .48-.6.4-.75.16-.23-.32.76-.72.76-.16zm31.52 11.22l.47-3.53c1.6.96 4.28 2.33 5.04 4.1-1.6.63-4.06-.17-5.5-.57z" stroke="#fff" stroke-opacity="0" stroke-width="2" fill="#fff"/><path d="M660 783.62V726a6 6 0 0 1 6-6h777.74" stroke="#3a414a" fill="none"/><path d="M660 798.38l-4.63-14.26h9.26zM1458.5 720l-14.26 4.63v-9.26z" stroke="#3a414a" fill="#3a414a"/><path d="M736.38 580h67.24" stroke="#3a414a" fill="none"/><path d="M721.62 580l14.26-4.63v9.26zM818.38 580l-14.26 4.63v-9.26z" stroke="#3a414a" fill="#3a414a"/><path d="M956.38 580h67.24" stroke="#3a414a" fill="none"/><path d="M941.62 580l14.26-4.63v9.26zM1038.38 580l-14.26 4.63v-9.26z" stroke="#3a414a" fill="#3a414a"/><path d="M1176.38 580H1514a6 6 0 0 1 6 6v58.45" stroke="#3a414a" fill="none"/><path d="M1161.62 580l14.26-4.63v9.26zM1520 659.2l-4.63-14.25h9.27z" stroke="#3a414a" fill="#3a414a"/><path d="M820 520h120v120H820V520z" stroke="#fff" stroke-opacity="0" fill="#693cc5"/><path d="M897.6 618.42c-.35 0-.64-.15-.93-.3-.43-.3-.67-.77-.67-1.3v-73.63c0-.55.3-1.1.77-1.4.48-.3 1.08-.3 1.6-.07l20.8 10.22c.56.23.9.77.9 1.38v56.56c.02.76-.4 1.37-1.1 1.6l-20.8 6.92h-.56zm1.63-72.62v68.78l17.6-5.84v-54.4zM862.4 618.42h-.52l-20.8-6.92c-.67-.23-1.1-.92-1.08-1.6v-56.57c0-.6.33-1.15.9-1.38l20.8-10.22c.52-.23 1.1-.23 1.6.08.48.32.75.85.75 1.4v73.6c0 .54-.24 1-.67 1.3-.3.24-.6.32-1 .32zm-19.2-9.6l17.6 5.83V545.8l-17.6 8.6z" stroke="#fff" stroke-opacity="0" fill="#fff"/><path d="M896 564h-4.8v-3.2h4.8zm-9.6 0h-4.8v-3.2h4.8zm-9.6 0H872v-3.2h4.8zm-9.6 0h-4.8v-3.2h4.8zM896 599.2h-4.8V596h4.8zm-9.6 0h-4.8V596h4.8zm-9.6 0H872V596h4.8zm-9.6 0h-4.8V596h4.8zM872.98 585.5l-6.02-5.13c-.67-.57-.75-1.6-.18-2.26l.18-.17 6-5.13 2.08 2.43-4.58 3.97 4.58 3.92zM887.04 585.5l-2.08-2.42 4.57-3.88-4.6-3.9 2.1-2.5 6 5.12c.68.57.76 1.6.2 2.26-.07.07-.12.12-.2.17z" stroke="#fff" stroke-opacity="0" fill="#fff"/><path d="M875.3 588.87l6.35-18.8 3.03 1.03-6.35 18.8-3.04-1.03z" stroke="#fff" stroke-opacity="0" stroke-width=".32" fill="#fff"/><use xlink:href="#s" transform="matrix(1,0,0,1,790,649) translate(47.46913580246913 17.77777777777778)"/><path d="M380 520h120v120H380V520z" stroke="#fff" stroke-opacity="0" fill="#693cc5"/><path d="M453.82 617.07l-2.85-1.5c1.6-3.02 2.7-5.73 3.64-9.04l3.1.9c-1.03 3.54-2.17 6.4-3.88 9.64zm2.98-29.3c-.57-9.4-3.23-17.23-8.43-25.06l2.66-1.72c5.55 8.28 8.37 16.64 8.97 26.58zm-21.1-38.62c-2.45-1.8-4.67-3.16-7.4-4.5l1.46-2.87c2.92 1.43 5.26 2.86 7.86 4.82zM448.8 591.84c-5.3-5.27-10.82-8.73-17.87-11.2l1-3.04c7.5 2.63 13.38 6.3 19.03 11.92zM462 610.94c-.6-1.6-1.28-3.07-2.02-4.56l2.87-1.42c.83 1.65 1.46 3.08 2.13 4.8z" stroke="#fff" stroke-opacity="0" fill="#fff"/><path d="M452.9 617.84l-1-3.02c4.03-1.37 7.24-3.1 10.6-5.72l1.96 2.53c-3.66 2.85-7.15 4.73-11.55 6.2zM402.04 579.2l-.73-3.1c3.75-.92 7-1.35 10.85-1.43l.07 3.2c-3.6.08-6.66.47-10.18 1.33zM428.3 569.02l-2.7-1.75c2.47-4 5.06-7.1 8.6-10.23l2.1 2.42c-3.3 2.92-5.7 5.8-8 9.56zM452.08 550.05l-1.1-3c2.55-.96 4.76-1.6 7.42-2.12l.6 3.2c-2.5.47-4.55 1.04-6.92 1.92zM420.4 614.4c-2.75-6.38-4-12.25-4.1-19.2.05-2.67.34-4.95.98-7.54.1-.57.24-1.14.35-1.74l3.2.63c-.1.6-.23 1.16-.35 1.76-.6 2.38-.87 4.46-.93 6.9.08 6.53 1.24 12.05 3.8 18.06z" stroke="#fff" stroke-opacity="0" fill="#fff"/><path d="M440 620c-22.08 0-40-17.94-40-39.97 0-.88 0-1.6.08-2.5 1.04-17.05 12.08-31 28.48-35.87 10.8-3.2 21.2-2.1 30.96 3.44 19.28 10.8 26.16 35.17 15.36 54.47-2.72 4.9-5.92 8.65-10.4 12.1-7.36 5.6-15.2 8.33-24.48 8.33zm0-76.82c-3.76 0-6.96.48-10.48 1.6-15.12 4.57-25.28 17.3-26.24 33 0 .8-.08 1.53-.08 2.25 0 20.26 16.48 36.77 36.8 36.77 4.24 0 7.84-.56 11.84-2 4.08-1.37 7.28-3.05 10.64-5.7 9.36-7.2 14.32-17.3 14.32-29.07 0-20.35-16.48-36.85-36.8-36.85z" stroke="#fff" stroke-opacity="0" fill="#fff"/><path d="M443.9 561.5c-3.92 0-7.1-3.2-7.1-7.1 0-3.9 3.18-7.1 7.1-7.1 3.9 0 7.08 3.2 7.08 7.1 0 3.93-3.17 7.1-7.08 7.1zm0-10.97c-2.15 0-3.9 1.74-3.9 3.88 0 2.17 1.75 3.9 3.9 3.9 2.13 0 3.87-1.73 3.87-3.9 0-2.13-1.74-3.87-3.88-3.87zM422.06 583.8c-3.9 0-7.08-3.17-7.08-7.08 0-3.9 3.17-7.1 7.08-7.1 3.92 0 7.1 3.2 7.1 7.1-.02 3.9-3.18 7.07-7.1 7.1zm0-10.96c-2.14 0-3.88 1.74-3.88 3.88 0 2.14 1.74 3.88 3.88 3.88 2.14 0 3.9-1.74 3.9-3.88v-.03c0-2.16-1.75-3.9-3.9-3.9zM457.25 604.32c-3.92 0-7.1-3.16-7.1-7.07-.02-3.92 3.16-7.1 7.07-7.1 3.9-.02 7.1 3.15 7.1 7.07v.03c0 3.9-3.16 7.07-7.07 7.07zm0-10.96h-.02c-2.14 0-3.88 1.75-3.88 3.9 0 2.14 1.74 3.87 3.88 3.87 2.14 0 3.9-1.73 3.9-3.88 0-2.14-1.74-3.9-3.88-3.9z" stroke="#fff" stroke-opacity="0" fill="#fff"/><path d="M516.38 580h67.24" stroke="#3a414a" fill="none"/><path d="M501.62 580l14.26-4.63v9.26zM598.38 580l-14.26 4.63v-9.26z" stroke="#3a414a" fill="#3a414a"/><path d="M177.9 903.75H82.1c-1.1 0-2.1-.98-2.1-2.1v-46.62h4.3v44.46h91.4v-61.3h-58.1v-4.25h60.3c1.1 0 2.1.98 2.1 2.1v65.6c0 1.12-1 2.1-2.1 2.1z" stroke="#fff" stroke-opacity="0" fill="#3b48cc"/><path d="M129.97 877.9c-.46 0-.92-.16-1.3-.47l-25.7-21.35 2.73-3.26 24.27 20.22 46.54-38.62 2.75 3.26-47.83 39.75c-.46.3-.92.48-1.45.48z" stroke="#fff" stroke-opacity="0" fill="#3b48cc"/><path d="M137 870.45l2.76-3.24 39.47 32.8-2.75 3.25-39.47-32.8z" stroke="#fff" stroke-opacity="0" stroke-width=".64" fill="#3b48cc"/><path d="M80.78 900l39.46-32.8 2.74 3.24-39.45 32.8-2.75-3.23z" stroke="#fff" stroke-opacity="0" stroke-width=".77" fill="#3b48cc"/><path d="M95.28 848.63c2.1-.03 3.87-.36 5.86-1.13v3.67c-2.1 1.02-4.06 1.46-6.4 1.42-2.72.06-5.1-.52-7.45-1.9h-.02c-2.17-1.3-3.67-3-4.7-5.3-1.18-2.76-1.7-5.35-1.63-8.33-.06-3.96.7-7.37 2.46-10.9 1.55-3.16 3.6-5.45 6.54-7.34 2.78-1.78 5.63-2.62 8.96-2.58 2.75-.07 5.15.47 7.58 1.78 2.18 1.2 3.7 2.8 4.83 5.05 1.2 2.58 1.7 4.98 1.64 7.82.03 2.54-.35 4.72-1.28 7.08-.7 1.93-1.72 3.42-3.3 4.76-1.3 1.13-2.78 1.67-4.53 1.67-.93.05-1.77-.17-2.6-.57-.76-.4-1.34-.94-1.8-1.67-.7.76-1.4 1.27-2.32 1.7-.8.45-1.56.66-2.46.7-1.63.07-3.04-.65-3.93-1.96-1.05-1.82-1.46-3.6-1.34-5.67-.03-2.25.33-4.22 1.1-6.36.57-1.78 1.43-3.2 2.78-4.58.95-1.03 2.14-1.54 3.52-1.6 1.6.03 2.94.8 3.8 2.1l.45-1.5h3.9L103.16 838c-.03.4-.03.77 0 1.17-.03.43.07.83.35 1.2.23.3.55.43.9.43.93-.1 1.7-.62 2.14-1.45.77-1.17 1.28-2.26 1.57-3.64.43-1.64.62-3.06.6-4.77.2-2.98-.62-5.63-2.54-8-2.05-2-4.54-2.9-7.42-2.72-2.56 0-4.74.74-6.78 2.26-2.15 1.64-3.62 3.53-4.64 6.04-1.2 2.83-1.7 5.4-1.63 8.5-.2 3.24.63 6.03 2.55 8.65 1.82 2.07 4.25 3.13 7.03 2.98zm1.28-7.92c.87-.03 1.6-.4 2.15-1.05v-.72c-.03-.55-.03-.98 0-1.53l1.16-8.47c-.58-.43-1.2-.7-1.9-.72-1 0-1.84.77-2.55 2.33-.8 1.97-1.1 3.78-1 5.93.08 2.83.75 4.25 2.16 4.25z" stroke="#fff" stroke-opacity="0" fill="#3b48cc"/><path d="M81.12 835.08h96.34v66.14H81.12v-66.14z" stroke="#fff" stroke-opacity="0" stroke-width=".87" fill="#fff" fill-opacity="0"/><path d="M97.9 818.68c7.65 0 13.86 6.1 13.86 13.62s-6.2 13.62-13.87 13.62c-7.67 0-13.9-6.1-13.9-13.62 0-7.5 6.23-13.62 13.9-13.62z" stroke="#fff" stroke-opacity="0" stroke-width=".38" fill="#fff" fill-opacity="0"/><path d="M152.4 550.5c0 11.4-10 20.6-22.4 20.6-12.4 0-22.4-9.2-22.4-20.6 0-11.3 10-20.5 22.4-20.5 12.4 0 22.4 9.2 22.4 20.5m-6 27.6L130 599.2l-16.4-21.1H90V630h80v-51.9z" stroke="#000" stroke-opacity="0" stroke-width="3" fill="#59b4d9"/><path d="M90 578.1V630h80v-51.9l-24.56-14.94 4.24-18.1-19.12-13.93-20.88 15.72 5.36 17.2z" stroke="#000" stroke-opacity="0" stroke-width="0" fill-opacity="0"/><path d="M170.5 580h193.12" stroke="#3a414a" fill="none"/><path d="M170.5 580.48h-.5v-.96h.5z" stroke="#3a414a" stroke-width=".05" fill="#3a414a"/><path d="M378.38 580l-14.26 4.63v-9.26z" stroke="#3a414a" fill="#3a414a"/><path d="M928.86 1165.6c.84-.36 1.8-.36 2.64.24.72.48 1.2 1.32 1.2 2.28v59.64c0 1.44-1.2 2.64-2.76 2.64h-23.86c-1.43 0-2.75-1.2-2.75-2.64v-59.64c0-.96.48-1.8 1.32-2.28.72-.6 1.68-.6 2.5-.24 6.85 3 14.88 3 21.7 0zm-99.26 64.8c-1.56 0-2.75-1.2-2.75-2.64v-52.56c0-1.44 1.2-2.64 2.75-2.64h23.86c1.56 0 2.75 1.2 2.75 2.64v52.56c0 1.44-1.18 2.64-2.74 2.64zm88.47-66.84c-12.1 0-21.82-9.72-21.82-21.72 0-12 9.72-21.84 21.82-21.84 12 0 21.82 9.84 21.82 21.84s-9.84 21.72-21.83 21.72zm-50.23 66.84c-1.56 0-2.75-1.2-2.75-2.64v-40.56c0-1.56 1.18-2.76 2.74-2.76h23.86c1.56 0 2.76 1.2 2.76 2.76v40.56c0 1.44-1.2 2.64-2.76 2.64zm59.46-5.4v-53.04c-6 1.8-12.58 1.8-18.46 0V1225zm-95.06 0h18.58v-47.04h-18.58zm85.83-99.6c-9.1 0-16.42 7.32-16.42 16.44 0 9 7.3 16.32 16.42 16.32 9 0 16.43-7.32 16.43-16.32 0-9.12-7.44-16.44-16.43-16.44zM870.6 1225h18.46v-35.16H870.6zm-50.6 15v-5.4h119.53v5.4zm100.7-93.12H906.1v-5.4h9.24v-11.64h5.4z" stroke="#000" stroke-opacity="0" fill="#b0084d"/><path d="M829.72 1172.57l23.28-.12c1.44.48 3.12.84 3 2.64l.24 11.75 8.88.12c.24-1.68 1.2-2.52 2.64-2.64l22.32.12c1.8.36 4.2-.48 4.08 3.24l9 .23.24-29.52c-6.48-6.83-9.24-15-5.16-25.67 2.76-5.4 6.6-10.44 18.12-12.72 7.08.25 13.68 2.05 19.32 9.25 5.64 10.2 5.16 16.68 2.04 21.72-1.32 2.52-2.64 4.92-5.4 7.32l.24 70.07 6.72 6v5.64H820l.12-5.63 6.72-6.12v-53.28c.72-1.56 1.56-2.64 2.88-2.4z" stroke="#000" stroke-opacity="0" fill-opacity="0"/><defs><path fill="#232f3e" d="M205 0l-28-72H64L36 0H1l101-248h38L239 0h-34zm-38-99l-47-123c-12 45-31 82-46 123h93" id="t"/><path fill="#232f3e" d="M266 0h-40l-56-210L115 0H75L2-248h35L96-30l15-64 43-154h32l59 218 59-218h35" id="u"/><path fill="#232f3e" d="M185-189c-5-48-123-54-124 2 14 75 158 14 163 119 3 78-121 87-175 55-17-10-28-26-33-46l33-7c5 56 141 63 141-1 0-78-155-14-162-118-5-82 145-84 179-34 5 7 8 16 11 25" id="v"/><g id="a"><use transform="matrix(0.06172839506172839,0,0,0.06172839506172839,0,0)" xlink:href="#t"/><use transform="matrix(0.06172839506172839,0,0,0.06172839506172839,14.012345679012345,0)" xlink:href="#u"/><use transform="matrix(0.06172839506172839,0,0,0.06172839506172839,34.938271604938265,0)" xlink:href="#v"/></g><path fill="#232f3e" d="M212-179c-10-28-35-45-73-45-59 0-87 40-87 99 0 60 29 101 89 101 43 0 62-24 78-52l27 14C228-24 195 4 139 4 59 4 22-46 18-125c-6-104 99-153 187-111 19 9 31 26 39 46" id="w"/><path fill="#232f3e" d="M24 0v-261h32V0H24" id="x"/><path fill="#232f3e" d="M100-194c62-1 85 37 85 99 1 63-27 99-86 99S16-35 15-95c0-66 28-99 85-99zM99-20c44 1 53-31 53-75 0-43-8-75-51-75s-53 32-53 75 10 74 51 75" id="y"/><path fill="#232f3e" d="M84 4C-5 8 30-112 23-190h32v120c0 31 7 50 39 49 72-2 45-101 50-169h31l1 190h-30c-1-10 1-25-2-33-11 22-28 36-60 37" id="z"/><path fill="#232f3e" d="M85-194c31 0 48 13 60 33l-1-100h32l1 261h-30c-2-10 0-23-3-31C134-8 116 4 85 4 32 4 16-35 15-94c0-66 23-100 70-100zm9 24c-40 0-46 34-46 75 0 40 6 74 45 74 42 0 51-32 51-76 0-42-9-74-50-73" id="A"/><g id="b"><use transform="matrix(0.06172839506172839,0,0,0.06172839506172839,0,0)" xlink:href="#w"/><use transform="matrix(0.06172839506172839,0,0,0.06172839506172839,15.987654320987653,0)" xlink:href="#x"/><use transform="matrix(0.06172839506172839,0,0,0.06172839506172839,20.864197530864196,0)" xlink:href="#y"/><use transform="matrix(0.06172839506172839,0,0,0.06172839506172839,33.20987654320987,0)" xlink:href="#z"/><use transform="matrix(0.06172839506172839,0,0,0.06172839506172839,45.55555555555555,0)" xlink:href="#A"/></g><path d="M233-177c-1 41-23 64-60 70L243 0h-38l-65-103H63V0H30v-248c88 3 205-21 203 71zM63-129c60-2 137 13 137-47 0-61-80-42-137-45v92" id="B"/><path d="M100-194c63 0 86 42 84 106H49c0 40 14 67 53 68 26 1 43-12 49-29l28 8c-11 28-37 45-77 45C44 4 14-33 15-96c1-61 26-98 85-98zm52 81c6-60-76-77-97-28-3 7-6 17-6 28h103" id="C"/><path d="M135-143c-3-34-86-38-87 0 15 53 115 12 119 90S17 21 10-45l28-5c4 36 97 45 98 0-10-56-113-15-118-90-4-57 82-63 122-42 12 7 21 19 24 35" id="D"/><path d="M100-194c62-1 85 37 85 99 1 63-27 99-86 99S16-35 15-95c0-66 28-99 85-99zM99-20c44 1 53-31 53-75 0-43-8-75-51-75s-53 32-53 75 10 74 51 75" id="E"/><path d="M84 4C-5 8 30-112 23-190h32v120c0 31 7 50 39 49 72-2 45-101 50-169h31l1 190h-30c-1-10 1-25-2-33-11 22-28 36-60 37" id="F"/><path d="M114-163C36-179 61-72 57 0H25l-1-190h30c1 12-1 29 2 39 6-27 23-49 58-41v29" id="G"/><path d="M96-169c-40 0-48 33-48 73s9 75 48 75c24 0 41-14 43-38l32 2c-6 37-31 61-74 61-59 0-76-41-82-99-10-93 101-131 147-64 4 7 5 14 7 22l-32 3c-4-21-16-35-41-35" id="H"/><g id="c"><use transform="matrix(0.06172839506172839,0,0,0.06172839506172839,0,0)" xlink:href="#B"/><use transform="matrix(0.06172839506172839,0,0,0.06172839506172839,15.987654320987653,0)" xlink:href="#C"/><use transform="matrix(0.06172839506172839,0,0,0.06172839506172839,28.333333333333332,0)" xlink:href="#D"/><use transform="matrix(0.06172839506172839,0,0,0.06172839506172839,39.44444444444444,0)" xlink:href="#E"/><use transform="matrix(0.06172839506172839,0,0,0.06172839506172839,51.79012345679012,0)" xlink:href="#F"/><use transform="matrix(0.06172839506172839,0,0,0.06172839506172839,64.1358024691358,0)" xlink:href="#G"/><use transform="matrix(0.06172839506172839,0,0,0.06172839506172839,71.48148148148148,0)" xlink:href="#H"/><use transform="matrix(0.06172839506172839,0,0,0.06172839506172839,82.5925925925926,0)" xlink:href="#C"/></g><path d="M143 4C61 4 22-44 18-125c-5-107 100-154 193-111 17 8 29 25 37 43l-32 9c-13-25-37-40-76-40-61 0-88 39-88 99 0 61 29 100 91 101 35 0 62-11 79-27v-45h-74v-28h105v86C228-13 192 4 143 4" id="I"/><path d="M115-194c55 1 70 41 70 98S169 2 115 4C84 4 66-9 55-30l1 105H24l-1-265h31l2 30c10-21 28-34 59-34zm-8 174c40 0 45-34 45-75s-6-73-45-74c-42 0-51 32-51 76 0 43 10 73 51 73" id="J"/><g id="d"><use transform="matrix(0.06172839506172839,0,0,0.06172839506172839,0,0)" xlink:href="#I"/><use transform="matrix(0.06172839506172839,0,0,0.06172839506172839,17.28395061728395,0)" xlink:href="#G"/><use transform="matrix(0.06172839506172839,0,0,0.06172839506172839,24.629629629629626,0)" xlink:href="#E"/><use transform="matrix(0.06172839506172839,0,0,0.06172839506172839,36.9753086419753,0)" xlink:href="#F"/><use transform="matrix(0.06172839506172839,0,0,0.06172839506172839,49.32098765432098,0)" xlink:href="#J"/></g><path fill="#3a414a" d="M185-189c-5-48-123-54-124 2 14 75 158 14 163 119 3 78-121 87-175 55-17-10-28-26-33-46l33-7c5 56 141 63 141-1 0-78-155-14-162-118-5-82 145-84 179-34 5 7 8 16 11 25" id="K"/><path fill="#3a414a" d="M96-169c-40 0-48 33-48 73s9 75 48 75c24 0 41-14 43-38l32 2c-6 37-31 61-74 61-59 0-76-41-82-99-10-93 101-131 147-64 4 7 5 14 7 22l-32 3c-4-21-16-35-41-35" id="L"/><path fill="#3a414a" d="M106-169C34-169 62-67 57 0H25v-261h32l-1 103c12-21 28-36 61-36 89 0 53 116 60 194h-32v-121c2-32-8-49-39-48" id="M"/><path fill="#3a414a" d="M100-194c63 0 86 42 84 106H49c0 40 14 67 53 68 26 1 43-12 49-29l28 8c-11 28-37 45-77 45C44 4 14-33 15-96c1-61 26-98 85-98zm52 81c6-60-76-77-97-28-3 7-6 17-6 28h103" id="N"/><path fill="#3a414a" d="M85-194c31 0 48 13 60 33l-1-100h32l1 261h-30c-2-10 0-23-3-31C134-8 116 4 85 4 32 4 16-35 15-94c0-66 23-100 70-100zm9 24c-40 0-46 34-46 75 0 40 6 74 45 74 42 0 51-32 51-76 0-42-9-74-50-73" id="O"/><path fill="#3a414a" d="M84 4C-5 8 30-112 23-190h32v120c0 31 7 50 39 49 72-2 45-101 50-169h31l1 190h-30c-1-10 1-25-2-33-11 22-28 36-60 37" id="P"/><path fill="#3a414a" d="M24 0v-261h32V0H24" id="Q"/><g id="e"><use transform="matrix(0.06172839506172839,0,0,0.06172839506172839,0,0)" xlink:href="#K"/><use transform="matrix(0.06172839506172839,0,0,0.06172839506172839,14.814814814814813,0)" xlink:href="#L"/><use transform="matrix(0.06172839506172839,0,0,0.06172839506172839,25.925925925925924,0)" xlink:href="#M"/><use transform="matrix(0.06172839506172839,0,0,0.06172839506172839,38.2716049382716,0)" xlink:href="#N"/><use transform="matrix(0.06172839506172839,0,0,0.06172839506172839,50.61728395061728,0)" xlink:href="#O"/><use transform="matrix(0.06172839506172839,0,0,0.06172839506172839,62.962962962962955,0)" xlink:href="#P"/><use transform="matrix(0.06172839506172839,0,0,0.06172839506172839,75.30864197530863,0)" xlink:href="#Q"/><use transform="matrix(0.06172839506172839,0,0,0.06172839506172839,80.18518518518518,0)" xlink:href="#N"/><use transform="matrix(0.06172839506172839,0,0,0.06172839506172839,92.53086419753086,0)" xlink:href="#O"/></g><path fill="#3a414a" d="M59-47c-2 24 18 29 38 22v24C64 9 27 4 27-40v-127H5v-23h24l9-43h21v43h35v23H59v120" id="R"/><path fill="#3a414a" d="M100-194c62-1 85 37 85 99 1 63-27 99-86 99S16-35 15-95c0-66 28-99 85-99zM99-20c44 1 53-31 53-75 0-43-8-75-51-75s-53 32-53 75 10 74 51 75" id="S"/><g id="f"><use transform="matrix(0.06172839506172839,0,0,0.06172839506172839,0,0)" xlink:href="#R"/><use transform="matrix(0.06172839506172839,0,0,0.06172839506172839,6.172839506172839,0)" xlink:href="#S"/></g><path fill="#3a414a" d="M114-163C36-179 61-72 57 0H25l-1-190h30c1 12-1 29 2 39 6-27 23-49 58-41v29" id="T"/><path fill="#3a414a" d="M117-194c89-4 53 116 60 194h-32v-121c0-31-8-49-39-48C34-167 62-67 57 0H25l-1-190h30c1 10-1 24 2 32 11-22 29-35 61-36" id="U"/><g id="g"><use transform="matrix(0.06172839506172839,0,0,0.06172839506172839,0,0)" xlink:href="#T"/><use transform="matrix(0.06172839506172839,0,0,0.06172839506172839,7.345679012345679,0)" xlink:href="#P"/><use transform="matrix(0.06172839506172839,0,0,0.06172839506172839,19.691358024691358,0)" xlink:href="#U"/></g><path fill="#3a414a" d="M108 0H70L1-190h34L89-25l56-165h34" id="V"/><path fill="#3a414a" d="M179-190L93 31C79 59 56 82 12 73V49c39 6 53-20 64-50L1-190h34L92-34l54-156h33" id="W"/><g id="h"><use transform="matrix(0.06172839506172839,0,0,0.06172839506172839,0,0)" xlink:href="#N"/><use transform="matrix(0.06172839506172839,0,0,0.06172839506172839,12.345679012345679,0)" xlink:href="#V"/><use transform="matrix(0.06172839506172839,0,0,0.06172839506172839,23.45679012345679,0)" xlink:href="#N"/><use transform="matrix(0.06172839506172839,0,0,0.06172839506172839,35.80246913580247,0)" xlink:href="#T"/><use transform="matrix(0.06172839506172839,0,0,0.06172839506172839,43.148148148148145,0)" xlink:href="#W"/></g><path fill="#3a414a" d="M141-36C126-15 110 5 73 4 37 3 15-17 15-53c-1-64 63-63 125-63 3-35-9-54-41-54-24 1-41 7-42 31l-33-3c5-37 33-52 76-52 45 0 72 20 72 64v82c-1 20 7 32 28 27v20c-31 9-61-2-59-35zM48-53c0 20 12 33 32 33 41-3 63-29 60-74-43 2-92-5-92 41" id="X"/><g id="i"><use transform="matrix(0.06172839506172839,0,0,0.06172839506172839,0,0)" xlink:href="#O"/><use transform="matrix(0.06172839506172839,0,0,0.06172839506172839,12.345679012345679,0)" xlink:href="#X"/><use transform="matrix(0.06172839506172839,0,0,0.06172839506172839,24.691358024691358,0)" xlink:href="#W"/></g><g id="j"><use transform="matrix(0.06172839506172839,0,0,0.06172839506172839,0,0)" xlink:href="#X"/><use transform="matrix(0.06172839506172839,0,0,0.06172839506172839,12.345679012345679,0)" xlink:href="#R"/></g><path fill="#3a414a" d="M101-251c82-7 93 87 43 132L82-64C71-53 59-42 53-27h129V0H18c2-99 128-94 128-182 0-28-16-43-45-43s-46 15-49 41l-32-3c6-41 34-60 81-64" id="Y"/><path fill="#3a414a" d="M27 0v-27h64v-190l-56 39v-29l58-41h29v221h61V0H27" id="Z"/><path fill="#3a414a" d="M33-154v-36h34v36H33zM33 0v-36h34V0H33" id="aa"/><path fill="#3a414a" d="M101-251c68 0 85 55 85 127S166 4 100 4C33 4 14-52 14-124c0-73 17-127 87-127zm-1 229c47 0 54-49 54-102s-4-102-53-102c-51 0-55 48-55 102 0 53 5 102 54 102" id="ab"/><g id="k"><use transform="matrix(0.06172839506172839,0,0,0.06172839506172839,0,0)" xlink:href="#Y"/><use transform="matrix(0.06172839506172839,0,0,0.06172839506172839,12.345679012345679,0)" xlink:href="#Z"/><use transform="matrix(0.06172839506172839,0,0,0.06172839506172839,24.691358024691358,0)" xlink:href="#aa"/><use transform="matrix(0.06172839506172839,0,0,0.06172839506172839,30.864197530864196,0)" xlink:href="#ab"/><use transform="matrix(0.06172839506172839,0,0,0.06172839506172839,43.20987654320987,0)" xlink:href="#ab"/></g><path fill="#3a414a" d="M30-248c87 1 191-15 191 75 0 78-77 80-158 76V0H30v-248zm33 125c57 0 124 11 124-50 0-59-68-47-124-48v98" id="ac"/><path fill="#3a414a" d="M127-220V0H93v-220H8v-28h204v28h-85" id="ad"/><g id="l"><use transform="matrix(0.06172839506172839,0,0,0.06172839506172839,0,0)" xlink:href="#ac"/><use transform="matrix(0.06172839506172839,0,0,0.06172839506172839,14.814814814814813,0)" xlink:href="#ad"/></g><path fill="#3a414a" d="M115-194c55 1 70 41 70 98S169 2 115 4C84 4 66-9 55-30l1 105H24l-1-265h31l2 30c10-21 28-34 59-34zm-8 174c40 0 45-34 45-75s-6-73-45-74c-42 0-51 32-51 76 0 43 10 73 51 73" id="ae"/><path fill="#3a414a" d="M135-143c-3-34-86-38-87 0 15 53 115 12 119 90S17 21 10-45l28-5c4 36 97 45 98 0-10-56-113-15-118-90-4-57 82-63 122-42 12 7 21 19 24 35" id="af"/><path fill="#3a414a" d="M0 4l72-265h28L28 4H0" id="ag"/><path fill="#3a414a" d="M206 0h-36l-40-164L89 0H53L-1-190h32L70-26l43-164h34l41 164 42-164h31" id="ah"/><path fill="#3a414a" d="M33 0v-38h34V0H33" id="ai"/><path fill="#3a414a" d="M210-169c-67 3-38 105-44 169h-31v-121c0-29-5-50-35-48C34-165 62-65 56 0H25l-1-190h30c1 10-1 24 2 32 10-44 99-50 107 0 11-21 27-35 58-36 85-2 47 119 55 194h-31v-121c0-29-5-49-35-48" id="aj"/><path fill="#3a414a" d="M153-248C145-148 188 4 80 4 36 3 13-21 6-62l32-5c4 25 16 42 43 43 27 0 39-20 39-49v-147H72v-28h81" id="ak"/><path fill="#3a414a" d="M143 0L79-87 56-68V0H24v-261h32v163l83-92h37l-77 82L181 0h-38" id="al"/><path fill="#3a414a" d="M143 4C61 4 22-44 18-125c-5-107 100-154 193-111 17 8 29 25 37 43l-32 9c-13-25-37-40-76-40-61 0-88 39-88 99 0 61 29 100 91 101 35 0 62-11 79-27v-45h-74v-28h105v86C228-13 192 4 143 4" id="am"/><path fill="#3a414a" d="M197 0v-115H63V0H30v-248h33v105h134v-105h34V0h-34" id="an"/><path fill="#3a414a" d="M24-231v-30h32v30H24zM24 0v-190h32V0H24" id="ao"/><path fill="#3a414a" d="M54-142c48-35 137-8 131 61C196 18 31 33 14-55l32-4c7 23 22 37 52 37 35-1 51-22 54-58 4-55-73-65-99-34H22l8-134h141v27H59" id="ap"/><path fill="#3a414a" d="M141 0L90-78 38 0H4l68-98-65-92h35l48 74 47-74h35l-64 92 68 98h-35" id="aq"/><g id="m"><use transform="matrix(0.06172839506172839,0,0,0.06172839506172839,0,0)" xlink:href="#M"/><use transform="matrix(0.06172839506172839,0,0,0.06172839506172839,12.345679012345679,0)" xlink:href="#R"/><use transform="matrix(0.06172839506172839,0,0,0.06172839506172839,18.51851851851852,0)" xlink:href="#R"/><use transform="matrix(0.06172839506172839,0,0,0.06172839506172839,24.691358024691358,0)" xlink:href="#ae"/><use transform="matrix(0.06172839506172839,0,0,0.06172839506172839,37.03703703703704,0)" xlink:href="#af"/><use transform="matrix(0.06172839506172839,0,0,0.06172839506172839,48.14814814814815,0)" xlink:href="#aa"/><use transform="matrix(0.06172839506172839,0,0,0.06172839506172839,54.320987654320994,0)" xlink:href="#ag"/><use transform="matrix(0.06172839506172839,0,0,0.06172839506172839,60.49382716049384,0)" xlink:href="#ag"/><use transform="matrix(0.06172839506172839,0,0,0.06172839506172839,66.66666666666667,0)" xlink:href="#ah"/><use transform="matrix(0.06172839506172839,0,0,0.06172839506172839,82.65432098765433,0)" xlink:href="#ah"/><use transform="matrix(0.06172839506172839,0,0,0.06172839506172839,98.64197530864199,0)" xlink:href="#ah"/><use transform="matrix(0.06172839506172839,0,0,0.06172839506172839,113.39506172839508,0)" xlink:href="#ai"/><use transform="matrix(0.06172839506172839,0,0,0.06172839506172839,119.56790123456791,0)" xlink:href="#ah"/><use transform="matrix(0.06172839506172839,0,0,0.06172839506172839,135.55555555555557,0)" xlink:href="#X"/><use transform="matrix(0.06172839506172839,0,0,0.06172839506172839,147.90123456790124,0)" xlink:href="#Q"/><use transform="matrix(0.06172839506172839,0,0,0.06172839506172839,152.77777777777777,0)" xlink:href="#S"/><use transform="matrix(0.06172839506172839,0,0,0.06172839506172839,165.12345679012344,0)" xlink:href="#R"/><use transform="matrix(0.06172839506172839,0,0,0.06172839506172839,171.29629629629628,0)" xlink:href="#R"/><use transform="matrix(0.06172839506172839,0,0,0.06172839506172839,177.4691358024691,0)" xlink:href="#N"/><use transform="matrix(0.06172839506172839,0,0,0.06172839506172839,189.81481481481478,0)" xlink:href="#T"/><use transform="matrix(0.06172839506172839,0,0,0.06172839506172839,197.16049382716045,0)" xlink:href="#W"/><use transform="matrix(0.06172839506172839,0,0,0.06172839506172839,206.6049382716049,0)" xlink:href="#ai"/><use transform="matrix(0.06172839506172839,0,0,0.06172839506172839,212.77777777777774,0)" xlink:href="#L"/><use transform="matrix(0.06172839506172839,0,0,0.06172839506172839,223.88888888888886,0)" xlink:href="#S"/><use transform="matrix(0.06172839506172839,0,0,0.06172839506172839,236.23456790123453,0)" xlink:href="#aj"/><use transform="matrix(0.06172839506172839,0,0,0.06172839506172839,254.69135802469128,0)" xlink:href="#ag"/><use transform="matrix(0.06172839506172839,0,0,0.06172839506172839,260.86419753086415,0)" xlink:href="#ak"/><use transform="matrix(0.06172839506172839,0,0,0.06172839506172839,271.97530864197523,0)" xlink:href="#X"/><use transform="matrix(0.06172839506172839,0,0,0.06172839506172839,284.3209876543209,0)" xlink:href="#L"/><use transform="matrix(0.06172839506172839,0,0,0.06172839506172839,295.432098765432,0)" xlink:href="#al"/><use transform="matrix(0.06172839506172839,0,0,0.06172839506172839,306.5432098765431,0)" xlink:href="#ae"/><use transform="matrix(0.06172839506172839,0,0,0.06172839506172839,318.88888888888874,0)" xlink:href="#S"/><use transform="matrix(0.06172839506172839,0,0,0.06172839506172839,331.2345679012344,0)" xlink:href="#R"/><use transform="matrix(0.06172839506172839,0,0,0.06172839506172839,337.4074074074073,0)" xlink:href="#am"/><use transform="matrix(0.06172839506172839,0,0,0.06172839506172839,354.6913580246912,0)" xlink:href="#X"/><use transform="matrix(0.06172839506172839,0,0,0.06172839506172839,367.0370370370369,0)" xlink:href="#aj"/><use transform="matrix(0.06172839506172839,0,0,0.06172839506172839,385.4938271604937,0)" xlink:href="#N"/><use transform="matrix(0.06172839506172839,0,0,0.06172839506172839,397.8395061728394,0)" xlink:href="#af"/><use transform="matrix(0.06172839506172839,0,0,0.06172839506172839,408.95061728395046,0)" xlink:href="#ag"/><use transform="matrix(0.06172839506172839,0,0,0.06172839506172839,415.1234567901233,0)" xlink:href="#an"/><use transform="matrix(0.06172839506172839,0,0,0.06172839506172839,431.111111111111,0)" xlink:href="#ao"/><use transform="matrix(0.06172839506172839,0,0,0.06172839506172839,435.98765432098753,0)" xlink:href="#R"/><use transform="matrix(0.06172839506172839,0,0,0.06172839506172839,442.1604938271604,0)" xlink:href="#ap"/><use transform="matrix(0.06172839506172839,0,0,0.06172839506172839,454.50617283950606,0)" xlink:href="#ai"/><use transform="matrix(0.06172839506172839,0,0,0.06172839506172839,460.6790123456789,0)" xlink:href="#X"/><use transform="matrix(0.06172839506172839,0,0,0.06172839506172839,473.0246913580246,0)" xlink:href="#af"/><use transform="matrix(0.06172839506172839,0,0,0.06172839506172839,484.1358024691357,0)" xlink:href="#ae"/><use transform="matrix(0.06172839506172839,0,0,0.06172839506172839,496.48148148148135,0)" xlink:href="#aq"/></g><linearGradient gradientUnits="userSpaceOnUse" id="n" x1="1519.45" y1="779.1" x2="1519.45" y2="659.06"><stop offset="0%" stop-color="#fea11b"/><stop offset="28.4%" stop-color="#fea51a"/><stop offset="54.7%" stop-color="#feb018"/><stop offset="80%" stop-color="#ffc314"/><stop offset="100%" stop-color="#ffd70f"/></linearGradient><path d="M30-248c118-7 216 8 213 122C240-48 200 0 122 0H30v-248zM63-27c89 8 146-16 146-99s-60-101-146-95v194" id="ar"/><path d="M141-36C126-15 110 5 73 4 37 3 15-17 15-53c-1-64 63-63 125-63 3-35-9-54-41-54-24 1-41 7-42 31l-33-3c5-37 33-52 76-52 45 0 72 20 72 64v82c-1 20 7 32 28 27v20c-31 9-61-2-59-35zM48-53c0 20 12 33 32 33 41-3 63-29 60-74-43 2-92-5-92 41" id="as"/><path d="M59-47c-2 24 18 29 38 22v24C64 9 27 4 27-40v-127H5v-23h24l9-43h21v43h35v23H59v120" id="at"/><path d="M115-194c53 0 69 39 70 98 0 66-23 100-70 100C84 3 66-7 56-30L54 0H23l1-261h32v101c10-23 28-34 59-34zm-8 174c40 0 45-34 45-75 0-40-5-75-45-74-42 0-51 32-51 76 0 43 10 73 51 73" id="au"/><path d="M33-154v-36h34v36H33zM33 0v-36h34V0H33" id="av"/><g id="o"><use transform="matrix(0.06172839506172839,0,0,0.06172839506172839,0,0)" xlink:href="#ar"/><use transform="matrix(0.06172839506172839,0,0,0.06172839506172839,15.987654320987653,0)" xlink:href="#as"/><use transform="matrix(0.06172839506172839,0,0,0.06172839506172839,28.333333333333332,0)" xlink:href="#at"/><use transform="matrix(0.06172839506172839,0,0,0.06172839506172839,34.50617283950617,0)" xlink:href="#as"/><use transform="matrix(0.06172839506172839,0,0,0.06172839506172839,46.85185185185185,0)" xlink:href="#au"/><use transform="matrix(0.06172839506172839,0,0,0.06172839506172839,59.197530864197525,0)" xlink:href="#as"/><use transform="matrix(0.06172839506172839,0,0,0.06172839506172839,71.5432098765432,0)" xlink:href="#D"/><use transform="matrix(0.06172839506172839,0,0,0.06172839506172839,82.65432098765432,0)" xlink:href="#C"/><use transform="matrix(0.06172839506172839,0,0,0.06172839506172839,95,0)" xlink:href="#av"/></g><path d="M9 0v-24l116-142H16v-24h144v24L44-24h123V0H9" id="aw"/><path d="M145-31C134-9 116 4 85 4 32 4 16-35 15-94c0-59 17-99 70-100 32-1 48 14 60 33 0-11-1-24 2-32h30l-1 268h-32zM93-21c41 0 51-33 51-76s-8-73-50-73c-40 0-46 35-46 75s5 74 45 74" id="ax"/><path d="M24 0v-261h32V0H24" id="ay"/><g id="p"><use transform="matrix(0.06172839506172839,0,0,0.06172839506172839,0,0)" xlink:href="#as"/><use transform="matrix(0.06172839506172839,0,0,0.06172839506172839,12.345679012345679,0)" xlink:href="#aw"/><use transform="matrix(0.06172839506172839,0,0,0.06172839506172839,23.45679012345679,0)" xlink:href="#F"/><use transform="matrix(0.06172839506172839,0,0,0.06172839506172839,35.80246913580247,0)" xlink:href="#G"/><use transform="matrix(0.06172839506172839,0,0,0.06172839506172839,43.148148148148145,0)" xlink:href="#C"/><use transform="matrix(0.06172839506172839,0,0,0.06172839506172839,55.49382716049382,0)" xlink:href="#D"/><use transform="matrix(0.06172839506172839,0,0,0.06172839506172839,66.60493827160494,0)" xlink:href="#ax"/><use transform="matrix(0.06172839506172839,0,0,0.06172839506172839,78.95061728395062,0)" xlink:href="#ay"/></g><path d="M127-220V0H93v-220H8v-28h204v28h-85" id="az"/><g id="q"><use transform="matrix(0.06172839506172839,0,0,0.06172839506172839,0,0)" xlink:href="#az"/><use transform="matrix(0.06172839506172839,0,0,0.06172839506172839,11.049382716049381,0)" xlink:href="#as"/><use transform="matrix(0.06172839506172839,0,0,0.06172839506172839,23.39506172839506,0)" xlink:href="#au"/><use transform="matrix(0.06172839506172839,0,0,0.06172839506172839,35.74074074074074,0)" xlink:href="#ay"/><use transform="matrix(0.06172839506172839,0,0,0.06172839506172839,40.617283950617285,0)" xlink:href="#C"/><use transform="matrix(0.06172839506172839,0,0,0.06172839506172839,52.96296296296296,0)" xlink:href="#av"/></g><path d="M197 0v-115H63V0H30v-248h33v105h134v-105h34V0h-34" id="aA"/><path d="M24-231v-30h32v30H24zM24 0v-190h32V0H24" id="aB"/><path d="M54-142c48-35 137-8 131 61C196 18 31 33 14-55l32-4c7 23 22 37 52 37 35-1 51-22 54-58 4-55-73-65-99-34H22l8-134h141v27H59" id="aC"/><g id="r"><use transform="matrix(0.06172839506172839,0,0,0.06172839506172839,0,0)" xlink:href="#aA"/><use transform="matrix(0.06172839506172839,0,0,0.06172839506172839,15.987654320987653,0)" xlink:href="#aB"/><use transform="matrix(0.06172839506172839,0,0,0.06172839506172839,20.864197530864196,0)" xlink:href="#at"/><use transform="matrix(0.06172839506172839,0,0,0.06172839506172839,27.037037037037035,0)" xlink:href="#aC"/></g><path fill="#3a414a" d="M177-190C167-65 218 103 67 71c-23-6-38-20-44-43l32-5c15 47 100 32 89-28v-30C133-14 115 1 83 1 29 1 15-40 15-95c0-56 16-97 71-98 29-1 48 16 59 35 1-10 0-23 2-32h30zM94-22c36 0 50-32 50-73 0-42-14-75-50-75-39 0-46 34-46 75s6 73 46 73" id="aD"/><g id="s"><use transform="matrix(0.06172839506172839,0,0,0.06172839506172839,0,0)" xlink:href="#ag"/><use transform="matrix(0.06172839506172839,0,0,0.06172839506172839,6.172839506172839,0)" xlink:href="#aD"/><use transform="matrix(0.06172839506172839,0,0,0.06172839506172839,18.51851851851852,0)" xlink:href="#N"/><use transform="matrix(0.06172839506172839,0,0,0.06172839506172839,30.864197530864196,0)" xlink:href="#R"/><use transform="matrix(0.06172839506172839,0,0,0.06172839506172839,37.03703703703704,0)" xlink:href="#O"/><use transform="matrix(0.06172839506172839,0,0,0.06172839506172839,49.382716049382715,0)" xlink:href="#T"/><use transform="matrix(0.06172839506172839,0,0,0.06172839506172839,56.72839506172839,0)" xlink:href="#X"/><use transform="matrix(0.06172839506172839,0,0,0.06172839506172839,69.07407407407408,0)" xlink:href="#ah"/></g></defs></g></svg>