<svg xmlns="http://www.w3.org/2000/svg" xmlns:xlink="http://www.w3.org/1999/xlink" xmlns:lucid="lucid" width="1122" height="1922"><g transform="translate(-638.9999999872432 321.00000000554957)" lucid:page-tab-id="0_0"><path d="M500-500h1500v2500H500z" fill="#fff"/><path d="M640-314a6 6 0 0 1 6-6h708a6 6 0 0 1 6 6V-6a6 6 0 0 1-6 6H646a6 6 0 0 1-6-6z" fill="#fff" fill-opacity="0"/><path d="M665.67-320h19.66m9.84 0h19.66m9.84 0h19.66m9.84 0h19.66m9.84 0h19.66m9.84 0h19.66m9.84 0h19.66m9.84 0h19.66m9.84 0h19.66m9.84 0h19.66m9.84 0h19.66m9.84 0h19.66m9.84 0h19.66m9.84 0h19.66m9.84 0h19.66m9.84 0h19.66m9.84 0h19.66m9.84 0h19.66m9.84 0h19.66m9.84 0h19.66m9.84 0h19.66m9.84 0h19.66m9.84 0h19.66m9.84 0h9.83l.94.07.9.22.88.35.8.5.72.6.6.72.5.8.37.88.23.9.07.95v10.27m0 10.26v20.54m0 10.26v20.54m0 10.26v20.54m0 10.26v20.54m0 10.26v20.54m0 10.26v20.54m0 10.26v20.54m0 10.26v20.54m0 10.26v20.54m0 10.26V-6l-.07.94-.22.9-.35.88-.5.8-.6.72-.72.6-.8.5-.88.37-.9.23-.95.07h-9.83m-9.84 0h-19.66m-9.84 0h-19.66m-9.84 0h-19.66m-9.84 0h-19.66m-9.84 0h-19.66m-9.84 0h-19.66m-9.84 0h-19.66m-9.84 0h-19.66m-9.84 0h-19.66m-9.84 0h-19.66m-9.84 0h-19.66m-9.84 0h-19.66m-9.84 0h-19.66m-9.84 0h-19.66m-9.84 0h-19.66m-9.84 0h-19.66m-9.84 0h-19.66m-9.84 0h-19.66m-9.84 0h-19.66m-9.84 0h-19.66m-9.84 0h-19.66m-9.84 0h-19.66m-9.84 0h-19.66m-9.84 0H646l-.94-.07-.9-.22-.88-.35-.8-.5-.72-.6-.6-.72-.5-.8-.37-.88-.23-.9L640-6v-10.27m0-10.26v-20.54m0-10.26v-20.54m0-10.26v-20.54m0-10.26v-20.54m0-10.26v-20.54m0-10.26v-20.54m0-10.26v-20.54m0-10.26v-20.54m0-10.26v-20.54m0-10.26V-314l.07-.94.22-.9.35-.88.5-.8.6-.72.72-.6.8-.5.88-.37.9-.23.95-.07h9.83" stroke="#0e76d4" stroke-width="2" fill="none"/><path d="M640-320h56v56h-56v-56z" stroke="#000" stroke-opacity="0" fill-opacity="0"/><path d="M668.05-294.4c-.07 0-.12-.03-.2-.07l-11.77-6.78c-.1-.08-.17-.2-.17-.32 0-.13.1-.24.18-.3l11.7-6.75c.12-.06.25-.06.37 0l11.77 6.8c.1.05.17.18.17.3 0 .14-.1.25-.18.3l-11.7 6.75c-.05.04-.12.06-.17.06z" stroke="#000" stroke-opacity="0" fill="#3999c6"/><path d="M666.35-277.9c-.06 0-.13-.02-.2-.05l-11.7-6.78c-.13-.06-.2-.17-.2-.3v-13.6c0-.1.07-.24.2-.3.1-.07.23-.07.34 0l11.72 6.78c.1.07.18.17.18.3v13.6c0 .12-.07.24-.18.3-.06.03-.1.05-.17.05zM669.67-277.9c-.06 0-.13-.02-.2-.05-.1-.06-.16-.18-.16-.3v-13.5c0-.13.07-.25.18-.32l11.73-6.77c.12-.07.26-.07.37 0 .1.06.18.2.18.3v13.5c0 .15-.07.25-.18.32l-11.73 6.78c-.05.02-.1.04-.17.04z" stroke="#000" stroke-opacity="0" fill="#59b4d9"/><path d="M669.67-277.9c-.06 0-.13-.02-.2-.05-.1-.06-.16-.18-.16-.3v-13.5c0-.13.07-.25.18-.32l11.73-6.77c.12-.07.26-.07.37 0 .1.06.18.2.18.3v13.5c0 .15-.07.25-.18.32l-11.73 6.78c-.05.02-.1.04-.17.04z" stroke="#000" stroke-opacity="0" fill="#fff" fill-opacity="0"/><path d="M655.65-276.4c-.2 0-.4-.06-.58-.15l-5.48-3.17c-.93-.5-1.6-1.67-1.6-2.74v-20.14c0-1.06.67-2.22 1.6-2.74l5.47-3.16c.55-.33 1.27-.13 1.58.42.33.54.13 1.25-.42 1.58l-5.48 3.16c-.2.13-.42.52-.42.74v20.14c0 .23.22.6.42.74l5.48 3.17c.55.32.75 1.03.42 1.58-.2.38-.6.58-1 .58zM680.35-308.67c.2 0 .4.07.58.17l5.48 3.16c.93.5 1.6 1.68 1.6 2.74v20.14c0 1.06-.67 2.23-1.6 2.74l-5.47 3.17c-.55.32-1.27.12-1.58-.43-.33-.54-.13-1.25.42-1.58l5.48-3.16c.2-.13.42-.5.42-.74v-20.14c0-.22-.22-.6-.42-.74l-5.48-3.16c-.55-.33-.75-1.04-.42-1.6.2-.37.6-.57 1-.57z" stroke="#000" stroke-opacity="0" fill="#7a7a7a"/><path d="M640 86a6 6 0 0 1 6-6h1108a6 6 0 0 1 6 6v1508a6 6 0 0 1-6 6H646a6 6 0 0 1-6-6z" stroke="#3a414a" stroke-width="2" fill-opacity="0"/><path d="M720 166a6 6 0 0 1 6-6h308a6 6 0 0 1 6 6v1348a6 6 0 0 1-6 6H726a6 6 0 0 1-6-6zM1360 166a6 6 0 0 1 6-6h308a6 6 0 0 1 6 6v1348a6 6 0 0 1-6 6h-308a6 6 0 0 1-6-6z" stroke="#3a414a" stroke-width="2" fill-opacity="0"/><path d="M880 963.62V800.4" stroke="#3a414a" fill="none"/><path d="M880 978.38l-4.63-14.26h9.26z" stroke="#3a414a" fill="#3a414a"/><path d="M880.36 800l.12-.03v.44h-.96v-.65z" stroke="#3a414a" stroke-width=".05" fill="#3a414a"/><path d="M880 1203.62V1100.5" stroke="#3a414a" fill="none"/><path d="M880 1218.38l-4.63-14.26h9.26z" stroke="#3a414a" fill="#3a414a"/><path d="M880.48 1100.5h-.96v-.5h.96z" stroke="#3a414a" stroke-width=".05" fill="#3a414a"/><path d="M1520 963.62V800.4" stroke="#3a414a" fill="none"/><path d="M1520 978.38l-4.63-14.26h9.27z" stroke="#3a414a" fill="#3a414a"/><path d="M1520.36 800l.12-.03v.44h-.95v-.65z" stroke="#3a414a" stroke-width=".05" fill="#3a414a"/><path d="M1520 1203.62V1100.5" stroke="#3a414a" fill="none"/><path d="M1520 1218.38l-4.63-14.26h9.27z" stroke="#3a414a" fill="#3a414a"/><path d="M1520.47 1100.5h-.94v-.5h.94z" stroke="#3a414a" stroke-width=".05" fill="#3a414a"/><path d="M1520 623.62V480.35" stroke="#3a414a" fill="none"/><path d="M1520 638.38l-4.63-14.26h9.27z" stroke="#3a414a" fill="#3a414a"/><path d="M1520.16 480l.3-.3v.66h-.93v-.96z" stroke="#3a414a" stroke-width=".05" fill="#3a414a"/><path d="M700-260h200v200H700z" fill-opacity="0"/><path d="M800-260c-55.2 0-100 44.8-100 100S744.8-60 800-60s100-44.8 100-100-44.8-100-100-100zm0 186.4c-47.6 0-86.4-38.8-86.4-86.4 0-47.6 38.8-86.4 86.4-86.4 47.6 0 86.4 38.8 86.4 86.4 0 47.6-38.8 86.4-86.4 86.4z" fill="url(#a)"/><path d="M886.44-159.96c0 47.7-38.7 86.4-86.4 86.4s-86.4-38.7-86.4-86.4 38.7-86.4 86.4-86.4 86.4 38.7 86.4 86.4z" fill="#fff"/><path d="M852.08-179.65c8.43-8.44 8.43-22.13 0-30.57l-36.97-37.15c-8.4-8.25-22-8.25-30.4 0l-36.98 37.15c-8.43 8.44-8.43 22.13 0 30.57l30.77 31.33c1.16 1.13 1.74 2.63 1.74 4.32v57.4c0 1.88.7 3.76 2.1 5.07l14.17 14.07c1.88 2.06 4.92 2.06 6.8 0l13.68-13.5 7.96-8.08c1.05-1.12 1.05-2.8 0-3.93l-5.74-5.82c-1.17-1.12-1.17-3.18 0-4.3l5.74-5.82c1.05-1.13 1.05-2.8 0-3.94l-5.74-5.82c-1.17-1.12-1.17-3 0-4.3l5.74-5.83c1.05-1.13 1.05-2.82 0-3.95l-7.96-8.06v-3zm-52.18-58.53c6.67 0 12.17 5.44 12.17 12.2 0 6.56-5.5 12-12.17 12s-12.17-5.44-12.17-12c0-6.76 5.5-12.2 12.17-12.2z" fill="url(#b)"/><path d="M790.43-86.03c.5.42 1.06.63 1.7.63 1.5.05 2.74-1.15 2.77-2.67v-46.95c0-1-.47-1.84-1.3-2.36-.5-.3-1-.47-1.6-.42-1.42.1-2.5 1.36-2.4 2.78v46.95c.05.78.32 1.4.83 2.04zM773.68-197.8h54.24c2.2 0 3.28 1.1 3.28 3.3v.58c0 2.2-1.1 3.3-3.28 3.3h-54.24c-2.2 0-3.28-1.1-3.28-3.3v-.58c0-2.2 1.1-3.3 3.28-3.3zM773.68-186.2h54.24c2.2 0 3.28 1.1 3.28 3.3v.58c0 2.2-1.1 3.3-3.28 3.3h-54.24c-2.2 0-3.28-1.1-3.28-3.3v-.58c0-2.2 1.1-3.3 3.28-3.3z" fill="#ff9300" fill-opacity=".75"/><path d="M1100-260h200v200h-200z" fill-opacity="0"/><path d="M1261.6-81C1217.8-47.2 1155-55 1121-98.8c-33.8-43.8-26-106.6 17.8-140.6l1-.6c44.4-33.2 107.2-24 140.2 20.2 32.6 43.8 24.4 105.2-18.4 138.8" fill="url(#c)"/><path d="M1172.97-181.02c29.53-28.12 64.25-42.1 105.03-42.2-5.44-6.7-10.65-11.8-17.55-17-20.08 1.24-36.9 5.15-55.3 12.97-19.1 8.16-33.75 18.35-48.15 33.26 6.9 2.62 11.98 6.76 15.97 12.98zM1123.4-140.8c-4.27 10.57-7.2 19.8-9.8 30.88 2.3 4 4.5 7.2 7.34 10.86 2.13 2.72 4.13 5.2 6.5 7.66 3-14.77 6.83-27.02 12.76-40.9-6.6-1.2-11.94-3.86-16.8-8.5z" fill="#fff" fill-opacity=".6"/><path d="M1134.82-194.3c-4.37-11.78-6.8-22.22-8.1-34.7-5.2 5.47-9.06 10.62-12.9 17.13 1.4 10.03 3.4 18.44 6.68 28.07 3.86-5.02 8.38-8.36 14.32-10.5z" fill="#f2f2f2" fill-opacity=".55"/><path d="M1178-164c0 17.77-14.43 32.2-32.2 32.2-17.77 0-32.2-14.43-32.2-32.2 0-17.77 14.43-32.2 32.2-32.2 17.77 0 32.2 14.43 32.2 32.2z" fill="url(#d)"/><path d="M1192.65-105.1c0-5.9 2.13-10.88 6.35-14.96-11.47-6.3-20.43-12.87-29.82-21.94-4.88 5.27-10.52 8.4-17.58 9.78 5.6 5.74 10.7 10.22 17.1 15.1 7.97 6 15.18 10.4 24.18 14.72-.14-.95-.23-1.74-.23-2.7zM1266.97-102.63c-11.53.02-21.33-1.13-32.53-3.77.05.46.05.84 0 1.3 0 5.7-2 10.57-6.04 14.6 13.98 2.78 26.1 3.63 40.37 2.83 5.5-4.98 9.73-9.72 14.03-15.78-5.55.6-10.23.85-15.83.82z" fill="#f2f2f2" fill-opacity=".55"/><path d="M1234.6-105.2c0 11.6-9.4 21-21 21s-21-9.4-21-21 9.4-21 21-21 21 9.4 21 21z" fill="url(#e)"/><path d="M1239.4-161c1.06-4.84 3.37-8.65 7.2-11.78-20.47-14.9-36.22-29.54-52.6-48.83-9.52-11.13-16.55-21.48-23.58-34.4-4.63 1.43-8.46 2.85-12.82 4.94 7.48 14.06 15.04 25.27 25.37 37.53 17.44 20.8 34.44 36.57 56.42 52.53z" fill="#f2f2f2" fill-opacity=".7"/><path d="M1283.6-156.9c0 12.3-10 22.3-22.3 22.3s-22.3-10-22.3-22.3 10-22.3 22.3-22.3 22.3 10 22.3 22.3z" fill="url(#f)"/><path d="M1298.6-142.07l-4.12-2-3.53-1.9h-.7l-3.05-2.48h-.84l-3.63-2.35c-1.33 4.54-3.74 8.04-7.53 10.87 1.4.92 2.95 1.77 4.47 2.6l.93.57 4.12 2.25 10.1 5.3c1.5-4.5 2.54-8.42 3.43-13.1z" fill="#f2f2f2" fill-opacity=".55"/><path d="M1178-164c0 17.77-14.43 32.2-32.2 32.2-17.77 0-32.2-14.43-32.2-32.2 0-17.77 14.43-32.2 32.2-32.2 17.77 0 32.2 14.43 32.2 32.2z" fill="url(#g)"/><path d="M1234.6-105.2c0 11.6-9.4 21-21 21s-21-9.4-21-21 9.4-21 21-21 21 9.4 21 21z" fill="url(#h)"/><path d="M1099.5-160H916.38" stroke="#3a414a" fill="none"/><path d="M1100-159.53h-.5v-.94h.5z" stroke="#3a414a" stroke-width=".05" fill="#3a414a"/><path d="M901.62-160l14.26-4.63v9.26z" stroke="#3a414a" fill="#3a414a"/><path d="M1200-59.5V114a6 6 0 0 1-6 6H886a6 6 0 0 0-6 6v177.94" stroke="#3a414a" fill="none"/><path d="M1200.47-59.5h-.94v-.5h.94z" stroke="#3a414a" stroke-width=".05" fill="#3a414a"/><path d="M880 318.7l-4.63-14.26h9.26z" stroke="#3a414a" fill="#3a414a"/><path d="M1200-59.5V114a6 6 0 0 0 6 6h308a6 6 0 0 1 6 6v177.94" stroke="#3a414a" fill="none"/><path d="M1200.47-59.5h-.94v-.5h.94z" stroke="#3a414a" stroke-width=".05" fill="#3a414a"/><path d="M1520 318.7l-4.63-14.26h9.27z" stroke="#3a414a" fill="#3a414a"/><path d="M981.06 1005.1a6 6 0 0 1 6-6h188a6 6 0 0 1 6 6v29.8a6 6 0 0 1-6 6h-188a6 6 0 0 1-6-6z" stroke="#3a414a" stroke-width="2" fill="#fff"/><use xlink:href="#i" transform="matrix(1,0,0,1,986.0625,1004.0909090909091) translate(26.42903645833333 23.52777777777778)"/><path d="M981.06 646a6 6 0 0 1 6-6h188a6 6 0 0 1 6 6v29.82a6 6 0 0 1-6 6h-188a6 6 0 0 1-6-6z" stroke="#3a414a" stroke-width="2" fill="#fff"/><use xlink:href="#j" transform="matrix(1,0,0,1,986.0625,645) translate(41.49522569444445 23.52777777777778)"/><path d="M981.06 706a6 6 0 0 1 6-6h188a6 6 0 0 1 6 6v29.82a6 6 0 0 1-6 6h-188a6 6 0 0 1-6-6z" stroke="#3a414a" stroke-width="2" fill="#fff"/><use xlink:href="#k" transform="matrix(1,0,0,1,986.0625,705) translate(27.421875 23.52777777777778)"/><path d="M1220.53 646a6 6 0 0 1 6-6h188a6 6 0 0 1 6 6v29.82a6 6 0 0 1-6 6h-188a6 6 0 0 1-6-6z" stroke="#3a414a" stroke-width="2" fill="#fff"/><use xlink:href="#j" transform="matrix(1,0,0,1,1225.53125,645) translate(41.49522569444445 23.52777777777778)"/><path d="M1220.53 706a6 6 0 0 1 6-6h188a6 6 0 0 1 6 6v29.82a6 6 0 0 1-6 6h-188a6 6 0 0 1-6-6z" stroke="#3a414a" stroke-width="2" fill="#fff"/><use xlink:href="#l" transform="matrix(1,0,0,1,1225.53125,705) translate(29.62456597222223 23.52777777777778)"/><path d="M1220.53 1005.1a6 6 0 0 1 6-6h188a6 6 0 0 1 6 6v29.8a6 6 0 0 1-6 6h-188a6 6 0 0 1-6-6z" stroke="#3a414a" stroke-width="2" fill="#fff"/><use xlink:href="#m" transform="matrix(1,0,0,1,1225.53125,1004.0909090909091) translate(26.163194444444457 23.52777777777778)"/><path d="M981.06 186a6 6 0 0 1 6-6h188a6 6 0 0 1 6 6v29.82a6 6 0 0 1-6 6h-188a6 6 0 0 1-6-6z" stroke="#3a414a" stroke-width="2" fill="#fff"/><use xlink:href="#n" transform="matrix(1,0,0,1,986.0625,185) translate(39.11892361111111 23.52777777777778)"/><path d="M1220.53 186a6 6 0 0 1 6-6h188a6 6 0 0 1 6 6v29.82a6 6 0 0 1-6 6h-188a6 6 0 0 1-6-6z" stroke="#3a414a" stroke-width="2" fill="#fff"/><use xlink:href="#o" transform="matrix(1,0,0,1,1225.53125,185) translate(42.005208333333336 23.52777777777778)"/><path d="M660 106a6 6 0 0 1 6-6h188a6 6 0 0 1 6 6v29.82a6 6 0 0 1-6 6H666a6 6 0 0 1-6-6z" stroke="#3a414a" stroke-width="2" fill="#fff"/><use xlink:href="#p" transform="matrix(1,0,0,1,665,105) translate(22.93511284722223 23.52777777777778)"/><path d="M740 1446a6 6 0 0 1 6-6h268a6 6 0 0 1 6 6v28a6 6 0 0 1-6 6H746a6 6 0 0 1-6-6z" fill="#fff"/><use xlink:href="#q" transform="matrix(1,0,0,1,745,1445) translate(13.304036458333329 23.40277777777778)"/><use xlink:href="#r" transform="matrix(1,0,0,1,745,1445) translate(142.4924045138889 23.40277777777778)"/><path d="M1380 1446a6 6 0 0 1 6-6h268a6 6 0 0 1 6 6v28a6 6 0 0 1-6 6h-268a6 6 0 0 1-6-6z" fill="#fff"/><use xlink:href="#s" transform="matrix(1,0,0,1,1385,1445) translate(15.810546875 23.40277777777778)"/><use xlink:href="#r" transform="matrix(1,0,0,1,1385,1445) translate(139.98589409722223 23.40277777777778)"/><path d="M863.52 461.92l5.92-5.28c-1.12-.16-2.4-.32-3.68-.64l-1.6-.32c-1.12-.32-2.08-.64-3.2-.96-.8-.16-1.28-.32-2.08-.64l-2.56-.96-2.56-.96-1.76-.8-3.2-1.6-1.12-.64c-1.28-.64-2.4-1.28-3.52-1.92l-1.76-1.28-1.76-1.12-1.6-1.28c-2.4-1.92-4.32-3.52-6.4-5.76l-1.44-1.44-1.28-1.6-1.28-1.6c-.8-.96-1.44-1.92-2.08-3.04l-.96-1.28c-.48-.8-.96-1.76-1.6-2.72-.48-.96-.64-1.12-.96-1.76-.16-.48-.8-1.44-1.12-2.24l-.96-2.4c-.16-.64-.32-1.12-.48-1.76-.48-1.12-.8-2.08-1.12-3.04l-.32-1.44c-.32-1.12-.64-2.4-.8-3.52l-.32-1.76c0-.8-.16-1.44-.32-2.08v-1.76h-15.52v-8.48h15.36v-1.76c0-.8.32-1.44.32-2.08l.32-1.92c0-1.12.48-2.24.96-3.52.32-1.12.16-.96.32-1.44l.96-2.88c.32-1.12.48-1.28.64-1.92.16-.64.64-1.6 1.12-2.4.32-.8.64-1.44 1.12-2.24.32-.8.64-1.28.96-1.92.32-.48.96-1.76 1.6-2.56l.8-1.44c.64-.96 1.28-1.92 2.08-2.88l1.28-1.6c.48-.48.8-1.12 1.28-1.6l1.44-1.6c2.08-2.08 4-3.68 6.4-5.44l1.6-1.44 1.92-1.12 1.6-1.12c1.12-.8 2.08-1.28 3.2-1.92l1.44-.8 3.04-1.44 1.92-.96c.8-.32 1.6-.64 2.56-.96l2.56-.96 1.76-.64 3.52-.96 1.6-.32 3.68-.8-5.92-5.28 16.8-15.2 16.8 15.2-5.92 5.28 3.68.8 1.6.32c1.12.32 2.24.64 3.2.96l2.24.64 2.56.96 2.56.96c.48.16.96.48 1.44.64l.48.32c.96.32 1.92.8 2.88 1.44l1.28.64 3.36 1.92 1.76 1.28 1.76 1.12 1.76 1.28c2.24 1.76 4.16 3.52 6.08 5.6l1.44 1.6c.48.48.96 1.12 1.44 1.6l1.28 1.6c.64.96 1.28 1.92 2.08 2.88l.8 1.28c.48.96 1.12 1.92 1.6 2.72l.96 1.76c.48.8.8 1.6 1.12 2.4l.96 2.4c.32.8.48 1.12.64 1.76.32.64.8 2.08 1.12 3.04l.32 1.44c.32 1.12.64 2.4.8 3.52l.32 1.76c.16.8.32 1.44.32 2.08v1.76h15.36v8.48h-15.36v1.76c0 .64-.16 1.28-.32 2.08l-.32 1.92c-.16 1.12-.48 2.24-.8 3.36l-.32 1.44c-.32.96-.64 1.92-.96 3.04-.32.64-.48 1.12-.8 1.76l-.96 2.4c-.32.8-.64 1.6-1.12 2.4l-.96 1.6c-.48 1.12-1.12 1.92-1.6 2.88l-.8 1.28c-.8.96-1.44 1.92-2.08 2.88l-1.28 1.6-1.44 1.6-1.44 1.6c-1.92 2.08-3.84 3.68-6.24 5.44l-1.6 1.44-1.76 1.12-1.76 1.12c-1.12.8-2.08 1.44-3.2 1.92l-1.44.8c-.96.48-1.92.96-3.04 1.44h-.32l-1.6.8-2.56.96-2.56.96-2.08.64c-.96.32-2.08.64-3.2.8l-1.6.48c-1.28.16-2.4.48-3.68.64l5.92 5.6-16.8 15.36zm21.44-.64l4.96-4.32h-.64c-.8.16-1.44.16-2.24.16h-1.92zm-9.28 0v-3.84h-1.92c-.8 0-1.44 0-2.24-.16h-.64zm11.2-118.56l2.24.32h.64l-4.8-4.32v3.68zm-16 .32h.64l2.24-.32 1.92-.32v-3.68z" stroke="#000" stroke-opacity="0" stroke-width="3.5" fill="#fff"/><path d="M880.32 325.28l6.08 5.6.32.16 7.52 6.88-3.68 3.36-4-3.68-3.84-3.52v10.24l3.84.32 2.88.32h1.28c1.12 0 2.4.48 3.68.8l1.44.32 3.2.8 1.92.64 2.56.96 2.72.96 1.92.96c.96.48 1.92.8 2.88 1.44l1.28.64c1.12.64 2.08 1.28 3.2 1.92l.96.64c.8.64 1.6 1.12 2.4 1.6 3.36 2.56 6.08 5.12 8.96 8.32.64.64 1.12 1.44 1.76 2.08l.8.96 1.92 2.88c.64.96.64.8.8 1.12.32.48 1.12 1.76 1.6 2.72.48.8.64 1.12.96 1.76.32.48.8 1.44 1.12 2.24.32.8.64 1.44.96 2.24.32.8.48 1.28.64 1.76.32.64.64 1.92.96 2.88l.32 1.44c.32 1.12.64 2.24.8 3.36v1.12c0 .32.32 1.76.48 2.72 0 1.12 0 2.24.32 3.36h15.36v4.64h-15.52c0 1.12 0 2.24-.16 3.36 0 .96-.32 1.92-.48 2.72-.16.96 0 .8 0 1.12-.32 1.12-.48 2.24-.8 3.36l-.32 1.44-.96 2.88c-.32.96-.48 1.12-.64 1.76l-1.12 2.24-.96 2.4-.96 1.6-1.6 2.72-.8 1.12c-.64.96-1.28 1.92-2.08 2.88l-.64.96c-.64.64-1.12 1.44-1.76 2.08-2.88 3.36-5.76 5.76-9.28 8.32-.8.64-1.6 1.12-2.4 1.76l-.96.64c-1.12.64-2.08 1.28-3.2 1.76l-1.28.8-2.88 1.44-1.92.8-2.56.96-2.4.96-2.08.64-3.04.8-1.6.32-3.52.8h-1.28l-3.04.32c-1.28 0-2.4.16-3.68.32v10.24l3.68-3.52 4.16-3.68 3.68 3.2-7.52 6.88-2.88 2.56-3.52 3.2-3.68-3.2-2.72-2.56-7.52-6.72 3.68-3.2 4 3.68 3.52 3.36v-10.08c-1.28 0-2.56-.16-3.68-.32l-3.04-.32h-1.12l-3.68-.8-1.6-.32-3.04-.8-2.08-.64-2.4-.96-2.56-.96-1.92-.8-2.88-1.44-1.28-.8c-1.12-.64-2.08-1.12-3.2-1.92l-.96-.64c-.8-.48-1.6-.96-2.4-1.6-3.36-2.56-6.08-4.96-8.96-8.16l-1.76-2.24c-.48-.8-.48-.48-.64-.96-.8-.8-1.44-1.76-2.08-2.72-.32-.48-.64-.8-.8-1.28-.32-.48-1.12-1.76-1.6-2.56l-.96-1.76c-.32-.8-.8-1.6-1.12-2.24l-.96-2.4c-.32-.64-.48-1.12-.64-1.76-.16-.64-.64-1.92-.96-2.88l-.32-1.44c-.32-1.12-.64-2.08-.8-3.36v-.96c0-.48-.32-1.92-.48-2.72 0-1.12 0-2.4-.32-3.52h-15.2v-4.8h15.36c0-1.12 0-2.24.16-3.36 0-.96.32-1.92.48-2.72.16-.96 0-.8 0-1.12.32-1.12.48-2.24.8-3.36l.32-1.44.96-2.88.64-1.76c.32-.8.64-1.6 1.12-2.24.32-.8.64-1.6.96-2.24.48-.8.64-1.28.96-1.76.32-.64.96-1.76 1.6-2.72.32-.32.64-.8 1.12-1.12.64-.96 1.28-1.92 2.08-2.88l.64-.96c.64-.64 1.12-1.44 1.76-2.08 2.88-3.2 5.6-5.76 8.96-8.32l2.4-1.6.96-.64c1.12-.64 2.08-1.28 3.2-1.92.48-.16.8-.48 1.28-.64l2.88-1.44 1.92-.96 2.56-.96 2.4-.8 2.08-.64 2.88-.96 1.6-.32c1.12-.16 2.4-.48 3.52-.64h1.28l2.88-.48 3.68-.32v-10.24l-3.68 3.52-4.16 3.84-3.52-3.36 7.68-6.88v-.16l6.24-5.6m0-5.28l-2.56 2.56-6.08 5.6h-.32l-7.68 7.04-2.88 2.56 2.88 2.72 1.76 1.44h-.48l-1.28.32-3.2.96H860l-1.92.48-2.72.96-2.56 1.28-1.76.8h-.32c-.96.48-2.08.96-3.04 1.6l-.96.48-.48.32-3.36 1.92c-.16.16-.32.32-.64.48l-.32.32-.64.32-1.92 1.28-3.52 2.56c-1.12.96-2.24 1.92-3.2 3.04l-3.04 3.2-1.28 1.6-.48.8-.16.32-.64.64c-.8 1.12-1.44 2.08-2.08 3.04v.32l-.8 1.12c-.48.8-.96 1.76-1.6 2.72l-.96 1.92c-.32.48-.8 1.6-1.12 2.24-.48.8-.8 1.76-1.12 2.56-.32.8-.32 1.12-.64 1.76v.16c-.32.96-.64 2.08-.96 3.04 0 .32 0 .8-.32 1.12v.32c-.32 1.28-.64 2.4-.8 3.84V391.84c0 .64-.32 1.44-.32 2.08H800v12h15.52c0 .64.32 1.44.32 2.08v.8l.48.8v.8c.16 1.28.48 2.4.8 3.68v.48c0 .32 0 .64.32 1.12.32.96.64 2.08.96 3.04l.64 1.76c.48.8.8 1.6 1.12 2.4.32.8.8 1.76 1.12 2.4l.96 1.76c.64 1.12 1.12 2.08 1.76 2.88l.64.96.16.48c.8.96 1.44 1.92 2.24 3.04l.48.64.32.32.48.48c.48.64.8 1.28 1.28 1.76l2.88 3.2c1.12 1.12 2.24 2.08 3.36 3.04l3.36 2.56 1.92 1.28.64.48.32.32.64.48 3.36 1.92.48.16.96.64c1.12.48 2.08.96 3.2 1.44h.16l1.76.8 2.72 1.12 2.56.96 1.92.64h.32c1.12.32 2.24.64 3.36.8l1.12.32h.48l-1.76 1.6-2.88 2.72 2.88 2.56 7.52 6.88 2.88 2.56 3.52 3.2 2.88 2.72 2.88-2.72 3.68-3.2 2.72-2.56 7.52-6.88 2.88-2.56-2.88-2.72-1.76-1.6h.32l1.28-.32c1.12-.16 2.24-.48 3.36-.8l2.08-.64 2.72-.96c.96-.32 1.76-.8 2.72-1.12.8-.32 1.12-.48 1.76-.8h.16c.96-.48 2.08-.96 3.04-1.44l1.44-.96h.32l3.36-1.92.64-.48.48-.32.64-.32 1.76-1.28 3.52-2.56c1.12-1.12 2.24-2.08 3.2-3.04l3.04-3.2c.48-.64.96-1.12 1.44-1.76l.32-.48.32-.32.48-.8c.8-.96 1.44-1.92 2.24-2.88v-.48l.64-.96c.64-.8 1.12-1.92 1.6-2.72.64-.96.8-1.28.96-1.92.32-.48.96-1.6 1.28-2.4l.96-2.4c.32-.8.48-1.28.64-1.76v-.32c.48-.96.8-1.92.96-2.88 0-.48 0-.8.48-1.12v-.48c.32-1.12.48-2.4.8-3.52V408.48c0-.8.16-1.44.32-2.08H960v-12.48h-14.88c0-.8-.32-1.44-.48-2.08V389.92c0-1.28-.48-2.4-.8-3.84v-.32c0-.48 0-.8-.16-1.12-.32-1.12-.64-2.08-1.12-3.04v-.16c-.16-.64-.32-1.28-.64-1.76-.16-.64-.64-1.76-.96-2.56-.48-.64-.8-1.6-1.12-2.4-.48-.8-.64-1.12-.96-1.6-.64-1.12-1.12-2.08-1.76-3.04l-.64-.96-.16-.32c-.8-.96-1.44-2.08-2.24-3.04l-.48-.64-.8-.32-.48-.64c-.48-.48-.96-1.12-1.44-1.6l-2.88-3.2c-.96-1.12-2.08-2.08-3.2-3.04l-3.52-2.72-1.92-1.28-.64-.48h-.16l-.8-.48c-1.12-.8-2.24-1.44-3.36-1.92l-.32-.32-1.12-.64c-.96-.48-2.08-.96-3.04-1.44h-.16l-1.92-.96-2.72-.96-2.56-.96-1.92-.64h-.16l-3.36-1.12h-1.76l1.76-1.44 2.88-2.72-2.88-2.72-7.52-7.04h-.16l-6.24-5.76-2.88-2.72z" stroke="#000" stroke-opacity="0" stroke-width="3.5" fill="#fff"/><path d="M886.72 450.72v4.8c28.96-2.88 51.04-23.04 54.24-49.6h-5.12c-3.04 23.84-23.04 42.08-49.12 44.8zM824.8 405.92h-5.12c3.2 26.56 25.28 46.72 54.24 49.6v-4.8c-26.08-2.72-46.08-20.96-49.12-44.8zM935.84 394.24h5.12c-3.04-26.56-25.28-46.88-54.24-49.76v4.8c26.24 2.72 46.08 20.96 49.12 44.96zM873.92 349.28v-4.8c-28.96 2.88-51.04 23.2-54.24 49.76h5.12c3.04-24 23.04-42.24 49.12-44.96z" stroke="#000" stroke-opacity="0" stroke-width="3.5" fill="#2c5967"/><path d="M882.88 334.08l3.84 3.52 3.84 3.68 3.68-3.36-7.52-6.88-.32-.16-6.08-5.6-6.08 5.6-.32.16-7.52 6.88 3.68 3.36 3.84-3.68 3.84-3.52v131.68l-3.84-3.36-3.84-3.68-3.68 3.36 7.52 6.88 2.72 2.4 3.68 3.36 3.52-3.36 2.88-2.4 7.52-6.88-3.68-3.36-3.84 3.68-3.84 3.36V334.08z" stroke="#000" stroke-opacity="0" stroke-width="3.5" fill="#2c5967"/><path d="M892.8 397.6l3.84-3.36 3.84-3.68-3.52-3.2-7.52 6.88-6.4 5.76 6.4 5.76 7.52 6.88 3.52-3.2-3.84-3.68-3.84-3.36h63.84v-4.8H892.8zM867.84 402.4l-3.84 3.36-3.84 3.68 3.52 3.2 10.24-9.44 3.68-3.2-3.68-3.2-10.24-9.44-3.52 3.2 3.84 3.68 3.84 3.36h-63.68v4.8h63.68z" stroke="#000" stroke-opacity="0" stroke-width="3.5" fill="#2c5967"/><path d="M878.56 797.28c-28.92-10.88-42.6-29.92-49.32-44.32-7.44-16.32-7.44-29.92-7.44-30.72v-54.56l58.2-25.44 57.84 25.44v55.04c0 2.24-.84 53.76-56.04 74.56l-1.44.8-1.8-.8z" stroke="#000" stroke-opacity="0" fill="#fff"/><path d="M880 644.16l55.92 24.64v53.92c0 2.24-.72 52.32-54.84 72.8l-1.08.32-.72-.32c-28.56-10.72-41.88-29.28-48.12-43.36-7.08-15.52-7.44-29.12-7.44-29.44V668.8L880 644.16zm0-4.16l-1.44.8-56.28 24.64-2.28.8V722.72c0 .64 0 14.72 7.8 31.36 6.6 14.4 20.76 34.24 50.4 45.12l1.08.48 1.08.32 1.08-.32 1.2-.48c56.64-21.12 57.36-74.24 57.36-76.48V666.24l-2.28-1.28-56.28-24.16-1.44-.8z" stroke="#000" stroke-opacity="0" fill="#fff"/><path d="M880 644.16l-56.28 24.64v53.92c0 .32 0 13.92 7.44 29.44 6.24 14.08 19.92 32.64 48.12 43.36l1.08.32 1.08-.32c54.12-20.48 54.84-71.04 54.84-72.8V668.8L880 644.16zm50.4 78.56c0 1.76-.72 47.68-50.4 67.04-20.76-8-35.52-21.28-44.04-39.84-6.72-14.72-6.72-26.88-6.72-27.2v-50.08l50.76-22.4 50.4 22.4v50.08z" stroke="#000" stroke-opacity="0" fill="#2d5967"/><path d="M879.64 688.16h-33.72v5.6h33.72v-5.6zM914.08 685.44l-4.08-3.68-10.8 10.88-4.44-4.48-4.08 4.16 8.52 8.32 14.88-15.2zM879.64 715.84h-33.72v5.6h33.72v-5.6zM908.2 708.64l-5.64 6.08-5.88-6.08-3.72 4.16 5.52 5.76-5.52 5.6 3.72 4.16 5.88-5.6 5.64 5.6 3.6-4.16-5.52-5.6 5.52-5.76-3.6-4.16zM879.64 741.6h-33.72v5.76h33.72v-5.76zM914.08 738.88L910 735.2l-10.8 10.88-4.44-4.48-4.08 4.16 8.52 8.32 14.88-15.2z" stroke="#000" stroke-opacity="0" fill="#2d5967"/><path d="M894.64 1098.56v-3.6h-.24v3.6h-6.96v-3.6h-.24v3.6h-6.84v-3.6h-.24v3.6h-6.84v-3.6h-.24v3.6h-6.96v-3.6H847.6v3.6h-22.08v-75.36h-4.08v-6.96H826v-28.8c0-3.36 2.64-6 6-6h100.56c3.36 0 6 2.64 6 6v101.52c0 3.36-2.64 6-6 6h-31.2v3.6z" stroke="#000" stroke-opacity="0" stroke-width="3.57" fill="#fff"/><path d="M932.56 982.88c2.52 0 4.56 2.04 4.56 4.56v101.52c0 2.52-2.04 4.56-4.56 4.56h-32.52v3.6h-4.08v-3.6h-3v3.6h-4.08v-3.6h-3v3.6h-4.08v-3.6h-3.12v3.6h-3.96v-3.6h-3.12v3.6h-4.08v-3.6h-21.36v3.6h-19.2v-75.36h-4.08v-4.08h4.56v-30.24c0-2.52 2.04-4.56 4.56-4.56h100.56m0-2.88H832c-4.08 0-7.44 3.36-7.44 7.44v27.36H820v9.84h4.08V1100h24.96v-3.6h15.6v3.6h38.28v-3.6h29.64c4.08 0 7.44-3.36 7.44-7.44V987.44c0-4.08-3.36-7.44-7.44-7.44z" stroke="#000" stroke-opacity="0" stroke-width="3.57" fill="#fff"/><path d="M932.56 982.88H832c-2.52 0-4.56 2.04-4.56 4.56v26.64h4.08v-26.64c0-.24.24-.48.48-.48h100.56c.24 0 .48.24.48.48v101.52c0 .24-.24.48-.48.48h-19.32v4.08h19.32c2.52 0 4.56-2.04 4.56-4.56V987.44c0-2.52-2.04-4.56-4.56-4.56z" stroke="#000" stroke-opacity="0" stroke-width="3.57" fill="#2c5967"/><path d="M922.48 1053.56h-9.24v4.08h5.16v16.44h-5.16v4.08h9.24v-24.6zM842.68 998.24v15.84h4.08v-11.76h16.2v15.96h4.08v-20.04h-24.36zM870.04 998.24v20.04h4.08v-15.96h16.32v15.96h4.08v-20.04h-24.48zM921.88 998.24h-24.36v20.04h4.08v-15.96h16.2v16.44h-4.56v4.08h8.64v-24.6zM921.88 1025.96h-8.64v4.08h4.56v16.32h-4.56v4.2h8.64v-24.6zM834.04 1039.28h5.04v5.04h-5.04v-5.04zM834.04 1067.96h5.04v5.04h-5.04v-5.04z" stroke="#000" stroke-opacity="0" stroke-width="3.57" fill="#2c5967"/><path d="M909.76 1021.76h-63.6v-4.08h-23.28v4.08h3.96v75.36h19.32v-4.08h7.2v-3.12h14.16v7.2h4.08v-7.2h3.12v7.2h3.96v-7.2h3.12v7.2h4.08v-7.2h3v7.2h4.08v-7.2h3v7.2h4.08v-7.2h9.72zm-15.24 4.2h11.16v60h-56.4v3h-3.12v-63h48.24zm-63.6-4.2h11.4v71.28h-11.4z" stroke="#000" stroke-opacity="0" stroke-width="3.57" fill="#2c5967"/><path d="M849.28 1028.96v25.08h4.08v4.2h-4.08v24.6h26.4v-16.44h3v16.44h24.48v-13.44h-8.76c-.36-.6-.84-1.08-1.44-1.44-1.92-1.2-4.44-.48-5.52 1.44-1.2 2.04-.48 4.56 1.44 5.64 1.92 1.2 4.44.48 5.52-1.44h4.68v5.04h-16.32v-16.32h-7.08v-4.08h-4.08v-4.2h7.08v-18.84h2.88v21.96h6.84v2.04h14.76v-8.16H888.4v2.04h-2.76v-7.2h2.76v2.04h14.76v-8.16H888.4v2.04h-2.76v-6.6h2.76v1.92h14.76v-8.16H888.4v2.04h-9.72v-2.04zm8.16 25.08h3v4.2h-3zm14.16 24.6h-18.24v-16.32h18.24zm-4.08-20.4h-3v-4.2h3zm7.08-25.2v16.92h-21.24v-16.92z" stroke="#000" stroke-opacity="0" stroke-width="3.57" fill="#2c5967"/><path d="M810.24 1378.08c-4.64 0-8.32-3.68-8.32-8.32v-139.52c0-4.64 3.68-8.32 8.32-8.32h139.68c4.48 0 8.16 3.68 8.16 8.32v139.68c0 4.48-3.68 8.16-8.16 8.16H810.24z" stroke="#000" stroke-opacity="0" stroke-width="3.57" fill="#fff"/><path d="M949.76 1223.84c3.52 0 6.4 2.88 6.4 6.4v139.68c0 3.52-2.88 6.24-6.4 6.24H810.24c-3.52 0-6.4-2.88-6.4-6.4v-139.52c0-3.52 2.88-6.4 6.4-6.4h139.52m0-3.84H810.24c-5.6 0-10.24 4.64-10.24 10.24v139.68c0 5.44 4.64 10.08 10.24 10.08h139.68c5.44 0 10.08-4.64 10.08-10.24v-139.52c0-5.6-4.64-10.24-10.24-10.24z" stroke="#000" stroke-opacity="0" stroke-width="3.57" fill="#fff"/><path d="M949.76 1223.84H810.24c-3.52 0-6.4 2.88-6.4 6.4v139.68c0 3.36 2.88 6.24 6.4 6.24h139.68c3.52 0 6.24-2.88 6.24-6.4v-139.52c0-3.52-2.88-6.4-6.4-6.4zm.8 145.92c0 .48-.32.8-.8.8H810.24c-.48 0-.8-.32-.8-.8v-139.52c0-.48.32-.8.8-.8h139.68c.32 0 .64.32.64.8v139.52z" stroke="#000" stroke-opacity="0" stroke-width="3.57" fill="#2c5967"/><path d="M824.96 1355.04h110.72v-33.92H824.96v33.92zm5.6-28.16h99.52v22.56h-99.52v-22.56z" stroke="#000" stroke-opacity="0" stroke-width="3.57" fill="#2c5967"/><path d="M921.6 1338.08c0 2.4-1.92 4.32-4.16 4.32-2.4 0-4.32-1.92-4.32-4.32 0-2.4 1.92-4.16 4.32-4.16 2.24 0 4.16 1.76 4.16 4.16zM858.88 1244.96h-33.92v33.92h33.92v-33.92zm-5.76 28.16h-22.56v-22.56h22.72v22.56zM896.96 1244.96h-33.92v33.92h33.92v-33.92zm-5.76 28.16h-22.56v-22.56h22.56v22.56zM858.88 1283.04h-33.92v33.92h33.92v-33.92zm-5.76 28.16h-22.56v-22.56h22.72v22.56zM896.96 1283.04h-33.92v33.92h33.92v-33.92zm-5.76 28.16h-22.56v-22.56h22.56v22.56zM935.04 1244.96h-33.92v33.92h33.92v-33.92zm-5.6 28.16h-22.72v-22.56h22.72v22.56zM935.04 1283.04h-33.92v33.92h33.92v-33.92zm-5.6 28.16h-22.72v-22.56h22.72v22.56z" stroke="#000" stroke-opacity="0" stroke-width="3.57" fill="#2c5967"/><path d="M1518.56 797.28c-28.92-10.88-42.6-29.92-49.32-44.32-7.44-16.32-7.44-29.92-7.44-30.72v-54.56l58.2-25.44 57.84 25.44v55.04c0 2.24-.84 53.76-56.04 74.56l-1.44.8-1.8-.8z" stroke="#000" stroke-opacity="0" fill="#fff"/><path d="M1520 644.16l55.92 24.64v53.92c0 2.24-.72 52.32-54.84 72.8l-1.08.32-.72-.32c-28.56-10.72-41.88-29.28-48.12-43.36-7.08-15.52-7.44-29.12-7.44-29.44V668.8l56.28-24.64zm0-4.16l-1.44.8-56.28 24.64-2.28.8V722.72c0 .64 0 14.72 7.8 31.36 6.6 14.4 20.76 34.24 50.4 45.12l1.08.48 1.08.32 1.08-.32 1.2-.48c56.64-21.12 57.36-74.24 57.36-76.48V666.24l-2.28-1.28-56.28-24.16-1.44-.8z" stroke="#000" stroke-opacity="0" fill="#fff"/><path d="M1520 644.16l-56.28 24.64v53.92c0 .32 0 13.92 7.44 29.44 6.24 14.08 19.92 32.64 48.12 43.36l1.08.32 1.08-.32c54.12-20.48 54.84-71.04 54.84-72.8V668.8L1520 644.16zm50.4 78.56c0 1.76-.72 47.68-50.4 67.04-20.76-8-35.52-21.28-44.04-39.84-6.72-14.72-6.72-26.88-6.72-27.2v-50.08l50.76-22.4 50.4 22.4v50.08z" stroke="#000" stroke-opacity="0" fill="#2d5967"/><path d="M1519.64 688.16h-33.72v5.6h33.72v-5.6zM1554.08 685.44l-4.08-3.68-10.8 10.88-4.44-4.48-4.08 4.16 8.52 8.32 14.88-15.2zM1519.64 715.84h-33.72v5.6h33.72v-5.6zM1548.2 708.64l-5.64 6.08-5.88-6.08-3.72 4.16 5.52 5.76-5.52 5.6 3.72 4.16 5.88-5.6 5.64 5.6 3.6-4.16-5.52-5.6 5.52-5.76-3.6-4.16zM1519.64 741.6h-33.72v5.76h33.72v-5.76zM1554.08 738.88l-4.08-3.68-10.8 10.88-4.44-4.48-4.08 4.16 8.52 8.32 14.88-15.2z" stroke="#000" stroke-opacity="0" fill="#2d5967"/><path d="M880 480.35V623.62" stroke="#3a414a" fill="none"/><path d="M880.16 480l.32-.3v.66h-.96v-.96z" stroke="#3a414a" stroke-width=".05" fill="#3a414a"/><path d="M880 638.38l-4.63-14.26h9.26z" stroke="#3a414a" fill="#3a414a"/><path d="M1503.52 461.92l5.92-5.28c-1.12-.16-2.4-.32-3.68-.64l-1.6-.32c-1.12-.32-2.08-.64-3.2-.96-.8-.16-1.28-.32-2.08-.64l-2.56-.96-2.56-.96-1.76-.8-3.2-1.6-1.12-.64c-1.28-.64-2.4-1.28-3.52-1.92l-1.76-1.28-1.76-1.12-1.6-1.28c-2.4-1.92-4.32-3.52-6.4-5.76l-1.44-1.44-1.28-1.6-1.28-1.6c-.8-.96-1.44-1.92-2.08-3.04l-.96-1.28c-.48-.8-.96-1.76-1.6-2.72-.48-.96-.64-1.12-.96-1.76-.16-.48-.8-1.44-1.12-2.24l-.96-2.4c-.16-.64-.32-1.12-.48-1.76-.48-1.12-.8-2.08-1.12-3.04l-.32-1.44c-.32-1.12-.64-2.4-.8-3.52l-.32-1.76c0-.8-.16-1.44-.32-2.08v-1.76h-15.52v-8.48h15.36v-1.76c0-.8.32-1.44.32-2.08l.32-1.92c0-1.12.48-2.24.96-3.52.32-1.12.16-.96.32-1.44l.96-2.88c.32-1.12.48-1.28.64-1.92.16-.64.64-1.6 1.12-2.4.32-.8.64-1.44 1.12-2.24.32-.8.64-1.28.96-1.92.32-.48.96-1.76 1.6-2.56l.8-1.44c.64-.96 1.28-1.92 2.08-2.88l1.28-1.6c.48-.48.8-1.12 1.28-1.6l1.44-1.6c2.08-2.08 4-3.68 6.4-5.44l1.6-1.44 1.92-1.12 1.6-1.12c1.12-.8 2.08-1.28 3.2-1.92l1.44-.8 3.04-1.44 1.92-.96c.8-.32 1.6-.64 2.56-.96l2.56-.96 1.76-.64 3.52-.96 1.6-.32 3.68-.8-5.92-5.28 16.8-15.2 16.8 15.2-5.92 5.28 3.68.8 1.6.32c1.12.32 2.24.64 3.2.96l2.24.64 2.56.96 2.56.96c.48.16.96.48 1.44.64l.48.32c.96.32 1.92.8 2.88 1.44l1.28.64 3.36 1.92 1.76 1.28 1.76 1.12 1.76 1.28c2.24 1.76 4.16 3.52 6.08 5.6l1.44 1.6c.48.48.96 1.12 1.44 1.6l1.28 1.6c.64.96 1.28 1.92 2.08 2.88l.8 1.28c.48.96 1.12 1.92 1.6 2.72l.96 1.76c.48.8.8 1.6 1.12 2.4l.96 2.4c.32.8.48 1.12.64 1.76.32.64.8 2.08 1.12 3.04l.32 1.44c.32 1.12.64 2.4.8 3.52l.32 1.76c.16.8.32 1.44.32 2.08v1.76h15.36v8.48h-15.36v1.76c0 .64-.16 1.28-.32 2.08l-.32 1.92c-.16 1.12-.48 2.24-.8 3.36l-.32 1.44c-.32.96-.64 1.92-.96 3.04-.32.64-.48 1.12-.8 1.76l-.96 2.4c-.32.8-.64 1.6-1.12 2.4l-.96 1.6c-.48 1.12-1.12 1.92-1.6 2.88l-.8 1.28c-.8.96-1.44 1.92-2.08 2.88l-1.28 1.6-1.44 1.6-1.44 1.6c-1.92 2.08-3.84 3.68-6.24 5.44l-1.6 1.44-1.76 1.12-1.76 1.12c-1.12.8-2.08 1.44-3.2 1.92l-1.44.8c-.96.48-1.92.96-3.04 1.44h-.32l-1.6.8-2.56.96-2.56.96-2.08.64c-.96.32-2.08.64-3.2.8l-1.6.48c-1.28.16-2.4.48-3.68.64l5.92 5.6-16.8 15.36zm21.44-.64l4.96-4.32h-.64c-.8.16-1.44.16-2.24.16h-1.92zm-9.28 0v-3.84h-1.92c-.8 0-1.44 0-2.24-.16h-.64zm11.2-118.56l2.24.32h.64l-4.8-4.32v3.68zm-16 .32h.64l2.24-.32 1.92-.32v-3.68z" stroke="#000" stroke-opacity="0" stroke-width="3.5" fill="#fff"/><path d="M1520.32 325.28l6.08 5.6.32.16 7.52 6.88-3.68 3.36-4-3.68-3.84-3.52v10.24l3.84.32 2.88.32h1.28c1.12 0 2.4.48 3.68.8l1.44.32 3.2.8 1.92.64 2.56.96 2.72.96 1.92.96c.96.48 1.92.8 2.88 1.44l1.28.64c1.12.64 2.08 1.28 3.2 1.92l.96.64c.8.64 1.6 1.12 2.4 1.6 3.36 2.56 6.08 5.12 8.96 8.32.64.64 1.12 1.44 1.76 2.08l.8.96 1.92 2.88c.64.96.64.8.8 1.12.32.48 1.12 1.76 1.6 2.72.48.8.64 1.12.96 1.76.32.48.8 1.44 1.12 2.24.32.8.64 1.44.96 2.24.32.8.48 1.28.64 1.76.32.64.64 1.92.96 2.88l.32 1.44c.32 1.12.64 2.24.8 3.36v1.12c0 .32.32 1.76.48 2.72 0 1.12 0 2.24.32 3.36h15.36v4.64h-15.52c0 1.12 0 2.24-.16 3.36 0 .96-.32 1.92-.48 2.72-.16.96 0 .8 0 1.12-.32 1.12-.48 2.24-.8 3.36l-.32 1.44-.96 2.88c-.32.96-.48 1.12-.64 1.76l-1.12 2.24-.96 2.4-.96 1.6-1.6 2.72-.8 1.12c-.64.96-1.28 1.92-2.08 2.88l-.64.96c-.64.64-1.12 1.44-1.76 2.08-2.88 3.36-5.76 5.76-9.28 8.32-.8.64-1.6 1.12-2.4 1.76l-.96.64c-1.12.64-2.08 1.28-3.2 1.76l-1.28.8-2.88 1.44-1.92.8-2.56.96-2.4.96-2.08.64-3.04.8-1.6.32-3.52.8h-1.28l-3.04.32c-1.28 0-2.4.16-3.68.32v10.24l3.68-3.52 4.16-3.68 3.68 3.2-7.52 6.88-2.88 2.56-3.52 3.2-3.68-3.2-2.72-2.56-7.52-6.72 3.68-3.2 4 3.68 3.52 3.36v-10.08c-1.28 0-2.56-.16-3.68-.32l-3.04-.32h-1.12l-3.68-.8-1.6-.32-3.04-.8-2.08-.64-2.4-.96-2.56-.96-1.92-.8-2.88-1.44-1.28-.8c-1.12-.64-2.08-1.12-3.2-1.92l-.96-.64c-.8-.48-1.6-.96-2.4-1.6-3.36-2.56-6.08-4.96-8.96-8.16l-1.76-2.24c-.48-.8-.48-.48-.64-.96-.8-.8-1.44-1.76-2.08-2.72-.32-.48-.64-.8-.8-1.28-.32-.48-1.12-1.76-1.6-2.56l-.96-1.76c-.32-.8-.8-1.6-1.12-2.24l-.96-2.4c-.32-.64-.48-1.12-.64-1.76-.16-.64-.64-1.92-.96-2.88l-.32-1.44c-.32-1.12-.64-2.08-.8-3.36v-.96c0-.48-.32-1.92-.48-2.72 0-1.12 0-2.4-.32-3.52h-15.2v-4.8h15.36c0-1.12 0-2.24.16-3.36 0-.96.32-1.92.48-2.72.16-.96 0-.8 0-1.12.32-1.12.48-2.24.8-3.36l.32-1.44.96-2.88.64-1.76c.32-.8.64-1.6 1.12-2.24.32-.8.64-1.6.96-2.24.48-.8.64-1.28.96-1.76.32-.64.96-1.76 1.6-2.72.32-.32.64-.8 1.12-1.12.64-.96 1.28-1.92 2.08-2.88l.64-.96c.64-.64 1.12-1.44 1.76-2.08 2.88-3.2 5.6-5.76 8.96-8.32l2.4-1.6.96-.64c1.12-.64 2.08-1.28 3.2-1.92.48-.16.8-.48 1.28-.64l2.88-1.44 1.92-.96 2.56-.96 2.4-.8 2.08-.64 2.88-.96 1.6-.32c1.12-.16 2.4-.48 3.52-.64h1.28l2.88-.48 3.68-.32v-10.24l-3.68 3.52-4.16 3.84-3.52-3.36 7.68-6.88v-.16l6.24-5.6m0-5.28l-2.56 2.56-6.08 5.6h-.32l-7.68 7.04-2.88 2.56 2.88 2.72 1.76 1.44h-.48l-1.28.32-3.2.96h-.32l-1.92.48-2.72.96-2.56 1.28-1.76.8h-.32c-.96.48-2.08.96-3.04 1.6l-.96.48-.48.32-3.36 1.92c-.16.16-.32.32-.64.48l-.32.32-.64.32-1.92 1.28-3.52 2.56c-1.12.96-2.24 1.92-3.2 3.04l-3.04 3.2-1.28 1.6-.48.8-.16.32-.64.64c-.8 1.12-1.44 2.08-2.08 3.04v.32l-.8 1.12c-.48.8-.96 1.76-1.6 2.72l-.96 1.92c-.32.48-.8 1.6-1.12 2.24-.48.8-.8 1.76-1.12 2.56-.32.8-.32 1.12-.64 1.76v.16c-.32.96-.64 2.08-.96 3.04 0 .32 0 .8-.32 1.12v.32c-.32 1.28-.64 2.4-.8 3.84V391.84c0 .64-.32 1.44-.32 2.08H1440v12h15.52c0 .64.32 1.44.32 2.08v.8l.48.8v.8c.16 1.28.48 2.4.8 3.68v.48c0 .32 0 .64.32 1.12.32.96.64 2.08.96 3.04l.64 1.76c.48.8.8 1.6 1.12 2.4.32.8.8 1.76 1.12 2.4l.96 1.76c.64 1.12 1.12 2.08 1.76 2.88l.64.96.16.48c.8.96 1.44 1.92 2.24 3.04l.48.64.32.32.48.48c.48.64.8 1.28 1.28 1.76l2.88 3.2c1.12 1.12 2.24 2.08 3.36 3.04l3.36 2.56 1.92 1.28.64.48.32.32.64.48 3.36 1.92.48.16.96.64c1.12.48 2.08.96 3.2 1.44h.16l1.76.8 2.72 1.12 2.56.96 1.92.64h.32c1.12.32 2.24.64 3.36.8l1.12.32h.48l-1.76 1.6-2.88 2.72 2.88 2.56 7.52 6.88 2.88 2.56 3.52 3.2 2.88 2.72 2.88-2.72 3.68-3.2 2.72-2.56 7.52-6.88 2.88-2.56-2.88-2.72-1.76-1.6h.32l1.28-.32c1.12-.16 2.24-.48 3.36-.8l2.08-.64 2.72-.96c.96-.32 1.76-.8 2.72-1.12.8-.32 1.12-.48 1.76-.8h.16c.96-.48 2.08-.96 3.04-1.44l1.44-.96h.32l3.36-1.92.64-.48.48-.32.64-.32 1.76-1.28 3.52-2.56c1.12-1.12 2.24-2.08 3.2-3.04l3.04-3.2c.48-.64.96-1.12 1.44-1.76l.32-.48.32-.32.48-.8c.8-.96 1.44-1.92 2.24-2.88v-.48l.64-.96c.64-.8 1.12-1.92 1.6-2.72.64-.96.8-1.28.96-1.92.32-.48.96-1.6 1.28-2.4l.96-2.4c.32-.8.48-1.28.64-1.76v-.32c.48-.96.8-1.92.96-2.88 0-.48 0-.8.48-1.12v-.48c.32-1.12.48-2.4.8-3.52V408.48c0-.8.16-1.44.32-2.08H1600v-12.48h-14.88c0-.8-.32-1.44-.48-2.08V389.92c0-1.28-.48-2.4-.8-3.84v-.32c0-.48 0-.8-.16-1.12-.32-1.12-.64-2.08-1.12-3.04v-.16c-.16-.64-.32-1.28-.64-1.76-.16-.64-.64-1.76-.96-2.56-.48-.64-.8-1.6-1.12-2.4-.48-.8-.64-1.12-.96-1.6-.64-1.12-1.12-2.08-1.76-3.04l-.64-.96-.16-.32c-.8-.96-1.44-2.08-2.24-3.04l-.48-.64-.8-.32-.48-.64c-.48-.48-.96-1.12-1.44-1.6l-2.88-3.2c-.96-1.12-2.08-2.08-3.2-3.04l-3.52-2.72-1.92-1.28-.64-.48h-.16l-.8-.48c-1.12-.8-2.24-1.44-3.36-1.92l-.32-.32-1.12-.64c-.96-.48-2.08-.96-3.04-1.44h-.16l-1.92-.96-2.72-.96-2.56-.96-1.92-.64h-.16l-3.36-1.12h-1.76l1.76-1.44 2.88-2.72-2.88-2.72-7.52-7.04h-.16l-6.24-5.76-2.88-2.72z" stroke="#000" stroke-opacity="0" stroke-width="3.5" fill="#fff"/><path d="M1526.72 450.72v4.8c28.96-2.88 51.04-23.04 54.24-49.6h-5.12c-3.04 23.84-23.04 42.08-49.12 44.8zM1464.8 405.92h-5.12c3.2 26.56 25.28 46.72 54.24 49.6v-4.8c-26.08-2.72-46.08-20.96-49.12-44.8zM1575.84 394.24h5.12c-3.04-26.56-25.28-46.88-54.24-49.76v4.8c26.24 2.72 46.08 20.96 49.12 44.96zM1513.92 349.28v-4.8c-28.96 2.88-51.04 23.2-54.24 49.76h5.12c3.04-24 23.04-42.24 49.12-44.96z" stroke="#000" stroke-opacity="0" stroke-width="3.5" fill="#2c5967"/><path d="M1522.88 334.08l3.84 3.52 3.84 3.68 3.68-3.36-7.52-6.88-.32-.16-6.08-5.6-6.08 5.6-.32.16-7.52 6.88 3.68 3.36 3.84-3.68 3.84-3.52v131.68l-3.84-3.36-3.84-3.68-3.68 3.36 7.52 6.88 2.72 2.4 3.68 3.36 3.52-3.36 2.88-2.4 7.52-6.88-3.68-3.36-3.84 3.68-3.84 3.36V334.08z" stroke="#000" stroke-opacity="0" stroke-width="3.5" fill="#2c5967"/><path d="M1532.8 397.6l3.84-3.36 3.84-3.68-3.52-3.2-7.52 6.88-6.4 5.76 6.4 5.76 7.52 6.88 3.52-3.2-3.84-3.68-3.84-3.36h63.84v-4.8h-63.84zM1507.84 402.4l-3.84 3.36-3.84 3.68 3.52 3.2 10.24-9.44 3.68-3.2-3.68-3.2-10.24-9.44-3.52 3.2 3.84 3.68 3.84 3.36h-63.68v4.8h63.68z" stroke="#000" stroke-opacity="0" stroke-width="3.5" fill="#2c5967"/><path d="M1534.64 1098.56v-3.6h-.24v3.6h-6.96v-3.6h-.24v3.6h-6.84v-3.6h-.24v3.6h-6.84v-3.6h-.24v3.6h-6.96v-3.6h-18.48v3.6h-22.08v-75.36h-4.08v-6.96h4.56v-28.8c0-3.36 2.64-6 6-6h100.56c3.36 0 6 2.64 6 6v101.52c0 3.36-2.64 6-6 6h-31.2v3.6z" stroke="#000" stroke-opacity="0" stroke-width="3.57" fill="#fff"/><path d="M1572.56 982.88c2.52 0 4.56 2.04 4.56 4.56v101.52c0 2.52-2.04 4.56-4.56 4.56h-32.52v3.6h-4.08v-3.6h-3v3.6h-4.08v-3.6h-3v3.6h-4.08v-3.6h-3.12v3.6h-3.96v-3.6h-3.12v3.6h-4.08v-3.6h-21.36v3.6h-19.2v-75.36h-4.08v-4.08h4.56v-30.24c0-2.52 2.04-4.56 4.56-4.56h100.56m0-2.88H1472c-4.08 0-7.44 3.36-7.44 7.44v27.36H1460v9.84h4.08V1100h24.96v-3.6h15.6v3.6h38.28v-3.6h29.64c4.08 0 7.44-3.36 7.44-7.44V987.44c0-4.08-3.36-7.44-7.44-7.44z" stroke="#000" stroke-opacity="0" stroke-width="3.57" fill="#fff"/><path d="M1572.56 982.88H1472c-2.52 0-4.56 2.04-4.56 4.56v26.64h4.08v-26.64c0-.24.24-.48.48-.48h100.56c.24 0 .48.24.48.48v101.52c0 .24-.24.48-.48.48h-19.32v4.08h19.32c2.52 0 4.56-2.04 4.56-4.56V987.44c0-2.52-2.04-4.56-4.56-4.56z" stroke="#000" stroke-opacity="0" stroke-width="3.57" fill="#2c5967"/><path d="M1562.48 1053.56h-9.24v4.08h5.16v16.44h-5.16v4.08h9.24v-24.6zM1482.68 998.24v15.84h4.08v-11.76h16.2v15.96h4.08v-20.04h-24.36zM1510.04 998.24v20.04h4.08v-15.96h16.32v15.96h4.08v-20.04h-24.48zM1561.88 998.24h-24.36v20.04h4.08v-15.96h16.2v16.44h-4.56v4.08h8.64v-24.6zM1561.88 1025.96h-8.64v4.08h4.56v16.32h-4.56v4.2h8.64v-24.6zM1474.04 1039.28h5.04v5.04h-5.04v-5.04zM1474.04 1067.96h5.04v5.04h-5.04v-5.04z" stroke="#000" stroke-opacity="0" stroke-width="3.57" fill="#2c5967"/><path d="M1549.76 1021.76h-63.6v-4.08h-23.28v4.08h3.96v75.36h19.32v-4.08h7.2v-3.12h14.16v7.2h4.08v-7.2h3.12v7.2h3.96v-7.2h3.12v7.2h4.08v-7.2h3v7.2h4.08v-7.2h3v7.2h4.08v-7.2h9.72zm-15.24 4.2h11.16v60h-56.4v3h-3.12v-63h48.24zm-63.6-4.2h11.4v71.28h-11.4z" stroke="#000" stroke-opacity="0" stroke-width="3.57" fill="#2c5967"/><path d="M1489.28 1028.96v25.08h4.08v4.2h-4.08v24.6h26.4v-16.44h3v16.44h24.48v-13.44h-8.76c-.36-.6-.84-1.08-1.44-1.44-1.92-1.2-4.44-.48-5.52 1.44-1.2 2.04-.48 4.56 1.44 5.64 1.92 1.2 4.44.48 5.52-1.44h4.68v5.04h-16.32v-16.32h-7.08v-4.08h-4.08v-4.2h7.08v-18.84h2.88v21.96h6.84v2.04h14.76v-8.16h-14.76v2.04h-2.76v-7.2h2.76v2.04h14.76v-8.16h-14.76v2.04h-2.76v-6.6h2.76v1.92h14.76v-8.16h-14.76v2.04h-9.72v-2.04zm8.16 25.08h3v4.2h-3zm14.16 24.6h-18.24v-16.32h18.24zm-4.08-20.4h-3v-4.2h3zm7.08-25.2v16.92h-21.24v-16.92z" stroke="#000" stroke-opacity="0" stroke-width="3.57" fill="#2c5967"/><path d="M740 1386a6 6 0 0 1 6-6h268a6 6 0 0 1 6 6v28a6 6 0 0 1-6 6H746a6 6 0 0 1-6-6z" fill="#fff"/><use xlink:href="#t" transform="matrix(1,0,0,1,745,1385) translate(75.92881944444444 23.40277777777778)"/><use xlink:href="#u" transform="matrix(1,0,0,1,745,1385) translate(158.66536458333331 23.40277777777778)"/><path d="M1380 1386a6 6 0 0 1 6-6h268a6 6 0 0 1 6 6v28a6 6 0 0 1-6 6h-268a6 6 0 0 1-6-6z" fill="#fff"/><use xlink:href="#v" transform="matrix(1,0,0,1,1385,1385) translate(54.48784722222223 23.40277777777778)"/><use xlink:href="#w" transform="matrix(1,0,0,1,1385,1385) translate(104.55295138888889 23.40277777777778)"/><use xlink:href="#u" transform="matrix(1,0,0,1,1385,1385) translate(180.10633680555554 23.40277777777778)"/><path d="M1450.24 1378.08c-4.64 0-8.32-3.68-8.32-8.32v-139.52c0-4.64 3.68-8.32 8.32-8.32h139.68c4.48 0 8.16 3.68 8.16 8.32v139.68c0 4.48-3.68 8.16-8.16 8.16h-139.68z" stroke="#000" stroke-opacity="0" stroke-width="3.57" fill="#fff"/><path d="M1589.76 1223.84c3.52 0 6.4 2.88 6.4 6.4v139.68c0 3.52-2.88 6.24-6.4 6.24h-139.52c-3.52 0-6.4-2.88-6.4-6.4v-139.52c0-3.52 2.88-6.4 6.4-6.4h139.52m0-3.84h-139.52c-5.6 0-10.24 4.64-10.24 10.24v139.68c0 5.44 4.64 10.08 10.24 10.08h139.68c5.44 0 10.08-4.64 10.08-10.24v-139.52c0-5.6-4.64-10.24-10.24-10.24z" stroke="#000" stroke-opacity="0" stroke-width="3.57" fill="#fff"/><path d="M1589.76 1223.84h-139.52c-3.52 0-6.4 2.88-6.4 6.4v139.68c0 3.36 2.88 6.24 6.4 6.24h139.68c3.52 0 6.24-2.88 6.24-6.4v-139.52c0-3.52-2.88-6.4-6.4-6.4zm.8 145.92c0 .48-.32.8-.8.8h-139.52c-.48 0-.8-.32-.8-.8v-139.52c0-.48.32-.8.8-.8h139.68c.32 0 .64.32.64.8v139.52z" stroke="#000" stroke-opacity="0" stroke-width="3.57" fill="#2c5967"/><path d="M1464.96 1355.04h110.72v-33.92h-110.72v33.92zm5.6-28.16h99.52v22.56h-99.52v-22.56z" stroke="#000" stroke-opacity="0" stroke-width="3.57" fill="#2c5967"/><path d="M1561.6 1338.08c0 2.4-1.92 4.32-4.16 4.32-2.4 0-4.32-1.92-4.32-4.32 0-2.4 1.92-4.16 4.32-4.16 2.24 0 4.16 1.76 4.16 4.16zM1498.88 1244.96h-33.92v33.92h33.92v-33.92zm-5.76 28.16h-22.56v-22.56h22.72v22.56zM1536.96 1244.96h-33.92v33.92h33.92v-33.92zm-5.76 28.16h-22.56v-22.56h22.56v22.56zM1498.88 1283.04h-33.92v33.92h33.92v-33.92zm-5.76 28.16h-22.56v-22.56h22.72v22.56zM1536.96 1283.04h-33.92v33.92h33.92v-33.92zm-5.76 28.16h-22.56v-22.56h22.56v22.56zM1575.04 1244.96h-33.92v33.92h33.92v-33.92zm-5.6 28.16h-22.72v-22.56h22.72v22.56zM1575.04 1283.04h-33.92v33.92h33.92v-33.92zm-5.6 28.16h-22.72v-22.56h22.72v22.56z" stroke="#000" stroke-opacity="0" stroke-width="3.57" fill="#2c5967"/><defs><radialGradient gradientUnits="userSpaceOnUse" id="a" fx="800" fy="-160" cx="800" cy="-160" r="100"><stop offset="18%" stop-color="#5ea0ef"/><stop offset="56%" stop-color="#5c9fee"/><stop offset="69%" stop-color="#559ced"/><stop offset="78%" stop-color="#4a97e9"/><stop offset="86%" stop-color="#3990e4"/><stop offset="93%" stop-color="#2387de"/><stop offset="99%" stop-color="#087bd6"/><stop offset="100%" stop-color="#0078d4"/></radialGradient><radialGradient gradientUnits="userSpaceOnUse" id="b" fx="787" fy="-172.91" cx="787" cy="-172.91" r="109.22"><stop offset="27%" stop-color="#ffd70f"/><stop offset="49%" stop-color="#ffcb12"/><stop offset="88%" stop-color="#feac19"/><stop offset="100%" stop-color="#fea11b"/></radialGradient><radialGradient gradientUnits="userSpaceOnUse" id="c" fx="1200.1" fy="-160.22" cx="1200.1" cy="-160.22" r="100.17"><stop offset="18%" stop-color="#5ea0ef"/><stop offset="100%" stop-color="#0078d4"/></radialGradient><linearGradient gradientUnits="userSpaceOnUse" id="d" x1="1146.04" y1="-130.97" x2="1145.68" y2="-177.56"><stop offset="0%" stop-color="#ccc"/><stop offset="100%" stop-color="#fcfcfc"/></linearGradient><linearGradient gradientUnits="userSpaceOnUse" id="e" x1="1213.6" y1="-84.2" x2="1213.6" y2="-126.08"><stop offset="0%" stop-color="#ccc"/><stop offset="100%" stop-color="#fcfcfc"/></linearGradient><linearGradient gradientUnits="userSpaceOnUse" id="f" x1="1261.3" y1="-134.72" x2="1261.3" y2="-179.2"><stop offset="0%" stop-color="#ccc"/><stop offset="100%" stop-color="#fcfcfc"/></linearGradient><linearGradient gradientUnits="userSpaceOnUse" id="g" x1="1146.04" y1="-130.97" x2="1145.68" y2="-177.56"><stop offset="0%" stop-color="#ccc"/><stop offset="100%" stop-color="#fcfcfc"/></linearGradient><linearGradient gradientUnits="userSpaceOnUse" id="h" x1="1213.6" y1="-84.2" x2="1213.6" y2="-126.08"><stop offset="0%" stop-color="#ccc"/><stop offset="100%" stop-color="#fcfcfc"/></linearGradient><path d="M653-1490V0H466v-1314h-10L96-1047v-204l324-239h233" id="x"/><path d="M603 20c-253 0-434-161-469-399h188c31 132 124 231 281 231 227 0 367-207 367-568h-12c-80 122-211 199-367 199-257 0-469-206-469-493 0-278 200-505 506-500 245 4 520 158 520 706 0 527-208 824-545 824zm16-703c181 0 324-157 324-332 0-171-135-328-318-328-180 0-317 148-317 332 0 183 131 328 311 328" id="y"/><path d="M154 0v-137l495-537c165-179 249-281 249-418 0-156-121-253-280-253-170 0-278 110-278 278H158c0-264 200-443 465-443 266 0 455 183 455 416 0 161-73 288-336 568L416-179v12h687V0H154" id="z"/><path d="M295 13c-75 0-135-60-135-135s60-135 135-135 135 60 135 135S370 13 295 13" id="A"/><path d="M633 20c-303 0-511-173-511-416 0-188 124-348 291-378v-8c-145-37-237-174-237-332 0-227 192-396 457-396 261 0 456 169 456 396 0 158-94 295-235 332v8c162 30 291 190 291 378 0 243-212 416-512 416zm0-165c197 0 322-103 322-261 0-165-138-283-322-283-188 0-324 118-324 283 0 158 123 261 324 261zm0-703c157 0 272-101 272-252 0-149-110-246-272-246-165 0-273 97-273 246 0 151 112 252 273 252" id="B"/><path d="M635 20c-292 0-500-160-510-396h192c11 142 145 229 315 229 187 0 323-105 323-260 0-161-125-274-346-274H488v-165h121c174 0 294-100 294-254 0-148-104-245-266-245-152 0-291 85-297 230H157c8-234 222-395 484-395 278 0 448 188 448 400 0 168-95 291-247 336v12c190 31 301 169 301 357 0 244-216 425-508 425" id="C"/><path d="M120-303v-155l652-1032h231v1020h202v167h-202V0H821v-303H120zm702-167v-782h-12L323-482v12h499" id="D"/><path d="M626 20c-262 0-458-168-468-396h184c12 133 134 229 284 229 180 0 311-137 311-326 0-192-136-335-323-335-92 0-196 33-255 78l-178-22 88-738h784v167H429l-51 435h8c61-51 160-87 263-87 273 0 474 211 474 499 0 286-210 496-497 496" id="E"/><g id="i"><use transform="matrix(0.010850694444444444,0,0,0.010850694444444444,0,0)" xlink:href="#x"/><use transform="matrix(0.010850694444444444,0,0,0.010850694444444444,9.038628472222221,0)" xlink:href="#y"/><use transform="matrix(0.010850694444444444,0,0,0.010850694444444444,22.819010416666664,0)" xlink:href="#z"/><use transform="matrix(0.010850694444444444,0,0,0.010850694444444444,36.37152777777777,0)" xlink:href="#A"/><use transform="matrix(0.010850694444444444,0,0,0.010850694444444444,40.85286458333333,0)" xlink:href="#x"/><use transform="matrix(0.010850694444444444,0,0,0.010850694444444444,49.89149305555556,0)" xlink:href="#B"/><use transform="matrix(0.010850694444444444,0,0,0.010850694444444444,63.14019097222221,0)" xlink:href="#A"/><use transform="matrix(0.010850694444444444,0,0,0.010850694444444444,67.62152777777777,0)" xlink:href="#x"/><use transform="matrix(0.010850694444444444,0,0,0.010850694444444444,76.66015625,0)" xlink:href="#C"/><use transform="matrix(0.010850694444444444,0,0,0.010850694444444444,90.38628472222221,0)" xlink:href="#D"/><use transform="matrix(0.010850694444444444,0,0,0.010850694444444444,103.99305555555556,0)" xlink:href="#A"/><use transform="matrix(0.010850694444444444,0,0,0.010850694444444444,110.0802951388889,0)" xlink:href="#E"/><use transform="matrix(0.010850694444444444,0,0,0.010850694444444444,123.58940972222224,0)" xlink:href="#z"/></g><path d="M646 20c-332 0-524-278-524-764 0-483 194-766 524-766s524 283 524 766c0 485-191 764-524 764zm0-166c218 0 341-220 341-598 0-380-123-601-341-601s-341 222-341 601c0 378 123 598 341 598" id="F"/><path d="M692-1560L212 224H46l480-1784h166" id="G"/><g id="j"><use transform="matrix(0.010850694444444444,0,0,0.010850694444444444,0,0)" xlink:href="#F"/><use transform="matrix(0.010850694444444444,0,0,0.010850694444444444,13.45486111111111,0)" xlink:href="#A"/><use transform="matrix(0.010850694444444444,0,0,0.010850694444444444,19.29253472222222,0)" xlink:href="#F"/><use transform="matrix(0.010850694444444444,0,0,0.010850694444444444,32.74739583333333,0)" xlink:href="#A"/><use transform="matrix(0.010850694444444444,0,0,0.010850694444444444,38.585069444444436,0)" xlink:href="#F"/><use transform="matrix(0.010850694444444444,0,0,0.010850694444444444,52.03993055555554,0)" xlink:href="#A"/><use transform="matrix(0.010850694444444444,0,0,0.010850694444444444,57.87760416666666,0)" xlink:href="#F"/><use transform="matrix(0.010850694444444444,0,0,0.010850694444444444,71.89670138888887,0)" xlink:href="#G"/><use transform="matrix(0.010850694444444444,0,0,0.010850694444444444,79.90451388888887,0)" xlink:href="#z"/><use transform="matrix(0.010850694444444444,0,0,0.010850694444444444,93.45703124999997,0)" xlink:href="#z"/></g><path d="M646 20c-249 0-524-159-524-708 0-524 209-822 547-822 250 0 431 161 467 395H950c-33-129-126-227-281-227-229 0-367 208-367 566h12c80-124 212-198 367-198 255 0 467 205 467 493 0 278-198 501-502 501zm0-167c179 0 318-148 318-334 0-182-133-328-313-328-181 0-322 156-322 330 0 176 134 332 317 332" id="H"/><g id="k"><use transform="matrix(0.010850694444444444,0,0,0.010850694444444444,0,0)" xlink:href="#F"/><use transform="matrix(0.010850694444444444,0,0,0.010850694444444444,13.45486111111111,0)" xlink:href="#A"/><use transform="matrix(0.010850694444444444,0,0,0.010850694444444444,19.29253472222222,0)" xlink:href="#F"/><use transform="matrix(0.010850694444444444,0,0,0.010850694444444444,32.74739583333333,0)" xlink:href="#A"/><use transform="matrix(0.010850694444444444,0,0,0.010850694444444444,38.585069444444436,0)" xlink:href="#F"/><use transform="matrix(0.010850694444444444,0,0,0.010850694444444444,52.03993055555554,0)" xlink:href="#A"/><use transform="matrix(0.010850694444444444,0,0,0.010850694444444444,57.87760416666666,0)" xlink:href="#F"/><use transform="matrix(0.010850694444444444,0,0,0.010850694444444444,71.89670138888887,0)" xlink:href="#G"/><use transform="matrix(0.010850694444444444,0,0,0.010850694444444444,79.90451388888887,0)" xlink:href="#C"/><use transform="matrix(0.010850694444444444,0,0,0.010850694444444444,93.63064236111109,0)" xlink:href="#C"/><use transform="matrix(0.010850694444444444,0,0,0.010850694444444444,107.35677083333331,0)" xlink:href="#F"/><use transform="matrix(0.010850694444444444,0,0,0.010850694444444444,121.37586805555556,0)" xlink:href="#H"/></g><g id="l"><use transform="matrix(0.010850694444444444,0,0,0.010850694444444444,0,0)" xlink:href="#F"/><use transform="matrix(0.010850694444444444,0,0,0.010850694444444444,13.45486111111111,0)" xlink:href="#A"/><use transform="matrix(0.010850694444444444,0,0,0.010850694444444444,19.29253472222222,0)" xlink:href="#F"/><use transform="matrix(0.010850694444444444,0,0,0.010850694444444444,32.74739583333333,0)" xlink:href="#A"/><use transform="matrix(0.010850694444444444,0,0,0.010850694444444444,38.585069444444436,0)" xlink:href="#F"/><use transform="matrix(0.010850694444444444,0,0,0.010850694444444444,52.03993055555554,0)" xlink:href="#A"/><use transform="matrix(0.010850694444444444,0,0,0.010850694444444444,57.87760416666666,0)" xlink:href="#F"/><use transform="matrix(0.010850694444444444,0,0,0.010850694444444444,71.89670138888887,0)" xlink:href="#G"/><use transform="matrix(0.010850694444444444,0,0,0.010850694444444444,79.90451388888887,0)" xlink:href="#x"/><use transform="matrix(0.010850694444444444,0,0,0.010850694444444444,88.94314236111109,0)" xlink:href="#D"/><use transform="matrix(0.010850694444444444,0,0,0.010850694444444444,103.29861111111109,0)" xlink:href="#C"/><use transform="matrix(0.010850694444444444,0,0,0.010850694444444444,117.02473958333331,0)" xlink:href="#C"/></g><g id="m"><use transform="matrix(0.010850694444444444,0,0,0.010850694444444444,0,0)" xlink:href="#x"/><use transform="matrix(0.010850694444444444,0,0,0.010850694444444444,9.038628472222221,0)" xlink:href="#y"/><use transform="matrix(0.010850694444444444,0,0,0.010850694444444444,22.819010416666664,0)" xlink:href="#z"/><use transform="matrix(0.010850694444444444,0,0,0.010850694444444444,36.37152777777777,0)" xlink:href="#A"/><use transform="matrix(0.010850694444444444,0,0,0.010850694444444444,42.62152777777777,0)" xlink:href="#y"/><use transform="matrix(0.010850694444444444,0,0,0.010850694444444444,55.8376736111111,0)" xlink:href="#A"/><use transform="matrix(0.010850694444444444,0,0,0.010850694444444444,60.31901041666666,0)" xlink:href="#x"/><use transform="matrix(0.010850694444444444,0,0,0.010850694444444444,69.35763888888889,0)" xlink:href="#D"/><use transform="matrix(0.010850694444444444,0,0,0.010850694444444444,83.71310763888889,0)" xlink:href="#E"/><use transform="matrix(0.010850694444444444,0,0,0.010850694444444444,96.62543402777777,0)" xlink:href="#A"/><use transform="matrix(0.010850694444444444,0,0,0.010850694444444444,101.10677083333333,0)" xlink:href="#x"/><use transform="matrix(0.010850694444444444,0,0,0.010850694444444444,110.14539930555556,0)" xlink:href="#E"/><use transform="matrix(0.010850694444444444,0,0,0.010850694444444444,123.65451388888887,0)" xlink:href="#F"/></g><g id="n"><use transform="matrix(0.010850694444444444,0,0,0.010850694444444444,0,0)" xlink:href="#x"/><use transform="matrix(0.010850694444444444,0,0,0.010850694444444444,9.038628472222221,0)" xlink:href="#F"/><use transform="matrix(0.010850694444444444,0,0,0.010850694444444444,22.493489583333332,0)" xlink:href="#A"/><use transform="matrix(0.010850694444444444,0,0,0.010850694444444444,28.331163194444443,0)" xlink:href="#F"/><use transform="matrix(0.010850694444444444,0,0,0.010850694444444444,41.78602430555556,0)" xlink:href="#A"/><use transform="matrix(0.010850694444444444,0,0,0.010850694444444444,47.623697916666664,0)" xlink:href="#F"/><use transform="matrix(0.010850694444444444,0,0,0.010850694444444444,61.07855902777778,0)" xlink:href="#A"/><use transform="matrix(0.010850694444444444,0,0,0.010850694444444444,66.91623263888889,0)" xlink:href="#F"/><use transform="matrix(0.010850694444444444,0,0,0.010850694444444444,80.93532986111111,0)" xlink:href="#G"/><use transform="matrix(0.010850694444444444,0,0,0.010850694444444444,88.94314236111111,0)" xlink:href="#x"/><use transform="matrix(0.010850694444444444,0,0,0.010850694444444444,97.98177083333334,0)" xlink:href="#H"/></g><g id="o"><use transform="matrix(0.010850694444444444,0,0,0.010850694444444444,0,0)" xlink:href="#x"/><use transform="matrix(0.010850694444444444,0,0,0.010850694444444444,9.038628472222221,0)" xlink:href="#F"/><use transform="matrix(0.010850694444444444,0,0,0.010850694444444444,22.493489583333332,0)" xlink:href="#A"/><use transform="matrix(0.010850694444444444,0,0,0.010850694444444444,26.97482638888889,0)" xlink:href="#x"/><use transform="matrix(0.010850694444444444,0,0,0.010850694444444444,36.01345486111111,0)" xlink:href="#A"/><use transform="matrix(0.010850694444444444,0,0,0.010850694444444444,41.851128472222214,0)" xlink:href="#F"/><use transform="matrix(0.010850694444444444,0,0,0.010850694444444444,55.30598958333332,0)" xlink:href="#A"/><use transform="matrix(0.010850694444444444,0,0,0.010850694444444444,61.143663194444436,0)" xlink:href="#F"/><use transform="matrix(0.010850694444444444,0,0,0.010850694444444444,75.16276041666666,0)" xlink:href="#G"/><use transform="matrix(0.010850694444444444,0,0,0.010850694444444444,83.17057291666666,0)" xlink:href="#x"/><use transform="matrix(0.010850694444444444,0,0,0.010850694444444444,92.20920138888889,0)" xlink:href="#H"/></g><path d="M783 20c-382 0-661-292-661-764 0-473 279-766 661-766 302 0 548 182 601 489h-190c-42-204-217-313-411-313-268 0-476 208-476 590 0 381 209 588 476 588 195 0 369-110 411-313h190c-52 303-296 489-601 489" id="I"/><path d="M613 24c-304 0-509-231-509-576 0-350 205-580 509-580 305 0 511 230 511 580 0 345-206 576-511 576zm0-161c226 0 329-195 329-415 0-222-103-419-329-419-223 0-326 196-326 419 0 220 103 415 326 415" id="J"/><path d="M158 0v-1118h175l1 205c55-151 181-225 313-225 147 0 245 90 285 228 53-141 190-228 352-228 194 0 352 125 352 384V0h-181v-749c0-161-105-225-225-225-151 0-243 103-243 244V0H807v-767c0-124-93-207-219-207-131 0-250 92-250 270V0H158" id="K"/><path d="M158 418v-1536h174v179h20c37-59 106-193 324-193 279 0 474 222 474 576 0 356-194 580-473 580-213 0-288-135-325-197h-14v591H158zm492-555c209 0 317-186 317-421 0-232-105-413-317-413-206 0-314 166-314 413 0 249 111 421 314 421" id="L"/><path d="M471 26C259 26 90-98 90-318c0-256 228-303 435-329 202-27 287-16 287-108 0-139-79-219-234-219-161 0-248 86-283 164l-173-57c86-203 278-265 451-265 150 0 419 46 419 395V0H815v-152h-12C765-73 660 26 471 26zm31-159c199 0 310-134 310-271v-155c-30 35-226 55-295 64-131 17-246 59-246 186 0 116 97 176 231 176" id="M"/><path d="M158 0v-1118h174v172h12c41-113 157-188 290-188 26 0 70 2 91 3v181c-11-2-60-10-108-10-161 0-279 109-279 260V0H158" id="N"/><path d="M598-1118v154H368v674c0 100 37 144 132 144 23 0 62-6 92-12L629-6c-37 13-88 20-134 20-193 0-307-107-307-290v-688H20v-154h168v-266h180v266h230" id="O"/><path d="M628 24c-324 0-524-230-524-574 0-343 198-582 503-582 237 0 487 146 487 559v75H286c9 234 145 362 343 362 132 0 231-58 273-172l174 48C1024-91 857 24 628 24zM287-650h624c-17-190-120-322-304-322-192 0-309 151-320 322" id="P"/><path d="M338-670V0H158v-1118h173l1 207c72-158 192-221 342-221 226 0 378 139 378 422V0H872v-695c0-172-96-275-252-275-161 0-282 109-282 300" id="Q"/><g id="p"><use transform="matrix(0.010850694444444444,0,0,0.010850694444444444,0,0)" xlink:href="#I"/><use transform="matrix(0.010850694444444444,0,0,0.010850694444444444,16.23263888888889,0)" xlink:href="#J"/><use transform="matrix(0.010850694444444444,0,0,0.010850694444444444,29.557291666666664,0)" xlink:href="#K"/><use transform="matrix(0.010850694444444444,0,0,0.010850694444444444,49.0234375,0)" xlink:href="#L"/><use transform="matrix(0.010850694444444444,0,0,0.010850694444444444,62.84722222222221,0)" xlink:href="#M"/><use transform="matrix(0.010850694444444444,0,0,0.010850694444444444,75.32552083333333,0)" xlink:href="#N"/><use transform="matrix(0.010850694444444444,0,0,0.010850694444444444,84.03862847222223,0)" xlink:href="#O"/><use transform="matrix(0.010850694444444444,0,0,0.010850694444444444,91.30859375,0)" xlink:href="#K"/><use transform="matrix(0.010850694444444444,0,0,0.010850694444444444,110.77473958333333,0)" xlink:href="#P"/><use transform="matrix(0.010850694444444444,0,0,0.010850694444444444,123.73046875,0)" xlink:href="#Q"/><use transform="matrix(0.010850694444444444,0,0,0.010850694444444444,136.85980902777777,0)" xlink:href="#O"/></g><path d="M128 359l88-567h206L266 359H128" id="R"/><g id="q"><use transform="matrix(0.010850694444444444,0,0,0.010850694444444444,0,0)" xlink:href="#H"/><use transform="matrix(0.010850694444444444,0,0,0.010850694444444444,13.780381944444445,0)" xlink:href="#D"/><use transform="matrix(0.010850694444444444,0,0,0.010850694444444444,27.38715277777778,0)" xlink:href="#R"/><use transform="matrix(0.010850694444444444,0,0,0.010850694444444444,33.22482638888889,0)" xlink:href="#H"/><use transform="matrix(0.010850694444444444,0,0,0.010850694444444444,47.00520833333333,0)" xlink:href="#z"/><use transform="matrix(0.010850694444444444,0,0,0.010850694444444444,60.55772569444444,0)" xlink:href="#B"/><use transform="matrix(0.010850694444444444,0,0,0.010850694444444444,73.80642361111111,0)" xlink:href="#R"/><use transform="matrix(0.010850694444444444,0,0,0.010850694444444444,80.20833333333334,0)" xlink:href="#D"/><use transform="matrix(0.010850694444444444,0,0,0.010850694444444444,94.56380208333334,0)" xlink:href="#F"/><use transform="matrix(0.010850694444444444,0,0,0.010850694444444444,108.58289930555557,0)" xlink:href="#D"/></g><path d="M538 24C308 24 148-78 108-271l171-41c32 123 123 178 257 178 156 0 256-77 256-169 0-77-54-128-164-154l-186-44c-203-48-300-148-300-305 0-192 176-326 414-326 230 0 351 112 402 269l-163 42c-31-80-94-158-238-158-133 0-233 69-233 162 0 83 57 129 188 160l169 40c203 48 298 149 298 302 0 196-179 339-441 339" id="S"/><path d="M409 0L70-1118h191c89 329 165 560 243 925 75-353 154-601 240-925h192c85 325 161 564 235 922 77-354 157-598 244-922h191L1267 0h-179c-86-307-176-590-250-913C763-588 675-308 588 0H409" id="T"/><path d="M577 24c-279 0-473-224-473-580 0-354 195-576 474-576 218 0 287 134 324 193h14v-551h180V0H922v-173h-20C865-111 790 24 577 24zm27-161c203 0 314-172 314-421 0-247-108-413-314-413-212 0-317 181-317 413 0 235 108 421 317 421" id="U"/><g id="r"><use transform="matrix(0.010850694444444444,0,0,0.010850694444444444,0,0)" xlink:href="#L"/><use transform="matrix(0.010850694444444444,0,0,0.010850694444444444,13.823784722222221,0)" xlink:href="#M"/><use transform="matrix(0.010850694444444444,0,0,0.010850694444444444,26.302083333333332,0)" xlink:href="#S"/><use transform="matrix(0.010850694444444444,0,0,0.010850694444444444,38.03168402777778,0)" xlink:href="#S"/><use transform="matrix(0.010850694444444444,0,0,0.010850694444444444,49.76128472222222,0)" xlink:href="#T"/><use transform="matrix(0.010850694444444444,0,0,0.010850694444444444,67.54557291666667,0)" xlink:href="#J"/><use transform="matrix(0.010850694444444444,0,0,0.010850694444444444,80.87022569444444,0)" xlink:href="#N"/><use transform="matrix(0.010850694444444444,0,0,0.010850694444444444,88.8671875,0)" xlink:href="#U"/><use transform="matrix(0.010850694444444444,0,0,0.010850694444444444,102.47395833333333,0)" xlink:href="#S"/></g><g id="s"><use transform="matrix(0.010850694444444444,0,0,0.010850694444444444,0,0)" xlink:href="#z"/><use transform="matrix(0.010850694444444444,0,0,0.010850694444444444,13.20529513888889,0)" xlink:href="#D"/><use transform="matrix(0.010850694444444444,0,0,0.010850694444444444,26.81206597222222,0)" xlink:href="#R"/><use transform="matrix(0.010850694444444444,0,0,0.010850694444444444,33.21397569444444,0)" xlink:href="#D"/><use transform="matrix(0.010850694444444444,0,0,0.010850694444444444,47.56944444444444,0)" xlink:href="#D"/><use transform="matrix(0.010850694444444444,0,0,0.010850694444444444,61.490885416666664,0)" xlink:href="#x"/><use transform="matrix(0.010850694444444444,0,0,0.010850694444444444,70.52951388888889,0)" xlink:href="#R"/><use transform="matrix(0.010850694444444444,0,0,0.010850694444444444,76.43229166666667,0)" xlink:href="#B"/><use transform="matrix(0.010850694444444444,0,0,0.010850694444444444,90.1801215277778,0)" xlink:href="#C"/><use transform="matrix(0.010850694444444444,0,0,0.010850694444444444,103.90625,0)" xlink:href="#F"/></g><path d="M180 0v-1490h270l367 940c28 72 75 218 110 339 35-117 81-264 110-339l362-940h271V0h-187c2-448-5-837 7-1287-157 497-311 829-483 1287H842C666-458 514-784 354-1284c12 438 5 843 7 1284H180" id="V"/><path d="M140 405l46-156c120 36 205 19 263-150l32-93L54-1118h197c107 313 237 620 324 950 87-331 219-637 326-950h196L606 167c-68 178-176 259-334 259-64 0-113-12-132-21" id="W"/><path d="M657 26c-323 0-524-166-541-416h195c15 169 171 246 346 246 202 0 356-106 356-265 5-203-294-238-475-293-239-73-380-191-380-389 0-252 224-419 512-419 294 0 499 171 508 396H992c-17-145-151-228-328-228-193 0-321 102-321 242 0 156 175 211 284 241l149 41c160 44 422 134 422 412 0 244-197 432-541 432" id="X"/><path d="M784 20c-382 0-662-292-662-764 0-473 280-766 662-766s660 293 660 766c0 282-99 499-260 629l192 255h-198L1049-33C969 2 880 20 784 20zm-62-486h198l156 205c112-98 183-261 183-483 0-383-209-590-475-590-268 0-477 208-477 590 0 380 209 588 477 588 54 0 106-9 154-25" id="Y"/><path d="M180 0v-1490h190v1322h690V0H180" id="Z"/><g id="t"><use transform="matrix(0.010850694444444444,0,0,0.010850694444444444,0,0)" xlink:href="#V"/><use transform="matrix(0.010850694444444444,0,0,0.010850694444444444,20.182291666666664,0)" xlink:href="#W"/><use transform="matrix(0.010850694444444444,0,0,0.010850694444444444,32.67144097222222,0)" xlink:href="#X"/><use transform="matrix(0.010850694444444444,0,0,0.010850694444444444,46.92925347222222,0)" xlink:href="#Y"/><use transform="matrix(0.010850694444444444,0,0,0.010850694444444444,63.92144097222222,0)" xlink:href="#Z"/></g><path d="M600 0L52-1490h200c166 485 304 806 458 1336 156-533 285-846 449-1336h202L819 0H600" id="aa"/><g id="u"><use transform="matrix(0.010850694444444444,0,0,0.010850694444444444,0,0)" xlink:href="#aa"/><use transform="matrix(0.010850694444444444,0,0,0.010850694444444444,15.33203125,0)" xlink:href="#V"/></g><g id="v"><use transform="matrix(0.010850694444444444,0,0,0.010850694444444444,0,0)" xlink:href="#X"/><use transform="matrix(0.010850694444444444,0,0,0.010850694444444444,14.2578125,0)" xlink:href="#Y"/><use transform="matrix(0.010850694444444444,0,0,0.010850694444444444,31.25,0)" xlink:href="#Z"/></g><path d="M481 0L54-1118h197c107 314 236 620 325 951 87-331 217-637 324-951h197L670 0H481" id="ab"/><g id="w"><use transform="matrix(0.010850694444444444,0,0,0.010850694444444444,0,0)" xlink:href="#X"/><use transform="matrix(0.010850694444444444,0,0,0.010850694444444444,14.2578125,0)" xlink:href="#P"/><use transform="matrix(0.010850694444444444,0,0,0.010850694444444444,27.213541666666664,0)" xlink:href="#N"/><use transform="matrix(0.010850694444444444,0,0,0.010850694444444444,35.92664930555555,0)" xlink:href="#ab"/><use transform="matrix(0.010850694444444444,0,0,0.010850694444444444,47.98177083333333,0)" xlink:href="#P"/><use transform="matrix(0.010850694444444444,0,0,0.010850694444444444,60.937499999999986,0)" xlink:href="#N"/></g></defs></g></svg>