<svg xmlns="http://www.w3.org/2000/svg" xmlns:xlink="http://www.w3.org/1999/xlink" xmlns:lucid="lucid" width="1362" height="1922"><g transform="translate(-438.99999998724326 321.0000000043272)" lucid:page-tab-id="0_0"><path d="M0-500h2000v2500H0z" fill="#fff"/><path d="M440-314a6 6 0 0 1 6-6h908a6 6 0 0 1 6 6V-6a6 6 0 0 1-6 6H446a6 6 0 0 1-6-6z" fill="#fff" fill-opacity="0"/><path d="M466.18-320h20.18m10.08 0h20.18m10.1 0h20.17m10.08 0h20.18m10.08 0h20.18m10.1 0h20.17m10.08 0h20.18m10.08 0h20.18m10.1 0h20.17m10.08 0h20.18m10.08 0h20.18m10.1 0h20.17m10.08 0h20.18m10.08 0h20.18m10.1 0h20.17m10.08 0h20.18m10.08 0h20.18m10.1 0h20.17m10.08 0h20.18m10.08 0h20.18m10.1 0h20.17m10.08 0h20.18m10.08 0h20.18m10.1 0h20.17m10.08 0h20.18m10.08 0h20.18m10.1 0h20.17m10.08 0h20.18m10.08 0h20.18m10.1 0H1354l.94.07.9.22.88.35.8.5.72.6.6.72.5.8.37.88.23.9.07.95v10.27m0 10.26v20.54m0 10.26v20.54m0 10.26v20.54m0 10.26v20.54m0 10.26v20.54m0 10.26v20.54m0 10.26v20.54m0 10.26v20.54m0 10.26v20.54m0 10.26V-6l-.07.94-.22.9-.35.88-.5.8-.6.72-.72.6-.8.5-.88.37-.9.23-.95.07h-10.1m-10.08 0h-20.18m-10.08 0h-20.18m-10.1 0h-20.17m-10.08 0h-20.18m-10.08 0h-20.18m-10.1 0h-20.17m-10.08 0h-20.18m-10.08 0h-20.18m-10.1 0h-20.17m-10.08 0h-20.18m-10.08 0h-20.18m-10.1 0h-20.17m-10.08 0h-20.18m-10.08 0h-20.18m-10.1 0h-20.17m-10.08 0h-20.18m-10.08 0h-20.18m-10.1 0h-20.17m-10.08 0h-20.18m-10.08 0h-20.18m-10.1 0h-20.17m-10.08 0h-20.18m-10.08 0h-20.18m-10.1 0h-20.17m-10.08 0h-20.18m-10.08 0h-20.18m-10.1 0h-20.17m-10.08 0h-20.18m-10.08 0h-20.18m-10.1 0H446l-.94-.07-.9-.22-.88-.35-.8-.5-.72-.6-.6-.72-.5-.8-.37-.88-.23-.9L440-6v-10.27m0-10.26v-20.54m0-10.26v-20.54m0-10.26v-20.54m0-10.26v-20.54m0-10.26v-20.54m0-10.26v-20.54m0-10.26v-20.54m0-10.26v-20.54m0-10.26v-20.54m0-10.26V-314l.07-.94.22-.9.35-.88.5-.8.6-.72.72-.6.8-.5.88-.37.9-.23.95-.07h10.1" stroke="#0e76d4" stroke-width="2" fill="none"/><path d="M440-320h56v56h-56v-56z" stroke="#000" stroke-opacity="0" fill-opacity="0"/><path d="M468.05-294.4c-.07 0-.12-.03-.2-.07l-11.77-6.78c-.1-.08-.17-.2-.17-.32 0-.13.1-.24.18-.3l11.7-6.75c.12-.06.25-.06.37 0l11.77 6.8c.1.05.17.18.17.3 0 .14-.1.25-.18.3l-11.7 6.75c-.05.04-.12.06-.17.06z" stroke="#000" stroke-opacity="0" fill="#3999c6"/><path d="M466.35-277.9c-.06 0-.13-.02-.2-.05l-11.7-6.78c-.13-.06-.2-.17-.2-.3v-13.6c0-.1.06-.24.2-.3.1-.07.23-.07.34 0l11.72 6.78c.1.07.18.17.18.3v13.6c0 .12-.07.24-.18.3-.06.03-.1.05-.17.05zM469.67-277.9c-.06 0-.13-.02-.2-.05-.1-.06-.16-.18-.16-.3v-13.5c0-.13.07-.25.18-.32l11.73-6.77c.12-.07.26-.07.37 0 .1.06.18.2.18.3v13.5c0 .15-.07.25-.18.32l-11.73 6.78c-.05.02-.1.04-.17.04z" stroke="#000" stroke-opacity="0" fill="#59b4d9"/><path d="M469.67-277.9c-.06 0-.13-.02-.2-.05-.1-.06-.16-.18-.16-.3v-13.5c0-.13.07-.25.18-.32l11.73-6.77c.12-.07.26-.07.37 0 .1.06.18.2.18.3v13.5c0 .15-.07.25-.18.32l-11.73 6.78c-.05.02-.1.04-.17.04z" stroke="#000" stroke-opacity="0" fill="#fff" fill-opacity="0"/><path d="M455.65-276.4c-.2 0-.4-.06-.58-.15l-5.48-3.17c-.93-.5-1.6-1.67-1.6-2.74v-20.14c0-1.06.67-2.22 1.6-2.74l5.47-3.16c.55-.33 1.27-.13 1.58.42.33.54.14 1.25-.42 1.58l-5.48 3.16c-.2.13-.42.52-.42.74v20.14c0 .23.23.6.42.74l5.48 3.17c.56.32.75 1.03.42 1.58-.2.38-.6.58-1 .58zM480.35-308.67c.2 0 .4.07.58.17l5.48 3.16c.93.5 1.6 1.68 1.6 2.74v20.14c0 1.06-.67 2.23-1.6 2.74l-5.47 3.17c-.55.32-1.27.12-1.58-.43-.33-.54-.14-1.25.42-1.58l5.48-3.16c.2-.13.42-.5.42-.74v-20.14c0-.22-.23-.6-.42-.74l-5.48-3.16c-.56-.33-.75-1.04-.42-1.6.2-.37.6-.57 1-.57z" stroke="#000" stroke-opacity="0" fill="#7a7a7a"/><path d="M680 166a6 6 0 0 1 6-6h428a6 6 0 0 1 6 6v1348a6 6 0 0 1-6 6H686a6 6 0 0 1-6-6z" stroke="#3a414a" stroke-width="2" fill="#fff"/><use xlink:href="#a" transform="matrix(1,0,0,1,685,165) translate(192.54991319444446 685.9809027777778)"/><path d="M600 86a6 6 0 0 1 6-6h1188a6 6 0 0 1 6 6v1508a6 6 0 0 1-6 6H606a6 6 0 0 1-6-6z" stroke="#3a414a" stroke-width="2" fill="#fff"/><path d="M700 166a6 6 0 0 1 6-6h348a6 6 0 0 1 6 6v1348a6 6 0 0 1-6 6H706a6 6 0 0 1-6-6z" stroke="#3a414a" stroke-width="2" fill="#fff"/><path d="M776.5 1160h200v200h-200z" fill="url(#b)"/><use xlink:href="#c" transform="matrix(1,0,0,1,746.5,1369) translate(70.92881944444444 21.52777777777778)"/><use xlink:href="#d" transform="matrix(1,0,0,1,746.5,1369) translate(153.66536458333331 21.52777777777778)"/><path d="M1340 166a6 6 0 0 1 6-6h348a6 6 0 0 1 6 6v1348a6 6 0 0 1-6 6h-348a6 6 0 0 1-6-6z" stroke="#3a414a" stroke-width="2" fill="#fff"/><path d="M876.5 943.62V820.5" stroke="#3a414a" fill="none"/><path d="M876.5 958.38l-4.63-14.26h9.26z" stroke="#3a414a" fill="#3a414a"/><path d="M876.98 820.5H876v-.5h.96z" stroke="#3a414a" stroke-width=".05" fill="#3a414a"/><path d="M776.5 260h200v218.18h-200z" fill="url(#e)"/><path d="M876.5 623.62V478.68" stroke="#3a414a" fill="none"/><path d="M876.5 638.38l-4.63-14.26h9.26z" stroke="#3a414a" fill="#3a414a"/><path d="M876.98 478.7H876v-.52h.96z" stroke="#3a414a" stroke-width=".05" fill="#3a414a"/><path d="M1420 260h200v218.18h-200z" fill="url(#f)"/><path d="M876.5 1143.62v-63.12" stroke="#3a414a" fill="none"/><path d="M876.5 1158.38l-4.63-14.26h9.26z" stroke="#3a414a" fill="#3a414a"/><path d="M876.98 1080.5H876v-.5h.96z" stroke="#3a414a" stroke-width=".05" fill="#3a414a"/><path d="M1520 943.62V820.5" stroke="#3a414a" fill="none"/><path d="M1520 958.38l-4.63-14.26h9.27z" stroke="#3a414a" fill="#3a414a"/><path d="M1520.47 820.5h-.94v-.5h.94z" stroke="#3a414a" stroke-width=".05" fill="#3a414a"/><path d="M1520 1143.62v-63.12" stroke="#3a414a" fill="none"/><path d="M1520 1158.38l-4.63-14.26h9.27z" stroke="#3a414a" fill="#3a414a"/><path d="M1520.47 1080.5h-.94v-.5h.94z" stroke="#3a414a" stroke-width=".05" fill="#3a414a"/><path d="M1520 623.62V478.68" stroke="#3a414a" fill="none"/><path d="M1520 638.38l-4.63-14.26h9.27z" stroke="#3a414a" fill="#3a414a"/><path d="M1520.47 478.7h-.94v-.52h.94z" stroke="#3a414a" stroke-width=".05" fill="#3a414a"/><path d="M500-260h200v200H500z" fill-opacity="0"/><path d="M600-260c-55.2 0-100 44.8-100 100S544.8-60 600-60s100-44.8 100-100-44.8-100-100-100zm0 186.4c-47.6 0-86.4-38.8-86.4-86.4 0-47.6 38.8-86.4 86.4-86.4 47.6 0 86.4 38.8 86.4 86.4 0 47.6-38.8 86.4-86.4 86.4z" fill="url(#g)"/><path d="M686.44-159.96c0 47.7-38.7 86.4-86.4 86.4s-86.4-38.7-86.4-86.4 38.7-86.4 86.4-86.4 86.4 38.7 86.4 86.4z" fill="#fff"/><path d="M652.08-179.65c8.43-8.44 8.43-22.13 0-30.57l-36.97-37.15c-8.4-8.25-22-8.25-30.4 0l-36.98 37.15c-8.43 8.44-8.43 22.13 0 30.57l30.77 31.33c1.16 1.13 1.74 2.63 1.74 4.32v57.4c0 1.88.7 3.76 2.1 5.07l14.17 14.07c1.88 2.06 4.92 2.06 6.8 0l13.68-13.5 7.96-8.08c1.05-1.12 1.05-2.8 0-3.93l-5.74-5.82c-1.17-1.12-1.17-3.18 0-4.3l5.74-5.82c1.05-1.13 1.05-2.8 0-3.94l-5.74-5.82c-1.17-1.12-1.17-3 0-4.3l5.74-5.83c1.05-1.13 1.05-2.82 0-3.95l-7.96-8.06v-3zm-52.18-58.53c6.67 0 12.17 5.44 12.17 12.2 0 6.56-5.5 12-12.17 12s-12.17-5.44-12.17-12c0-6.76 5.5-12.2 12.17-12.2z" fill="url(#h)"/><path d="M590.43-86.03c.5.42 1.06.63 1.7.63 1.5.05 2.74-1.15 2.77-2.67v-46.95c0-1-.47-1.84-1.3-2.36-.5-.3-1-.47-1.6-.42-1.42.1-2.5 1.36-2.4 2.78v46.95c.05.78.32 1.4.83 2.04zM573.68-197.8h54.24c2.2 0 3.28 1.1 3.28 3.3v.58c0 2.2-1.1 3.3-3.28 3.3h-54.24c-2.2 0-3.28-1.1-3.28-3.3v-.58c0-2.2 1.1-3.3 3.28-3.3zM573.68-186.2h54.24c2.2 0 3.28 1.1 3.28 3.3v.58c0 2.2-1.1 3.3-3.28 3.3h-54.24c-2.2 0-3.28-1.1-3.28-3.3v-.58c0-2.2 1.1-3.3 3.28-3.3z" fill="#ff9300" fill-opacity=".75"/><path d="M1100-260h200v200h-200z" fill-opacity="0"/><path d="M1261.6-81C1217.8-47.2 1155-55 1121-98.8c-33.8-43.8-26-106.6 17.8-140.6l1-.6c44.4-33.2 107.2-24 140.2 20.2 32.6 43.8 24.4 105.2-18.4 138.8" fill="url(#i)"/><path d="M1172.97-181.02c29.53-28.12 64.25-42.1 105.03-42.2-5.44-6.7-10.65-11.8-17.55-17-20.08 1.24-36.9 5.15-55.3 12.97-19.1 8.16-33.75 18.35-48.15 33.26 6.9 2.62 11.98 6.76 15.97 12.98zM1123.4-140.8c-4.27 10.57-7.2 19.8-9.8 30.88 2.3 4 4.5 7.2 7.34 10.86 2.13 2.72 4.13 5.2 6.5 7.66 3-14.77 6.83-27.02 12.76-40.9-6.6-1.2-11.94-3.86-16.8-8.5z" fill="#fff" fill-opacity=".6"/><path d="M1134.82-194.3c-4.37-11.78-6.8-22.22-8.1-34.7-5.2 5.47-9.06 10.62-12.9 17.13 1.4 10.03 3.4 18.44 6.68 28.07 3.86-5.02 8.38-8.36 14.32-10.5z" fill="#f2f2f2" fill-opacity=".55"/><path d="M1178-164c0 17.77-14.43 32.2-32.2 32.2-17.77 0-32.2-14.43-32.2-32.2 0-17.77 14.43-32.2 32.2-32.2 17.77 0 32.2 14.43 32.2 32.2z" fill="url(#j)"/><path d="M1192.65-105.1c0-5.9 2.13-10.88 6.35-14.96-11.47-6.3-20.43-12.87-29.82-21.94-4.88 5.27-10.52 8.4-17.58 9.78 5.6 5.74 10.7 10.22 17.1 15.1 7.97 6 15.18 10.4 24.18 14.72-.14-.95-.23-1.74-.23-2.7zM1266.97-102.63c-11.53.02-21.33-1.13-32.53-3.77.05.46.05.84 0 1.3 0 5.7-2 10.57-6.04 14.6 13.98 2.78 26.1 3.63 40.37 2.83 5.5-4.98 9.73-9.72 14.03-15.78-5.55.6-10.23.85-15.83.82z" fill="#f2f2f2" fill-opacity=".55"/><path d="M1234.6-105.2c0 11.6-9.4 21-21 21s-21-9.4-21-21 9.4-21 21-21 21 9.4 21 21z" fill="url(#k)"/><path d="M1239.4-161c1.06-4.84 3.37-8.65 7.2-11.78-20.47-14.9-36.22-29.54-52.6-48.83-9.52-11.13-16.55-21.48-23.58-34.4-4.63 1.43-8.46 2.85-12.82 4.94 7.48 14.06 15.04 25.27 25.37 37.53 17.44 20.8 34.44 36.57 56.42 52.53z" fill="#f2f2f2" fill-opacity=".7"/><path d="M1283.6-156.9c0 12.3-10 22.3-22.3 22.3s-22.3-10-22.3-22.3 10-22.3 22.3-22.3 22.3 10 22.3 22.3z" fill="url(#l)"/><path d="M1298.6-142.07l-4.12-2-3.53-1.9h-.7l-3.05-2.48h-.84l-3.63-2.35c-1.33 4.54-3.74 8.04-7.53 10.87 1.4.92 2.95 1.77 4.47 2.6l.93.57 4.12 2.25 10.1 5.3c1.5-4.5 2.54-8.42 3.43-13.1z" fill="#f2f2f2" fill-opacity=".55"/><path d="M1178-164c0 17.77-14.43 32.2-32.2 32.2-17.77 0-32.2-14.43-32.2-32.2 0-17.77 14.43-32.2 32.2-32.2 17.77 0 32.2 14.43 32.2 32.2z" fill="url(#m)"/><path d="M1234.6-105.2c0 11.6-9.4 21-21 21s-21-9.4-21-21 9.4-21 21-21 21 9.4 21 21z" fill="url(#n)"/><path d="M1099.5-160H716.38" stroke="#3a414a" fill="none"/><path d="M1100-159.53h-.5v-.94h.5z" stroke="#3a414a" stroke-width=".05" fill="#3a414a"/><path d="M701.62-160l14.26-4.63v9.26z" stroke="#3a414a" fill="#3a414a"/><path d="M816.5 960h120v120h-120z" fill="url(#o)"/><path d="M1460 960h120v120h-120z" fill="url(#p)"/><path d="M1200-59.5V94a6 6 0 0 1-6 6H882.5a6 6 0 0 0-6 6v137.62" stroke="#3a414a" fill="none"/><path d="M1200.47-59.5h-.94v-.5h.94z" stroke="#3a414a" stroke-width=".05" fill="#3a414a"/><path d="M876.5 258.38l-4.63-14.26h9.26z" stroke="#3a414a" fill="#3a414a"/><path d="M1200-59.5V94a6 6 0 0 0 6 6h308a6 6 0 0 1 6 6v137.62" stroke="#3a414a" fill="none"/><path d="M1200.47-59.5h-.94v-.5h.94z" stroke="#3a414a" stroke-width=".05" fill="#3a414a"/><path d="M1520 258.38l-4.63-14.26h9.27z" stroke="#3a414a" fill="#3a414a"/><path d="M785 640h183v180H785z" fill="url(#q)"/><path d="M1428.5 640h183v180h-183z" fill="url(#r)"/><path d="M976.5 1005.1a6 6 0 0 1 6-6h188a6 6 0 0 1 6 6v29.8a6 6 0 0 1-6 6h-188a6 6 0 0 1-6-6z" stroke="#3a414a" stroke-width="2" fill="#fff"/><use xlink:href="#s" transform="matrix(1,0,0,1,981.5,1004.0909090909091) translate(26.42903645833333 23.52777777777778)"/><path d="M976.5 646a6 6 0 0 1 6-6h188a6 6 0 0 1 6 6v29.82a6 6 0 0 1-6 6h-188a6 6 0 0 1-6-6z" stroke="#3a414a" stroke-width="2" fill="#fff"/><use xlink:href="#t" transform="matrix(1,0,0,1,981.5,645) translate(41.49522569444445 23.52777777777778)"/><path d="M976.5 706a6 6 0 0 1 6-6h188a6 6 0 0 1 6 6v29.82a6 6 0 0 1-6 6h-188a6 6 0 0 1-6-6z" stroke="#3a414a" stroke-width="2" fill="#fff"/><use xlink:href="#u" transform="matrix(1,0,0,1,981.5,705) translate(27.421875 23.52777777777778)"/><path d="M1228.5 646a6 6 0 0 1 6-6h188a6 6 0 0 1 6 6v29.82a6 6 0 0 1-6 6h-188a6 6 0 0 1-6-6z" stroke="#3a414a" stroke-width="2" fill="#fff"/><use xlink:href="#t" transform="matrix(1,0,0,1,1233.5,645) translate(41.49522569444445 23.52777777777778)"/><path d="M1228.5 706a6 6 0 0 1 6-6h188a6 6 0 0 1 6 6v29.82a6 6 0 0 1-6 6h-188a6 6 0 0 1-6-6z" stroke="#3a414a" stroke-width="2" fill="#fff"/><use xlink:href="#v" transform="matrix(1,0,0,1,1233.5,705) translate(29.62456597222223 23.52777777777778)"/><path d="M1228.5 1005.1a6 6 0 0 1 6-6h188a6 6 0 0 1 6 6v29.8a6 6 0 0 1-6 6h-188a6 6 0 0 1-6-6z" stroke="#3a414a" stroke-width="2" fill="#fff"/><use xlink:href="#w" transform="matrix(1,0,0,1,1233.5,1004.0909090909091) translate(26.163194444444457 23.52777777777778)"/><path d="M976.5 186a6 6 0 0 1 6-6h188a6 6 0 0 1 6 6v29.82a6 6 0 0 1-6 6h-188a6 6 0 0 1-6-6z" stroke="#3a414a" stroke-width="2" fill="#fff"/><use xlink:href="#x" transform="matrix(1,0,0,1,981.5,185) translate(39.11892361111111 23.52777777777778)"/><path d="M1228.5 186a6 6 0 0 1 6-6h188a6 6 0 0 1 6 6v29.82a6 6 0 0 1-6 6h-188a6 6 0 0 1-6-6z" stroke="#3a414a" stroke-width="2" fill="#fff"/><use xlink:href="#y" transform="matrix(1,0,0,1,1233.5,185) translate(42.005208333333336 23.52777777777778)"/><path d="M620 106a6 6 0 0 1 6-6h188a6 6 0 0 1 6 6v29.82a6 6 0 0 1-6 6H626a6 6 0 0 1-6-6z" stroke="#3a414a" stroke-width="2" fill="#fff"/><use xlink:href="#z" transform="matrix(1,0,0,1,625,105) translate(22.93511284722223 23.52777777777778)"/><path d="M1420 1160h200v200h-200z" fill="url(#A)"/><use xlink:href="#B" transform="matrix(1,0,0,1,1390,1369) translate(49.48784722222223 21.52777777777778)"/><use xlink:href="#C" transform="matrix(1,0,0,1,1390,1369) translate(99.55295138888889 21.52777777777778)"/><use xlink:href="#d" transform="matrix(1,0,0,1,1390,1369) translate(175.10633680555554 21.52777777777778)"/><path d="M716.5 1446a6 6 0 0 1 6-6h308a6 6 0 0 1 6 6v28a6 6 0 0 1-6 6h-308a6 6 0 0 1-6-6z" fill="#fff"/><use xlink:href="#D" transform="matrix(1,0,0,1,721.5,1445) translate(33.30403645833333 23.40277777777778)"/><use xlink:href="#E" transform="matrix(1,0,0,1,721.5,1445) translate(162.4924045138889 23.40277777777778)"/><path d="M1360 1446a6 6 0 0 1 6-6h308a6 6 0 0 1 6 6v28a6 6 0 0 1-6 6h-308a6 6 0 0 1-6-6z" fill="#fff"/><g><use xlink:href="#F" transform="matrix(1,0,0,1,1365,1445) translate(35.810546875 23.40277777777778)"/><use xlink:href="#E" transform="matrix(1,0,0,1,1365,1445) translate(159.98589409722223 23.40277777777778)"/></g><defs><path d="M98-1322v-168h1126v168H757V0H567v-1322H98" id="G"/><path d="M628 24c-324 0-524-230-524-574 0-343 198-582 503-582 237 0 487 146 487 559v75H286c9 234 145 362 343 362 132 0 231-58 273-172l174 48C1024-91 857 24 628 24zM287-650h624c-17-190-120-322-304-322-192 0-309 151-320 322" id="H"/><path d="M65 0l393-574-370-544h210c88 136 192 297 267 435 67-142 176-302 264-435h206L661-564 1053 0H844c-94-144-206-310-287-458C484-308 366-142 273 0H65" id="I"/><path d="M598-1118v154H368v674c0 100 37 144 132 144 23 0 62-6 92-12L629-6c-37 13-88 20-134 20-193 0-307-107-307-290v-688H20v-154h168v-266h180v266h230" id="J"/><g id="a"><use transform="matrix(0.010850694444444444,0,0,0.010850694444444444,0,0)" xlink:href="#G"/><use transform="matrix(0.010850694444444444,0,0,0.010850694444444444,12.608506944444445,0)" xlink:href="#H"/><use transform="matrix(0.010850694444444444,0,0,0.010850694444444444,25.065104166666664,0)" xlink:href="#I"/><use transform="matrix(0.010850694444444444,0,0,0.010850694444444444,37.63020833333333,0)" xlink:href="#J"/></g><image width="10" height="10" id="K" xlink:href="https://cdn-cashy-static-assets.lucidchart.com/libraries/OracleCloudInfrastructure/preview-pngs/VirtualMachine.png" preserveAspectRatio="none"/><pattern id="b" patternUnits="userSpaceOnUse" x="776.5" y="1160" width="200" height="200"><use xlink:href="#K" transform="translate(0, 0) scale(20,20)"/></pattern><path d="M180 0v-1490h270l367 940c28 72 75 218 110 339 35-117 81-264 110-339l362-940h271V0h-187c2-448-5-837 7-1287-157 497-311 829-483 1287H842C666-458 514-784 354-1284c12 438 5 843 7 1284H180" id="L"/><path d="M140 405l46-156c120 36 205 19 263-150l32-93L54-1118h197c107 313 237 620 324 950 87-331 219-637 326-950h196L606 167c-68 178-176 259-334 259-64 0-113-12-132-21" id="M"/><path d="M657 26c-323 0-524-166-541-416h195c15 169 171 246 346 246 202 0 356-106 356-265 5-203-294-238-475-293-239-73-380-191-380-389 0-252 224-419 512-419 294 0 499 171 508 396H992c-17-145-151-228-328-228-193 0-321 102-321 242 0 156 175 211 284 241l149 41c160 44 422 134 422 412 0 244-197 432-541 432" id="N"/><path d="M784 20c-382 0-662-292-662-764 0-473 280-766 662-766s660 293 660 766c0 282-99 499-260 629l192 255h-198L1049-33C969 2 880 20 784 20zm-62-486h198l156 205c112-98 183-261 183-483 0-383-209-590-475-590-268 0-477 208-477 590 0 380 209 588 477 588 54 0 106-9 154-25" id="O"/><path d="M180 0v-1490h190v1322h690V0H180" id="P"/><g id="c"><use transform="matrix(0.010850694444444444,0,0,0.010850694444444444,0,0)" xlink:href="#L"/><use transform="matrix(0.010850694444444444,0,0,0.010850694444444444,20.182291666666664,0)" xlink:href="#M"/><use transform="matrix(0.010850694444444444,0,0,0.010850694444444444,32.67144097222222,0)" xlink:href="#N"/><use transform="matrix(0.010850694444444444,0,0,0.010850694444444444,46.92925347222222,0)" xlink:href="#O"/><use transform="matrix(0.010850694444444444,0,0,0.010850694444444444,63.92144097222222,0)" xlink:href="#P"/></g><path d="M600 0L52-1490h200c166 485 304 806 458 1336 156-533 285-846 449-1336h202L819 0H600" id="Q"/><g id="d"><use transform="matrix(0.010850694444444444,0,0,0.010850694444444444,0,0)" xlink:href="#Q"/><use transform="matrix(0.010850694444444444,0,0,0.010850694444444444,15.33203125,0)" xlink:href="#L"/></g><image width="10" height="10" id="R" xlink:href="https://cdn-cashy-static-assets.lucidchart.com/libraries/OracleCloudInfrastructure/preview-pngs/InternetGateway.png" preserveAspectRatio="none"/><pattern id="e" patternUnits="userSpaceOnUse" x="776.5" y="260" width="200" height="218.18"><use xlink:href="#R" transform="translate(0, 0) scale(20,21.81818181818182)"/></pattern><pattern id="f" patternUnits="userSpaceOnUse" x="1420" y="260" width="200" height="218.18"><use xlink:href="#R" transform="translate(0, 0) scale(20,21.81818181818182)"/></pattern><radialGradient gradientUnits="userSpaceOnUse" id="g" fx="600" fy="-160" cx="600" cy="-160" r="100"><stop offset="18%" stop-color="#5ea0ef"/><stop offset="56%" stop-color="#5c9fee"/><stop offset="69%" stop-color="#559ced"/><stop offset="78%" stop-color="#4a97e9"/><stop offset="86%" stop-color="#3990e4"/><stop offset="93%" stop-color="#2387de"/><stop offset="99%" stop-color="#087bd6"/><stop offset="100%" stop-color="#0078d4"/></radialGradient><radialGradient gradientUnits="userSpaceOnUse" id="h" fx="587" fy="-172.91" cx="587" cy="-172.91" r="109.22"><stop offset="27%" stop-color="#ffd70f"/><stop offset="49%" stop-color="#ffcb12"/><stop offset="88%" stop-color="#feac19"/><stop offset="100%" stop-color="#fea11b"/></radialGradient><radialGradient gradientUnits="userSpaceOnUse" id="i" fx="1200.1" fy="-160.22" cx="1200.1" cy="-160.22" r="100.17"><stop offset="18%" stop-color="#5ea0ef"/><stop offset="100%" stop-color="#0078d4"/></radialGradient><linearGradient gradientUnits="userSpaceOnUse" id="j" x1="1146.04" y1="-130.97" x2="1145.68" y2="-177.56"><stop offset="0%" stop-color="#ccc"/><stop offset="100%" stop-color="#fcfcfc"/></linearGradient><linearGradient gradientUnits="userSpaceOnUse" id="k" x1="1213.6" y1="-84.2" x2="1213.6" y2="-126.08"><stop offset="0%" stop-color="#ccc"/><stop offset="100%" stop-color="#fcfcfc"/></linearGradient><linearGradient gradientUnits="userSpaceOnUse" id="l" x1="1261.3" y1="-134.72" x2="1261.3" y2="-179.2"><stop offset="0%" stop-color="#ccc"/><stop offset="100%" stop-color="#fcfcfc"/></linearGradient><linearGradient gradientUnits="userSpaceOnUse" id="m" x1="1146.04" y1="-130.97" x2="1145.68" y2="-177.56"><stop offset="0%" stop-color="#ccc"/><stop offset="100%" stop-color="#fcfcfc"/></linearGradient><linearGradient gradientUnits="userSpaceOnUse" id="n" x1="1213.6" y1="-84.2" x2="1213.6" y2="-126.08"><stop offset="0%" stop-color="#ccc"/><stop offset="100%" stop-color="#fcfcfc"/></linearGradient><image width="10" height="10" id="S" xlink:href="https://cdn-cashy-static-assets.lucidchart.com/libraries/OracleCloudInfrastructure/preview-pngs/VNIC.png" preserveAspectRatio="none"/><pattern id="o" patternUnits="userSpaceOnUse" x="816.5" y="960" width="120" height="120"><use xlink:href="#S" transform="translate(0, 0) scale(12,12)"/></pattern><pattern id="p" patternUnits="userSpaceOnUse" x="1460" y="960" width="120" height="120"><use xlink:href="#S" transform="translate(0, 0) scale(12,12)"/></pattern><image width="10" height="10" id="T" xlink:href="https://cdn-cashy-static-assets.lucidchart.com/libraries/OracleCloudInfrastructure/preview-pngs/SecurityLists.png" preserveAspectRatio="none"/><pattern id="q" patternUnits="userSpaceOnUse" x="785" y="640" width="183" height="180"><use xlink:href="#T" transform="translate(0, 0) scale(18.3,18)"/></pattern><pattern id="r" patternUnits="userSpaceOnUse" x="1428.5" y="640" width="183" height="180"><use xlink:href="#T" transform="translate(0, 0) scale(18.3,18)"/></pattern><path d="M653-1490V0H466v-1314h-10L96-1047v-204l324-239h233" id="U"/><path d="M603 20c-253 0-434-161-469-399h188c31 132 124 231 281 231 227 0 367-207 367-568h-12c-80 122-211 199-367 199-257 0-469-206-469-493 0-278 200-505 506-500 245 4 520 158 520 706 0 527-208 824-545 824zm16-703c181 0 324-157 324-332 0-171-135-328-318-328-180 0-317 148-317 332 0 183 131 328 311 328" id="V"/><path d="M154 0v-137l495-537c165-179 249-281 249-418 0-156-121-253-280-253-170 0-278 110-278 278H158c0-264 200-443 465-443 266 0 455 183 455 416 0 161-73 288-336 568L416-179v12h687V0H154" id="W"/><path d="M295 13c-75 0-135-60-135-135s60-135 135-135 135 60 135 135S370 13 295 13" id="X"/><path d="M633 20c-303 0-511-173-511-416 0-188 124-348 291-378v-8c-145-37-237-174-237-332 0-227 192-396 457-396 261 0 456 169 456 396 0 158-94 295-235 332v8c162 30 291 190 291 378 0 243-212 416-512 416zm0-165c197 0 322-103 322-261 0-165-138-283-322-283-188 0-324 118-324 283 0 158 123 261 324 261zm0-703c157 0 272-101 272-252 0-149-110-246-272-246-165 0-273 97-273 246 0 151 112 252 273 252" id="Y"/><path d="M635 20c-292 0-500-160-510-396h192c11 142 145 229 315 229 187 0 323-105 323-260 0-161-125-274-346-274H488v-165h121c174 0 294-100 294-254 0-148-104-245-266-245-152 0-291 85-297 230H157c8-234 222-395 484-395 278 0 448 188 448 400 0 168-95 291-247 336v12c190 31 301 169 301 357 0 244-216 425-508 425" id="Z"/><path d="M120-303v-155l652-1032h231v1020h202v167h-202V0H821v-303H120zm702-167v-782h-12L323-482v12h499" id="aa"/><path d="M626 20c-262 0-458-168-468-396h184c12 133 134 229 284 229 180 0 311-137 311-326 0-192-136-335-323-335-92 0-196 33-255 78l-178-22 88-738h784v167H429l-51 435h8c61-51 160-87 263-87 273 0 474 211 474 499 0 286-210 496-497 496" id="ab"/><g id="s"><use transform="matrix(0.010850694444444444,0,0,0.010850694444444444,0,0)" xlink:href="#U"/><use transform="matrix(0.010850694444444444,0,0,0.010850694444444444,9.038628472222221,0)" xlink:href="#V"/><use transform="matrix(0.010850694444444444,0,0,0.010850694444444444,22.819010416666664,0)" xlink:href="#W"/><use transform="matrix(0.010850694444444444,0,0,0.010850694444444444,36.37152777777777,0)" xlink:href="#X"/><use transform="matrix(0.010850694444444444,0,0,0.010850694444444444,40.85286458333333,0)" xlink:href="#U"/><use transform="matrix(0.010850694444444444,0,0,0.010850694444444444,49.89149305555556,0)" xlink:href="#Y"/><use transform="matrix(0.010850694444444444,0,0,0.010850694444444444,63.14019097222221,0)" xlink:href="#X"/><use transform="matrix(0.010850694444444444,0,0,0.010850694444444444,67.62152777777777,0)" xlink:href="#U"/><use transform="matrix(0.010850694444444444,0,0,0.010850694444444444,76.66015625,0)" xlink:href="#Z"/><use transform="matrix(0.010850694444444444,0,0,0.010850694444444444,90.38628472222221,0)" xlink:href="#aa"/><use transform="matrix(0.010850694444444444,0,0,0.010850694444444444,103.99305555555556,0)" xlink:href="#X"/><use transform="matrix(0.010850694444444444,0,0,0.010850694444444444,110.0802951388889,0)" xlink:href="#ab"/><use transform="matrix(0.010850694444444444,0,0,0.010850694444444444,123.58940972222224,0)" xlink:href="#W"/></g><path d="M646 20c-332 0-524-278-524-764 0-483 194-766 524-766s524 283 524 766c0 485-191 764-524 764zm0-166c218 0 341-220 341-598 0-380-123-601-341-601s-341 222-341 601c0 378 123 598 341 598" id="ac"/><path d="M692-1560L212 224H46l480-1784h166" id="ad"/><g id="t"><use transform="matrix(0.010850694444444444,0,0,0.010850694444444444,0,0)" xlink:href="#ac"/><use transform="matrix(0.010850694444444444,0,0,0.010850694444444444,13.45486111111111,0)" xlink:href="#X"/><use transform="matrix(0.010850694444444444,0,0,0.010850694444444444,19.29253472222222,0)" xlink:href="#ac"/><use transform="matrix(0.010850694444444444,0,0,0.010850694444444444,32.74739583333333,0)" xlink:href="#X"/><use transform="matrix(0.010850694444444444,0,0,0.010850694444444444,38.585069444444436,0)" xlink:href="#ac"/><use transform="matrix(0.010850694444444444,0,0,0.010850694444444444,52.03993055555554,0)" xlink:href="#X"/><use transform="matrix(0.010850694444444444,0,0,0.010850694444444444,57.87760416666666,0)" xlink:href="#ac"/><use transform="matrix(0.010850694444444444,0,0,0.010850694444444444,71.89670138888887,0)" xlink:href="#ad"/><use transform="matrix(0.010850694444444444,0,0,0.010850694444444444,79.90451388888887,0)" xlink:href="#W"/><use transform="matrix(0.010850694444444444,0,0,0.010850694444444444,93.45703124999997,0)" xlink:href="#W"/></g><path d="M646 20c-249 0-524-159-524-708 0-524 209-822 547-822 250 0 431 161 467 395H950c-33-129-126-227-281-227-229 0-367 208-367 566h12c80-124 212-198 367-198 255 0 467 205 467 493 0 278-198 501-502 501zm0-167c179 0 318-148 318-334 0-182-133-328-313-328-181 0-322 156-322 330 0 176 134 332 317 332" id="ae"/><g id="u"><use transform="matrix(0.010850694444444444,0,0,0.010850694444444444,0,0)" xlink:href="#ac"/><use transform="matrix(0.010850694444444444,0,0,0.010850694444444444,13.45486111111111,0)" xlink:href="#X"/><use transform="matrix(0.010850694444444444,0,0,0.010850694444444444,19.29253472222222,0)" xlink:href="#ac"/><use transform="matrix(0.010850694444444444,0,0,0.010850694444444444,32.74739583333333,0)" xlink:href="#X"/><use transform="matrix(0.010850694444444444,0,0,0.010850694444444444,38.585069444444436,0)" xlink:href="#ac"/><use transform="matrix(0.010850694444444444,0,0,0.010850694444444444,52.03993055555554,0)" xlink:href="#X"/><use transform="matrix(0.010850694444444444,0,0,0.010850694444444444,57.87760416666666,0)" xlink:href="#ac"/><use transform="matrix(0.010850694444444444,0,0,0.010850694444444444,71.89670138888887,0)" xlink:href="#ad"/><use transform="matrix(0.010850694444444444,0,0,0.010850694444444444,79.90451388888887,0)" xlink:href="#Z"/><use transform="matrix(0.010850694444444444,0,0,0.010850694444444444,93.63064236111109,0)" xlink:href="#Z"/><use transform="matrix(0.010850694444444444,0,0,0.010850694444444444,107.35677083333331,0)" xlink:href="#ac"/><use transform="matrix(0.010850694444444444,0,0,0.010850694444444444,121.37586805555556,0)" xlink:href="#ae"/></g><g id="v"><use transform="matrix(0.010850694444444444,0,0,0.010850694444444444,0,0)" xlink:href="#ac"/><use transform="matrix(0.010850694444444444,0,0,0.010850694444444444,13.45486111111111,0)" xlink:href="#X"/><use transform="matrix(0.010850694444444444,0,0,0.010850694444444444,19.29253472222222,0)" xlink:href="#ac"/><use transform="matrix(0.010850694444444444,0,0,0.010850694444444444,32.74739583333333,0)" xlink:href="#X"/><use transform="matrix(0.010850694444444444,0,0,0.010850694444444444,38.585069444444436,0)" xlink:href="#ac"/><use transform="matrix(0.010850694444444444,0,0,0.010850694444444444,52.03993055555554,0)" xlink:href="#X"/><use transform="matrix(0.010850694444444444,0,0,0.010850694444444444,57.87760416666666,0)" xlink:href="#ac"/><use transform="matrix(0.010850694444444444,0,0,0.010850694444444444,71.89670138888887,0)" xlink:href="#ad"/><use transform="matrix(0.010850694444444444,0,0,0.010850694444444444,79.90451388888887,0)" xlink:href="#U"/><use transform="matrix(0.010850694444444444,0,0,0.010850694444444444,88.94314236111109,0)" xlink:href="#aa"/><use transform="matrix(0.010850694444444444,0,0,0.010850694444444444,103.29861111111109,0)" xlink:href="#Z"/><use transform="matrix(0.010850694444444444,0,0,0.010850694444444444,117.02473958333331,0)" xlink:href="#Z"/></g><g id="w"><use transform="matrix(0.010850694444444444,0,0,0.010850694444444444,0,0)" xlink:href="#U"/><use transform="matrix(0.010850694444444444,0,0,0.010850694444444444,9.038628472222221,0)" xlink:href="#V"/><use transform="matrix(0.010850694444444444,0,0,0.010850694444444444,22.819010416666664,0)" xlink:href="#W"/><use transform="matrix(0.010850694444444444,0,0,0.010850694444444444,36.37152777777777,0)" xlink:href="#X"/><use transform="matrix(0.010850694444444444,0,0,0.010850694444444444,42.62152777777777,0)" xlink:href="#V"/><use transform="matrix(0.010850694444444444,0,0,0.010850694444444444,55.8376736111111,0)" xlink:href="#X"/><use transform="matrix(0.010850694444444444,0,0,0.010850694444444444,60.31901041666666,0)" xlink:href="#U"/><use transform="matrix(0.010850694444444444,0,0,0.010850694444444444,69.35763888888889,0)" xlink:href="#aa"/><use transform="matrix(0.010850694444444444,0,0,0.010850694444444444,83.71310763888889,0)" xlink:href="#ab"/><use transform="matrix(0.010850694444444444,0,0,0.010850694444444444,96.62543402777777,0)" xlink:href="#X"/><use transform="matrix(0.010850694444444444,0,0,0.010850694444444444,101.10677083333333,0)" xlink:href="#U"/><use transform="matrix(0.010850694444444444,0,0,0.010850694444444444,110.14539930555556,0)" xlink:href="#ab"/><use transform="matrix(0.010850694444444444,0,0,0.010850694444444444,123.65451388888887,0)" xlink:href="#ac"/></g><g id="x"><use transform="matrix(0.010850694444444444,0,0,0.010850694444444444,0,0)" xlink:href="#U"/><use transform="matrix(0.010850694444444444,0,0,0.010850694444444444,9.038628472222221,0)" xlink:href="#ac"/><use transform="matrix(0.010850694444444444,0,0,0.010850694444444444,22.493489583333332,0)" xlink:href="#X"/><use transform="matrix(0.010850694444444444,0,0,0.010850694444444444,28.331163194444443,0)" xlink:href="#ac"/><use transform="matrix(0.010850694444444444,0,0,0.010850694444444444,41.78602430555556,0)" xlink:href="#X"/><use transform="matrix(0.010850694444444444,0,0,0.010850694444444444,47.623697916666664,0)" xlink:href="#ac"/><use transform="matrix(0.010850694444444444,0,0,0.010850694444444444,61.07855902777778,0)" xlink:href="#X"/><use transform="matrix(0.010850694444444444,0,0,0.010850694444444444,66.91623263888889,0)" xlink:href="#ac"/><use transform="matrix(0.010850694444444444,0,0,0.010850694444444444,80.93532986111111,0)" xlink:href="#ad"/><use transform="matrix(0.010850694444444444,0,0,0.010850694444444444,88.94314236111111,0)" xlink:href="#U"/><use transform="matrix(0.010850694444444444,0,0,0.010850694444444444,97.98177083333334,0)" xlink:href="#ae"/></g><g id="y"><use transform="matrix(0.010850694444444444,0,0,0.010850694444444444,0,0)" xlink:href="#U"/><use transform="matrix(0.010850694444444444,0,0,0.010850694444444444,9.038628472222221,0)" xlink:href="#ac"/><use transform="matrix(0.010850694444444444,0,0,0.010850694444444444,22.493489583333332,0)" xlink:href="#X"/><use transform="matrix(0.010850694444444444,0,0,0.010850694444444444,26.97482638888889,0)" xlink:href="#U"/><use transform="matrix(0.010850694444444444,0,0,0.010850694444444444,36.01345486111111,0)" xlink:href="#X"/><use transform="matrix(0.010850694444444444,0,0,0.010850694444444444,41.851128472222214,0)" xlink:href="#ac"/><use transform="matrix(0.010850694444444444,0,0,0.010850694444444444,55.30598958333332,0)" xlink:href="#X"/><use transform="matrix(0.010850694444444444,0,0,0.010850694444444444,61.143663194444436,0)" xlink:href="#ac"/><use transform="matrix(0.010850694444444444,0,0,0.010850694444444444,75.16276041666666,0)" xlink:href="#ad"/><use transform="matrix(0.010850694444444444,0,0,0.010850694444444444,83.17057291666666,0)" xlink:href="#U"/><use transform="matrix(0.010850694444444444,0,0,0.010850694444444444,92.20920138888889,0)" xlink:href="#ae"/></g><path d="M783 20c-382 0-661-292-661-764 0-473 279-766 661-766 302 0 548 182 601 489h-190c-42-204-217-313-411-313-268 0-476 208-476 590 0 381 209 588 476 588 195 0 369-110 411-313h190c-52 303-296 489-601 489" id="af"/><path d="M613 24c-304 0-509-231-509-576 0-350 205-580 509-580 305 0 511 230 511 580 0 345-206 576-511 576zm0-161c226 0 329-195 329-415 0-222-103-419-329-419-223 0-326 196-326 419 0 220 103 415 326 415" id="ag"/><path d="M158 0v-1118h175l1 205c55-151 181-225 313-225 147 0 245 90 285 228 53-141 190-228 352-228 194 0 352 125 352 384V0h-181v-749c0-161-105-225-225-225-151 0-243 103-243 244V0H807v-767c0-124-93-207-219-207-131 0-250 92-250 270V0H158" id="ah"/><path d="M158 418v-1536h174v179h20c37-59 106-193 324-193 279 0 474 222 474 576 0 356-194 580-473 580-213 0-288-135-325-197h-14v591H158zm492-555c209 0 317-186 317-421 0-232-105-413-317-413-206 0-314 166-314 413 0 249 111 421 314 421" id="ai"/><path d="M471 26C259 26 90-98 90-318c0-256 228-303 435-329 202-27 287-16 287-108 0-139-79-219-234-219-161 0-248 86-283 164l-173-57c86-203 278-265 451-265 150 0 419 46 419 395V0H815v-152h-12C765-73 660 26 471 26zm31-159c199 0 310-134 310-271v-155c-30 35-226 55-295 64-131 17-246 59-246 186 0 116 97 176 231 176" id="aj"/><path d="M158 0v-1118h174v172h12c41-113 157-188 290-188 26 0 70 2 91 3v181c-11-2-60-10-108-10-161 0-279 109-279 260V0H158" id="ak"/><path d="M338-670V0H158v-1118h173l1 207c72-158 192-221 342-221 226 0 378 139 378 422V0H872v-695c0-172-96-275-252-275-161 0-282 109-282 300" id="al"/><g id="z"><use transform="matrix(0.010850694444444444,0,0,0.010850694444444444,0,0)" xlink:href="#af"/><use transform="matrix(0.010850694444444444,0,0,0.010850694444444444,16.23263888888889,0)" xlink:href="#ag"/><use transform="matrix(0.010850694444444444,0,0,0.010850694444444444,29.557291666666664,0)" xlink:href="#ah"/><use transform="matrix(0.010850694444444444,0,0,0.010850694444444444,49.0234375,0)" xlink:href="#ai"/><use transform="matrix(0.010850694444444444,0,0,0.010850694444444444,62.84722222222221,0)" xlink:href="#aj"/><use transform="matrix(0.010850694444444444,0,0,0.010850694444444444,75.32552083333333,0)" xlink:href="#ak"/><use transform="matrix(0.010850694444444444,0,0,0.010850694444444444,84.03862847222223,0)" xlink:href="#J"/><use transform="matrix(0.010850694444444444,0,0,0.010850694444444444,91.30859375,0)" xlink:href="#ah"/><use transform="matrix(0.010850694444444444,0,0,0.010850694444444444,110.77473958333333,0)" xlink:href="#H"/><use transform="matrix(0.010850694444444444,0,0,0.010850694444444444,123.73046875,0)" xlink:href="#al"/><use transform="matrix(0.010850694444444444,0,0,0.010850694444444444,136.85980902777777,0)" xlink:href="#J"/></g><pattern id="A" patternUnits="userSpaceOnUse" x="1420" y="1160" width="200" height="200"><use xlink:href="#K" transform="translate(0, 0) scale(20,20)"/></pattern><g id="B"><use transform="matrix(0.010850694444444444,0,0,0.010850694444444444,0,0)" xlink:href="#N"/><use transform="matrix(0.010850694444444444,0,0,0.010850694444444444,14.2578125,0)" xlink:href="#O"/><use transform="matrix(0.010850694444444444,0,0,0.010850694444444444,31.25,0)" xlink:href="#P"/></g><path d="M481 0L54-1118h197c107 314 236 620 325 951 87-331 217-637 324-951h197L670 0H481" id="am"/><g id="C"><use transform="matrix(0.010850694444444444,0,0,0.010850694444444444,0,0)" xlink:href="#N"/><use transform="matrix(0.010850694444444444,0,0,0.010850694444444444,14.2578125,0)" xlink:href="#H"/><use transform="matrix(0.010850694444444444,0,0,0.010850694444444444,27.213541666666664,0)" xlink:href="#ak"/><use transform="matrix(0.010850694444444444,0,0,0.010850694444444444,35.92664930555555,0)" xlink:href="#am"/><use transform="matrix(0.010850694444444444,0,0,0.010850694444444444,47.98177083333333,0)" xlink:href="#H"/><use transform="matrix(0.010850694444444444,0,0,0.010850694444444444,60.937499999999986,0)" xlink:href="#ak"/></g><path d="M128 359l88-567h206L266 359H128" id="an"/><g id="D"><use transform="matrix(0.010850694444444444,0,0,0.010850694444444444,0,0)" xlink:href="#ae"/><use transform="matrix(0.010850694444444444,0,0,0.010850694444444444,13.780381944444445,0)" xlink:href="#aa"/><use transform="matrix(0.010850694444444444,0,0,0.010850694444444444,27.38715277777778,0)" xlink:href="#an"/><use transform="matrix(0.010850694444444444,0,0,0.010850694444444444,33.22482638888889,0)" xlink:href="#ae"/><use transform="matrix(0.010850694444444444,0,0,0.010850694444444444,47.00520833333333,0)" xlink:href="#W"/><use transform="matrix(0.010850694444444444,0,0,0.010850694444444444,60.55772569444444,0)" xlink:href="#Y"/><use transform="matrix(0.010850694444444444,0,0,0.010850694444444444,73.80642361111111,0)" xlink:href="#an"/><use transform="matrix(0.010850694444444444,0,0,0.010850694444444444,80.20833333333334,0)" xlink:href="#aa"/><use transform="matrix(0.010850694444444444,0,0,0.010850694444444444,94.56380208333334,0)" xlink:href="#ac"/><use transform="matrix(0.010850694444444444,0,0,0.010850694444444444,108.58289930555557,0)" xlink:href="#aa"/></g><path d="M538 24C308 24 148-78 108-271l171-41c32 123 123 178 257 178 156 0 256-77 256-169 0-77-54-128-164-154l-186-44c-203-48-300-148-300-305 0-192 176-326 414-326 230 0 351 112 402 269l-163 42c-31-80-94-158-238-158-133 0-233 69-233 162 0 83 57 129 188 160l169 40c203 48 298 149 298 302 0 196-179 339-441 339" id="ao"/><path d="M409 0L70-1118h191c89 329 165 560 243 925 75-353 154-601 240-925h192c85 325 161 564 235 922 77-354 157-598 244-922h191L1267 0h-179c-86-307-176-590-250-913C763-588 675-308 588 0H409" id="ap"/><path d="M577 24c-279 0-473-224-473-580 0-354 195-576 474-576 218 0 287 134 324 193h14v-551h180V0H922v-173h-20C865-111 790 24 577 24zm27-161c203 0 314-172 314-421 0-247-108-413-314-413-212 0-317 181-317 413 0 235 108 421 317 421" id="aq"/><g id="E"><use transform="matrix(0.010850694444444444,0,0,0.010850694444444444,0,0)" xlink:href="#ai"/><use transform="matrix(0.010850694444444444,0,0,0.010850694444444444,13.823784722222221,0)" xlink:href="#aj"/><use transform="matrix(0.010850694444444444,0,0,0.010850694444444444,26.302083333333332,0)" xlink:href="#ao"/><use transform="matrix(0.010850694444444444,0,0,0.010850694444444444,38.03168402777778,0)" xlink:href="#ao"/><use transform="matrix(0.010850694444444444,0,0,0.010850694444444444,49.76128472222222,0)" xlink:href="#ap"/><use transform="matrix(0.010850694444444444,0,0,0.010850694444444444,67.54557291666667,0)" xlink:href="#ag"/><use transform="matrix(0.010850694444444444,0,0,0.010850694444444444,80.87022569444444,0)" xlink:href="#ak"/><use transform="matrix(0.010850694444444444,0,0,0.010850694444444444,88.8671875,0)" xlink:href="#aq"/><use transform="matrix(0.010850694444444444,0,0,0.010850694444444444,102.47395833333333,0)" xlink:href="#ao"/></g><g id="F"><use transform="matrix(0.010850694444444444,0,0,0.010850694444444444,0,0)" xlink:href="#W"/><use transform="matrix(0.010850694444444444,0,0,0.010850694444444444,13.20529513888889,0)" xlink:href="#aa"/><use transform="matrix(0.010850694444444444,0,0,0.010850694444444444,26.81206597222222,0)" xlink:href="#an"/><use transform="matrix(0.010850694444444444,0,0,0.010850694444444444,33.21397569444444,0)" xlink:href="#aa"/><use transform="matrix(0.010850694444444444,0,0,0.010850694444444444,47.56944444444444,0)" xlink:href="#aa"/><use transform="matrix(0.010850694444444444,0,0,0.010850694444444444,61.490885416666664,0)" xlink:href="#U"/><use transform="matrix(0.010850694444444444,0,0,0.010850694444444444,70.52951388888889,0)" xlink:href="#an"/><use transform="matrix(0.010850694444444444,0,0,0.010850694444444444,76.43229166666667,0)" xlink:href="#Y"/><use transform="matrix(0.010850694444444444,0,0,0.010850694444444444,90.1801215277778,0)" xlink:href="#Z"/><use transform="matrix(0.010850694444444444,0,0,0.010850694444444444,103.90625,0)" xlink:href="#ac"/></g></defs></g></svg>