<?xml version="1.0" encoding="utf-8"?>
<!-- Generator: Adobe Illustrator 23.0.1, SVG Export Plug-In . SVG Version: 6.00 Build 0)  -->
<svg version="1.1" id="Layer_1" xmlns="http://www.w3.org/2000/svg" xmlns:xlink="http://www.w3.org/1999/xlink" x="0px" y="0px"
	 viewBox="0 0 1000 1000" style="enable-background:new 0 0 1000 1000;" xml:space="preserve">
<style type="text/css">
	.st0{fill:#507997;}
	.st1{fill:#F58220;}
</style>
<g>
	<path class="st0" d="M111.5,626.9c0,0-17.9,10.9,12.4,14c36.4,4.6,55.9,3.9,96.2-3.9c0,0,10.9,7,25.6,12.4
		C155,688.2,40.1,647.1,111.5,626.9L111.5,626.9z M99.9,576.5c0,0-19.4,14.7,10.9,17.9c39.6,3.9,70.7,4.6,124.2-6.2
		c0,0,7,7.8,18.6,11.6C144.1,632.4,21.5,602.9,99.9,576.5L99.9,576.5z M314.1,664.9c0,0,13.2,10.9-14.7,19.4
		c-52,15.5-218,20.2-264.6,0c-16.3-7,14.7-17.2,24.8-18.6c10.1-2.3,15.5-2.3,15.5-2.3C57.2,651-43.7,689,23.8,699.8
		C209.3,730,362.1,686.6,314.1,664.9L314.1,664.9z M120.1,523.7c0,0-84.6,20.2-30.3,27.2c23.3,3.1,69.1,2.3,111.7-0.8
		c34.9-3.1,69.8-9.3,69.8-9.3s-12.4,5.4-21,10.9C164.3,574.1-1,564.1,46.3,540.8c40.3-19.4,73.7-17.2,73.7-17.2V523.7z M271.4,608.3
		c86.9-45,46.6-88.5,18.6-83c-7,1.6-10.1,3.1-10.1,3.1s2.3-4.6,7.8-6.2c55.1-19.4,98.6,58.2-17.9,88.5
		C269.8,610.6,270.6,609.8,271.4,608.3L271.4,608.3z M128.6,730.9c83.8,5.4,211.9-3.1,214.9-42.7c0,0-6.2,15.5-69.1,27.2
		c-71.4,13.2-159.8,11.6-211.9,3.1C62.6,718.5,73.5,727.8,128.6,730.9L128.6,730.9z"/>
	<path class="st1" d="M218.6,267.6c0,0,48.1,48.9-45.8,122.6c-75.3,59.7-17.2,93.9,0,132.7c-44.2-39.6-76-74.5-54.3-107.1
		C150.3,367.7,238,344.5,218.6,267.6L218.6,267.6z M193.8,490.3c22.5,25.6-6.2,48.9-6.2,48.9s57.4-29.5,31-66
		c-24-34.9-42.7-52,58.2-110.2C276.8,363.1,117.7,402.6,193.8,490.3L193.8,490.3z"/>
	<path class="st0" d="M691,582.5v-118c0-30.1-16.9-50.6-59-50.6c-24.1,0-44.6,6-62.6,13.2l6,21.7c13.2-4.8,30.1-9.6,48.1-9.6
		c22.9,0,33.7,9.6,33.7,28.9v15.7h-11.9c-57.8,0-84.3,21.7-84.3,56.6c0,28.9,18.1,45.7,50.6,45.7c20.5,0,36.1-9.6,50.6-21.7
		l2.4,18.1L691,582.5L691,582.5z M657.3,543.9c-12,10.8-25.3,16.9-37.3,16.9c-15.7,0-25.3-9.6-25.3-26.5s9.6-28.9,48.1-28.9h14.4
		V543.9L657.3,543.9z M804.2,582.5H762l-50.5-164.9h36.1l31.3,101.1l7.2,30.1c15.7-43.3,27.7-87.9,32.5-131.2h36.1
		C845.1,471.8,828.3,530.7,804.2,582.5L804.2,582.5z M999.2,582.5v-118c0-30.1-16.9-50.6-59-50.6c-24.1,0-44.5,6-62.6,13.2l4.8,21.7
		c14.4-4.8,31.3-9.6,49.4-9.6c22.9,0,33.7,9.6,33.7,28.9v15.7h-12c-57.8,0-84.3,21.7-84.3,56.6c0,28.9,16.9,45.7,49.4,45.7
		c21.7,0,37.3-9.6,51.8-21.7l2.4,18.1H999.2L999.2,582.5z M965.5,543.9c-12,10.8-25.3,16.9-37.3,16.9c-15.7,0-25.3-9.6-25.3-26.5
		s9.6-28.9,48.1-28.9h14.4V543.9L965.5,543.9z M523.7,610.1c-9.6,14.4-24.1,25.3-42.1,31.3l-15.7-19.3c12-7.2,24.1-18.1,28.9-27.7
		c4.8-8.4,6-20.5,6-48.1V358.6h36.1v185.4C536.9,581.3,533.3,595.7,523.7,610.1L523.7,610.1z"/>
</g>
</svg>
