<svg xmlns="http://www.w3.org/2000/svg" xmlns:xlink="http://www.w3.org/1999/xlink" version="1.1" x="0px" y="0px" fill="#008000" viewBox="0 0 90 90" enable-background="new 0 0 90 90" xml:space="preserve"><g><path d="M8.35,62.435H2.442l11.598-26.583c0,0,8.861-21.288,35.336-10.158c0,0,16.425,9.185,8.645,30.797l9.185,10.698H55.104   c0,0-10.482,0.108-16.965,8.753c0,0-9.617,14.48-38.037,14.048l17.181-38.037c0,0,12.859,6.267,18.37-6.7H16.85L8.35,62.435z"/><path d="M24.415,20.724L9.07,2.246c0,0,25.394-6.592,48.303,2.81c0,0,16.857,9.185,15.561,30.365c0,0-1.837,26.907,16.965,26.691   v5.619c0,0-22.837,1.693-25.862-20.928c0,0,1.585-21.036-15.705-25.934C48.332,20.868,37.526,16.69,24.415,20.724z"/></g></svg>